<svg width="32" height="32" viewBox="0 0 32 32" fill="none" xmlns="http://www.w3.org/2000/svg">
<g clip-path="url(#clip0)">
<path d="M28.7481 7.80533L21.5281 0.585333C21.1522 0.211996 20.6445 0.00170833 20.1147 0L4.66675 0C4.13632 0 3.62761 0.210714 3.25253 0.585786C2.87746 0.960859 2.66675 1.46957 2.66675 2V30C2.66675 30.5304 2.87746 31.0391 3.25253 31.4142C3.62761 31.7893 4.13632 32 4.66675 32H28.6667C28.8436 32 29.0131 31.9298 29.1382 31.8047C29.2632 31.6797 29.3334 31.5101 29.3334 31.3333V9.21867C29.3341 8.95609 29.2827 8.69599 29.1822 8.4534C29.0818 8.21081 28.9342 7.99054 28.7481 7.80533ZM13.0894 14.9107L8.59608 13.2307C7.98231 12.938 7.47039 12.468 7.12646 11.8814C6.78254 11.2948 6.6224 10.6185 6.66675 9.94C6.66095 9.09709 6.97105 8.28258 7.53597 7.65695C8.10088 7.03133 8.87962 6.63997 9.71875 6.56C9.7973 6.54787 9.86889 6.50796 9.92052 6.44753C9.97214 6.3871 10.0004 6.31015 10.0001 6.23067V5.33333C10.0001 4.97971 10.1406 4.64057 10.3906 4.39052C10.6407 4.14048 10.9798 4 11.3334 4C11.687 4 12.0262 4.14048 12.2762 4.39052C12.5263 4.64057 12.6667 4.97971 12.6667 5.33333V6.16667C12.6667 6.25507 12.7019 6.33986 12.7644 6.40237C12.8269 6.46488 12.9117 6.5 13.0001 6.5H14.6667C15.0204 6.5 15.3595 6.64048 15.6096 6.89052C15.8596 7.14057 16.0001 7.47971 16.0001 7.83333C16.0001 8.18696 15.8596 8.52609 15.6096 8.77614C15.3595 9.02619 15.0204 9.16667 14.6667 9.16667H10.5001C9.33342 9.16667 9.33342 9.748 9.33342 9.94C9.31224 10.2327 9.39904 10.523 9.57741 10.756L14.0707 12.436C14.6856 12.7291 15.1983 13.2001 15.5423 13.7881C15.8863 14.376 16.0458 15.0537 16.0001 15.7333C16.0042 16.5751 15.6934 17.388 15.1286 18.0122C14.5639 18.6364 13.7861 19.0268 12.9481 19.1067C12.8695 19.1188 12.7979 19.1587 12.7463 19.2191C12.6947 19.2796 12.6665 19.3565 12.6667 19.436V20.3333C12.6667 20.687 12.5263 21.0261 12.2762 21.2761C12.0262 21.5262 11.687 21.6667 11.3334 21.6667C10.9798 21.6667 10.6407 21.5262 10.3906 21.2761C10.1406 21.0261 10.0001 20.687 10.0001 20.3333V19.5C10.0001 19.4116 9.96496 19.3268 9.90245 19.2643C9.83994 19.2018 9.75515 19.1667 9.66675 19.1667H8.00008C7.64646 19.1667 7.30732 19.0262 7.05727 18.7761C6.80722 18.5261 6.66675 18.187 6.66675 17.8333C6.66675 17.4797 6.80722 17.1406 7.05727 16.8905C7.30732 16.6405 7.64646 16.5 8.00008 16.5H12.1667C13.3334 16.5 13.3334 15.9187 13.3334 15.7267C13.3546 15.434 13.2678 15.1437 13.0894 14.9107ZM24.6667 19.6667C24.932 19.6667 25.1863 19.772 25.3739 19.9596C25.5614 20.1471 25.6667 20.4015 25.6667 20.6667C25.6667 20.9319 25.5614 21.1862 25.3739 21.3738C25.1863 21.5613 24.932 21.6667 24.6667 21.6667H18.0001C17.7349 21.6667 17.4805 21.5613 17.293 21.3738C17.1054 21.1862 17.0001 20.9319 17.0001 20.6667C17.0001 20.4015 17.1054 20.1471 17.293 19.9596C17.4805 19.772 17.7349 19.6667 18.0001 19.6667H24.6667ZM19.6667 14.6667C19.6667 14.4015 19.7721 14.1471 19.9596 13.9596C20.1472 13.772 20.4015 13.6667 20.6667 13.6667H24.6667C24.932 13.6667 25.1863 13.772 25.3739 13.9596C25.5614 14.1471 25.6667 14.4015 25.6667 14.6667C25.6667 14.9319 25.5614 15.1862 25.3739 15.3738C25.1863 15.5613 24.932 15.6667 24.6667 15.6667H20.6667C20.4015 15.6667 20.1472 15.5613 19.9596 15.3738C19.7721 15.1862 19.6667 14.9319 19.6667 14.6667ZM24.6667 25.6667C24.932 25.6667 25.1863 25.772 25.3739 25.9596C25.5614 26.1471 25.6667 26.4015 25.6667 26.6667C25.6667 26.9319 25.5614 27.1862 25.3739 27.3738C25.1863 27.5613 24.932 27.6667 24.6667 27.6667H11.3334C11.0682 27.6667 10.8138 27.5613 10.6263 27.3738C10.4388 27.1862 10.3334 26.9319 10.3334 26.6667C10.3334 26.4015 10.4388 26.1471 10.6263 25.9596C10.8138 25.772 11.0682 25.6667 11.3334 25.6667H24.6667Z" fill="#303B72"/>
</g>
<defs>
<clipPath id="clip0">
<rect width="32" height="32" fill="white"/>
</clipPath>
</defs>
</svg>
