<svg width="25" height="25" viewBox="0 0 25 25" fill="none" xmlns="http://www.w3.org/2000/svg">
<path d="M11.0693 0H1.04004C0.463867 0 0 0.463867 0 1.04004V11.0645C0 11.2061 0.117188 11.3232 0.258789 11.3232H11.0645C11.2061 11.3232 11.3232 11.2061 11.3232 11.0645V0.258789C11.3281 0.117188 11.2109 0 11.0693 0ZM9.24316 9.24316H2.08496V2.08496H9.24805V9.24316H9.24316ZM4.75098 6.83594H6.57227C6.71387 6.83594 6.83105 6.71875 6.83105 6.57715V4.75098C6.83105 4.60938 6.71387 4.49219 6.57227 4.49219H4.75098C4.60938 4.49219 4.49219 4.60938 4.49219 4.75098V6.57227C4.49219 6.71875 4.60938 6.83594 4.75098 6.83594ZM11.0693 13.6719H0.258789C0.117188 13.6719 0 13.7891 0 13.9307V23.9551C0 24.5361 0.463867 25 1.04004 25H11.0645C11.2061 25 11.3232 24.8828 11.3232 24.7412V13.9307C11.3281 13.7891 11.2109 13.6719 11.0693 13.6719ZM9.24316 22.915H2.08496V15.7568H9.24805V22.915H9.24316ZM4.75098 20.5078H6.57227C6.71387 20.5078 6.83105 20.3906 6.83105 20.249V18.4277C6.83105 18.2861 6.71387 18.1689 6.57227 18.1689H4.75098C4.60938 18.1689 4.49219 18.2861 4.49219 18.4277V20.249C4.49219 20.3906 4.60938 20.5078 4.75098 20.5078ZM23.96 0H13.9307C13.7891 0 13.6719 0.117188 13.6719 0.258789V11.0645C13.6719 11.2061 13.7891 11.3232 13.9307 11.3232H24.7363C24.8779 11.3232 24.9951 11.2061 24.9951 11.0645V1.04004C25 0.463867 24.5361 0 23.96 0ZM22.915 9.24316H15.7568V2.08496H22.9199V9.24316H22.915ZM18.4229 6.83594H20.2441C20.3857 6.83594 20.5029 6.71875 20.5029 6.57715V4.75098C20.5029 4.60938 20.3857 4.49219 20.2441 4.49219H18.4229C18.2812 4.49219 18.1641 4.60938 18.1641 4.75098V6.57227C18.1641 6.71875 18.2812 6.83594 18.4229 6.83594ZM24.7412 13.6719H23.1787C23.0371 13.6719 22.9199 13.7891 22.9199 13.9307V18.291H20.3809V13.9307C20.3809 13.7891 20.2637 13.6719 20.1221 13.6719H13.9307C13.7891 13.6719 13.6719 13.7891 13.6719 13.9307V24.7363C13.6719 24.8779 13.7891 24.9951 13.9307 24.9951H15.4932C15.6348 24.9951 15.752 24.8779 15.752 24.7363V16.7969H18.291V20.1172C18.291 20.2588 18.4082 20.376 18.5498 20.376H24.7363C24.8779 20.376 24.9951 20.2588 24.9951 20.1172V13.9307C25 13.7891 24.8828 13.6719 24.7412 13.6719ZM20.1172 22.915H18.5547C18.4131 22.915 18.2959 23.0322 18.2959 23.1738V24.7363C18.2959 24.8779 18.4131 24.9951 18.5547 24.9951H20.1172C20.2588 24.9951 20.376 24.8779 20.376 24.7363V23.1738C20.376 23.0322 20.2588 22.915 20.1172 22.915ZM24.7412 22.915H23.1787C23.0371 22.915 22.9199 23.0322 22.9199 23.1738V24.7363C22.9199 24.8779 23.0371 24.9951 23.1787 24.9951H24.7412C24.8828 24.9951 25 24.8779 25 24.7363V23.1738C25 23.0322 24.8828 22.915 24.7412 22.915Z" fill="white"/>
</svg>
