<svg width="156" height="241" viewBox="0 0 156 241" fill="none" xmlns="http://www.w3.org/2000/svg">
<path d="M139.921 212.68C148.043 191.698 161.239 170.95 153.126 147.779C148.641 134.968 134.937 129.572 124.453 122.662C106.513 110.835 98.4912 92.8244 99.8179 71.5471C100.349 63.0364 98.8659 53.5817 92.3912 48.0324C82.7552 39.7751 66.9912 43.9124 56.5552 36.6937C50.9499 32.8177 47.8299 26.3711 43.9485 20.7697C34.5592 7.22307 17.5605 0.667078 17.5605 0.667078C17.5605 0.667078 18.4645 14.7644 10.7325 28.6444C5.77253 37.5511 1.67119 47.4991 0.871188 57.8324C0.245854 65.9071 2.74852 72.6084 7.40186 79.0431C12.8792 86.6164 16.8952 92.8471 17.7405 102.244C19.0432 116.75 0.715188 148.007 18.1299 155.67C22.8672 157.755 28.5312 157.682 32.6205 161.135C40.0325 167.395 33.3085 177.158 33.7872 184.918C34.5259 196.848 39.2912 210.758 48.0685 217.715C69.0059 234.314 101.593 240.859 128.658 239.984" fill="#E9F1FF"/>
<path d="M17.5878 2.08651C46.3172 46.7238 47.5892 105.085 77.4105 149.001C86.3572 162.177 97.6092 173.615 107.238 186.301C116.865 198.987 125.044 213.507 126.348 229.38" stroke="white" stroke-width="2" stroke-miterlimit="10" stroke-linejoin="round"/>
<path d="M61.6354 119.077C61.6354 119.077 28.4514 104.455 16.5048 95.6108" stroke="white" stroke-width="2" stroke-miterlimit="10" stroke-linejoin="round"/>
<path d="M71.0806 41.0638C67.71 62.3878 62.502 79.7532 55.9686 104.051" stroke="white" stroke-width="2" stroke-miterlimit="10" stroke-linejoin="round"/>
<path d="M54.041 34.1686C54.041 34.1686 50.513 52.158 44.7424 67.9393" stroke="white" stroke-width="2" stroke-miterlimit="10" stroke-linejoin="round"/>
<path d="M35.6035 11.692C35.8155 11.872 35.1555 17.6094 32.0341 30.4294" stroke="white" stroke-width="2" stroke-miterlimit="10" stroke-linejoin="round"/>
<path d="M42.2793 59.8242C42.3287 59.9802 19.5687 46.0896 7.01001 36.3722" stroke="white" stroke-width="2" stroke-miterlimit="10" stroke-linejoin="round"/>
<path d="M54.069 98.4219C54.0237 98.2832 16.849 81.4565 2.37836 69.7045" stroke="white" stroke-width="2" stroke-miterlimit="10" stroke-linejoin="round"/>
<path d="M99.0169 59.8255C95.7809 72.1495 89.5703 104.051 71.0809 135.856" stroke="white" stroke-width="2" stroke-miterlimit="10" stroke-linejoin="round"/>
<path d="M75.2929 145.777C75.2929 145.777 34.3423 132.999 14.3209 122.587" stroke="white" stroke-width="2" stroke-miterlimit="10" stroke-linejoin="round"/>
<path d="M122.128 211.77C122.128 211.77 63.8809 200.809 34.4263 190.578" stroke="white" stroke-width="2" stroke-miterlimit="10" stroke-linejoin="round"/>
<path d="M135.16 128.563C135.16 128.563 131.56 166.991 114.173 196.265" stroke="white" stroke-width="2" stroke-miterlimit="10" stroke-linejoin="round"/>
</svg>
