<svg width="1280" height="350" viewBox="0 0 1280 350" fill="none" xmlns="http://www.w3.org/2000/svg">
<rect width="1280" height="350" rx="12" fill="#D5DDEF"/>
<mask id="mask0" mask-type="alpha" maskUnits="userSpaceOnUse" x="0" y="0" width="1280" height="350">
<rect width="1280" height="350" rx="12" fill="#EBF2F9"/>
</mask>
<g mask="url(#mask0)">
<path d="M26.2968 423.346C36.6465 271.94 97.2014 125.895 188.582 4.72706C279.97 -116.436 506.393 -286.071 725.029 -325.9C713.598 105.544 385.851 367.231 167.189 451.755L26.2968 423.346Z" fill="#D3DDF1"/>
<path d="M723.014 -330.811C722.683 -330.67 597.89 -279.515 452.877 -160.809C307.889 -42.1171 142.596 144.245 61.8942 414.668L72.1145 417.717C152.041 149.895 315.77 -34.774 459.639 -152.555C531.562 -211.435 598.5 -253.575 647.411 -280.966C671.87 -294.663 691.824 -304.67 705.641 -311.252C712.551 -314.539 717.929 -316.974 721.565 -318.575C723.382 -319.378 724.77 -319.971 725.695 -320.366C726.613 -320.759 727.059 -320.937 727.059 -320.937L723.014 -330.811Z" fill="white"/>
<path d="M721.41 -329.768C721.254 -329.579 305.677 73.9744 87.9673 453.433L97.2249 458.743C205.438 270.055 363.401 74.7217 494.258 -73.3199C559.693 -147.346 618.359 -209.559 660.653 -253.262C681.8 -275.113 698.857 -292.334 710.619 -304.086C716.502 -309.97 721.06 -314.475 724.147 -317.519C727.236 -320.556 728.837 -322.111 728.844 -322.113L721.41 -329.768Z" fill="white"/>
<path d="M720.343 -328.081C720.338 -328.073 719.532 -326.215 717.904 -322.59C693.43 -268.199 484.68 178.202 122.861 462.943L129.467 471.327C518.086 165.274 729.911 -323.48 730.133 -323.834L720.343 -328.081Z" fill="white"/>
<path d="M1338.29 -19.3153C1337.98 -19.2998 1226.6 -16.6479 1070.31 25.2284C855.333 82.8246 555.113 214.754 343.049 516.546L351.784 522.681C561.872 223.657 859.532 92.7522 1073.07 35.5338C1150.66 14.7448 1217.1 3.69441 1264.11 -2.15673C1287.61 -5.07451 1306.26 -6.69763 1319.01 -7.59532C1325.38 -8.03729 1330.28 -8.3043 1333.58 -8.45304C1335.23 -8.5274 1336.48 -8.58119 1337.31 -8.60556C1338.14 -8.63679 1338.54 -8.64687 1338.54 -8.64687L1338.29 -19.3085L1338.29 -19.3153Z" fill="white"/>
<path d="M1336.35 -18.9223C1336.26 -18.8828 1185.31 47.7259 987.676 154.56C790.047 261.409 545.763 408.438 358.84 569.588L365.807 577.669C551.688 417.387 795.5 270.573 992.755 163.95C1091.39 110.63 1178.39 67.3418 1240.71 37.3875C1271.87 22.4104 1296.87 10.772 1314.08 2.87734C1322.67 -1.075 1329.32 -4.0872 1333.83 -6.10393C1338.32 -8.13257 1340.65 -9.15524 1340.66 -9.15708L1336.35 -18.9223Z" fill="white"/>
<path d="M1334.56 -17.5677C1334.55 -17.5659 1333.01 -15.8784 1329.93 -12.6108C1283.85 36.4075 897.064 435.229 394.332 594.559L397.557 604.725C937.288 433.486 1342.1 -10.0963 1342.43 -10.378L1334.56 -17.5677Z" fill="white"/>
</g>
</svg>
