<svg width="1280" height="350" viewBox="0 0 1280 350" fill="none" xmlns="http://www.w3.org/2000/svg">
<rect width="1280" height="350" rx="12" fill="#F2C8CB"/>
<mask id="mask0" mask-type="alpha" maskUnits="userSpaceOnUse" x="0" y="0" width="1280" height="350">
<rect width="1280" height="350" rx="12" fill="#EBF2F9"/>
</mask>
<g mask="url(#mask0)">
<path d="M-126.333 -28.2753L-170.92 -119.867C-100.679 -123.219 -31.1302 -113.056 34.0471 -90.8237C157.786 -48.6814 266.354 36.9821 335.145 156.131C346.753 176.237 357.223 197.278 366.43 219.204C390.957 277.586 404.719 337.883 408.623 397.806L317.857 442.004C319.009 379.663 307.471 316.086 281.735 254.776C274.026 236.412 265.275 218.833 255.592 202.062C198.267 102.772 107.833 31.3821 4.42665 -3.8694C-37.5596 -18.1518 -81.5754 -26.4796 -126.333 -28.2753Z" fill="white"/>
<path opacity="0.4" d="M633.807 -47.2751L589.22 -138.867C659.461 -142.218 729.009 -132.056 794.187 -109.823C917.926 -67.6811 1026.49 17.9823 1095.28 137.132C1106.89 157.237 1117.36 178.279 1126.57 200.204C1151.1 258.586 1164.86 318.883 1168.76 378.807L1078 423.004C1079.15 360.663 1067.61 297.087 1041.88 235.776C1034.17 217.412 1025.41 199.833 1015.73 183.062C958.406 83.7719 867.972 12.3823 764.566 -22.8692C722.58 -37.1515 678.564 -45.4794 633.807 -47.2751Z" fill="white"/>
<path d="M131.187 472.864C141.427 421.004 136.877 365.822 114.838 313.303C110.241 302.351 105.033 291.877 99.2663 281.89L99.2621 281.883C68.635 228.835 22.1326 189.176 -31.6343 166.431L-85.0386 56.7293C-63.0636 60.001 -41.4974 65.2541 -20.623 72.3818C61.2997 100.269 133.237 157.025 178.82 235.96C186.507 249.274 193.438 263.217 199.532 277.731C228.4 346.404 234.763 419.188 221.94 487.418C190.547 497.347 156.929 491.328 131.187 472.864Z" fill="white"/>
</g>
</svg>
