<svg width="150" height="149" viewBox="0 0 150 149" fill="none" xmlns="http://www.w3.org/2000/svg">
<g filter="url(#filter0_d)">
<path d="M75 135C110.898 135 140 105.899 140 70C140 34.1015 110.898 5 75 5C39.1015 5 10 34.1015 10 70C10 105.899 39.1015 135 75 135Z" fill="black"/>
</g>
<path d="M75 135C110.898 135 140 105.899 140 70C140 34.1015 110.898 5 75 5C39.1015 5 10 34.1015 10 70C10 105.899 39.1015 135 75 135Z" fill="#F8F1EC"/>
<path d="M110.165 34L80.12 56.3149L85.6761 43.1494L110.165 34Z" fill="#E2761B" stroke="#E2761B" stroke-linecap="round" stroke-linejoin="round"/>
<path d="M40.8048 34L70.6083 56.5263L65.324 43.1494L40.8048 34Z" fill="#E4761B" stroke="#E4761B" stroke-linecap="round" stroke-linejoin="round"/>
<path d="M99.355 85.7261L91.353 97.9857L108.474 102.696L113.396 85.9978L99.355 85.7261Z" fill="#E4761B" stroke="#E4761B" stroke-linecap="round" stroke-linejoin="round"/>
<path d="M37.6342 85.9978L42.5259 102.696L59.6471 97.9857L51.6451 85.7261L37.6342 85.9978Z" fill="#E4761B" stroke="#E4761B" stroke-linecap="round" stroke-linejoin="round"/>
<path d="M58.6808 65.0112L53.9098 72.2281L70.9102 72.983L70.3063 54.7144L58.6808 65.0112Z" fill="#E4761B" stroke="#E4761B" stroke-linecap="round" stroke-linejoin="round"/>
<path d="M92.289 65.0114L80.5125 54.5032L80.12 72.9832L97.0902 72.2283L92.289 65.0114Z" fill="#E4761B" stroke="#E4761B" stroke-linecap="round" stroke-linejoin="round"/>
<path d="M59.647 97.9857L69.8532 93.0034L61.036 86.1187L59.647 97.9857Z" fill="#E4761B" stroke="#E4761B" stroke-linecap="round" stroke-linejoin="round"/>
<path d="M81.1165 93.0034L91.3529 97.9857L89.9337 86.1187L81.1165 93.0034Z" fill="#E4761B" stroke="#E4761B" stroke-linecap="round" stroke-linejoin="round"/>
<path d="M91.3529 97.9855L81.1165 93.0032L81.9318 99.6765L81.8412 102.485L91.3529 97.9855Z" fill="#D7C1B3" stroke="#D7C1B3" stroke-linecap="round" stroke-linejoin="round"/>
<path d="M59.647 97.9855L69.1587 102.485L69.0983 99.6765L69.8532 93.0032L59.647 97.9855Z" fill="#D7C1B3" stroke="#D7C1B3" stroke-linecap="round" stroke-linejoin="round"/>
<path d="M69.3099 81.7099L60.7946 79.2037L66.8036 76.4558L69.3099 81.7099Z" fill="#233447" stroke="#233447" stroke-linecap="round" stroke-linejoin="round"/>
<path d="M81.6599 81.7099L84.1662 76.4558L90.2054 79.2037L81.6599 81.7099Z" fill="#233447" stroke="#233447" stroke-linecap="round" stroke-linejoin="round"/>
<path d="M59.6471 97.9857L61.0965 85.7261L51.6451 85.9978L59.6471 97.9857Z" fill="#CD6116" stroke="#CD6116" stroke-linecap="round" stroke-linejoin="round"/>
<path d="M89.9036 85.7261L91.353 97.9857L99.3549 85.9978L89.9036 85.7261Z" fill="#CD6116" stroke="#CD6116" stroke-linecap="round" stroke-linejoin="round"/>
<path d="M97.0902 72.2283L80.12 72.9832L81.6902 81.7098L84.1965 76.4557L90.2357 79.2036L97.0902 72.2283Z" fill="#CD6116" stroke="#CD6116" stroke-linecap="round" stroke-linejoin="round"/>
<path d="M60.7945 79.2036L66.8337 76.4557L69.3098 81.7098L70.9102 72.9832L53.9098 72.2283L60.7945 79.2036Z" fill="#CD6116" stroke="#CD6116" stroke-linecap="round" stroke-linejoin="round"/>
<path d="M53.9098 72.2285L61.0361 86.1187L60.7945 79.2038L53.9098 72.2285Z" fill="#E4751F" stroke="#E4751F" stroke-linecap="round" stroke-linejoin="round"/>
<path d="M90.2356 79.2036L89.9336 86.1185L97.0901 72.2283L90.2356 79.2036Z" fill="#E4751F" stroke="#E4751F" stroke-linecap="round" stroke-linejoin="round"/>
<path d="M70.9102 72.9832L69.3098 81.7098L71.3028 92.0067L71.7557 78.4486L70.9102 72.9832Z" fill="#E4751F" stroke="#E4751F" stroke-linecap="round" stroke-linejoin="round"/>
<path d="M80.1201 72.9832L79.3048 78.4184L79.6672 92.0067L81.6903 81.7098L80.1201 72.9832Z" fill="#E4751F" stroke="#E4751F" stroke-linecap="round" stroke-linejoin="round"/>
<path d="M81.6901 81.7099L79.667 92.0068L81.1164 93.0032L89.9337 86.1185L90.2356 79.2036L81.6901 81.7099Z" fill="#F6851B" stroke="#F6851B" stroke-linecap="round" stroke-linejoin="round"/>
<path d="M60.7946 79.2036L61.0361 86.1185L69.8534 93.0032L71.3028 92.0068L69.3099 81.7099L60.7946 79.2036Z" fill="#F6851B" stroke="#F6851B" stroke-linecap="round" stroke-linejoin="round"/>
<path d="M81.8411 102.485L81.9317 99.6763L81.1768 99.012H69.7929L69.0983 99.6763L69.1587 102.485L59.647 97.9854L62.9685 100.703L69.7023 105.383H81.2674L88.0313 100.703L91.3529 97.9854L81.8411 102.485Z" fill="#C0AD9E" stroke="#C0AD9E" stroke-linecap="round" stroke-linejoin="round"/>
<path d="M81.1165 93.0033L79.6671 92.0068H71.3028L69.8534 93.0033L69.0985 99.6766L69.793 99.0123H81.1769L81.9318 99.6766L81.1165 93.0033Z" fill="#161616" stroke="#161616" stroke-linecap="round" stroke-linejoin="round"/>
<path d="M111.433 57.7643L114 45.4443L110.165 34L81.1165 55.56L92.289 65.0114L108.082 69.6314L111.584 65.5549L110.074 64.4678L112.49 62.2635L110.618 60.8141L113.034 58.9722L111.433 57.7643Z" fill="#763D16" stroke="#763D16" stroke-linecap="round" stroke-linejoin="round"/>
<path d="M37 45.4443L39.5667 57.7643L37.9361 58.9722L40.3518 60.8141L38.5098 62.2635L40.9255 64.4678L39.4157 65.5549L42.8882 69.6314L58.6808 65.0114L69.8533 55.56L40.8047 34L37 45.4443Z" fill="#763D16" stroke="#763D16" stroke-linecap="round" stroke-linejoin="round"/>
<path d="M108.081 69.6312L92.2889 65.0112L97.0901 72.2281L89.9336 86.1183L99.3548 85.9975H113.396L108.081 69.6312Z" fill="#F6851B" stroke="#F6851B" stroke-linecap="round" stroke-linejoin="round"/>
<path d="M58.6808 65.0112L42.8883 69.6312L37.6342 85.9975H51.6451L61.0361 86.1183L53.9098 72.2281L58.6808 65.0112Z" fill="#F6851B" stroke="#F6851B" stroke-linecap="round" stroke-linejoin="round"/>
<path d="M80.1199 72.9831L81.1164 55.56L85.7062 43.1494H65.3239L69.8533 55.56L70.9101 72.9831L71.2725 78.4788L71.3027 92.0067H79.667L79.7274 78.4788L80.1199 72.9831Z" fill="#F6851B" stroke="#F6851B" stroke-linecap="round" stroke-linejoin="round"/>
<defs>
<filter id="filter0_d" x="0.823652" y="0.411826" width="148.353" height="148.353" filterUnits="userSpaceOnUse" color-interpolation-filters="sRGB">
<feFlood flood-opacity="0" result="BackgroundImageFix"/>
<feColorMatrix in="SourceAlpha" type="matrix" values="0 0 0 0 0 0 0 0 0 0 0 0 0 0 0 0 0 0 127 0"/>
<feOffset dy="4.58817"/>
<feGaussianBlur stdDeviation="4.58817"/>
<feColorMatrix type="matrix" values="0 0 0 0 0 0 0 0 0 0 0 0 0 0 0 0 0 0 0.25 0"/>
<feBlend mode="normal" in2="BackgroundImageFix" result="effect1_dropShadow"/>
<feBlend mode="normal" in="SourceGraphic" in2="effect1_dropShadow" result="shape"/>
</filter>
</defs>
</svg>
