<svg width="33" height="30" viewBox="0 0 33 30" fill="none" xmlns="http://www.w3.org/2000/svg">
<path d="M30.0173 1L18.1013 9.85014L20.3049 4.62868L30.0173 1Z" fill="#E2761B" stroke="#E2761B" stroke-linecap="round" stroke-linejoin="round"/>
<path d="M2.50916 1L14.3293 9.93397L12.2335 4.62868L2.50916 1Z" fill="#E4761B" stroke="#E4761B" stroke-linecap="round" stroke-linejoin="round"/>
<path d="M25.7302 21.5146L22.5566 26.3768L29.3469 28.2451L31.299 21.6224L25.7302 21.5146Z" fill="#E4761B" stroke="#E4761B" stroke-linecap="round" stroke-linejoin="round"/>
<path d="M1.25159 21.6224L3.19167 28.2451L9.98197 26.3768L6.80837 21.5146L1.25159 21.6224Z" fill="#E4761B" stroke="#E4761B" stroke-linecap="round" stroke-linejoin="round"/>
<path d="M9.59885 13.2991L7.70667 16.1613L14.4491 16.4607L14.2095 9.21533L9.59885 13.2991Z" fill="#E4761B" stroke="#E4761B" stroke-linecap="round" stroke-linejoin="round"/>
<path d="M22.9278 13.2992L18.2572 9.13159L18.1016 16.4608L24.832 16.1614L22.9278 13.2992Z" fill="#E4761B" stroke="#E4761B" stroke-linecap="round" stroke-linejoin="round"/>
<path d="M9.98206 26.3769L14.0299 24.4009L10.5329 21.6704L9.98206 26.3769Z" fill="#E4761B" stroke="#E4761B" stroke-linecap="round" stroke-linejoin="round"/>
<path d="M18.4968 24.4009L22.5566 26.3769L21.9938 21.6704L18.4968 24.4009Z" fill="#E4761B" stroke="#E4761B" stroke-linecap="round" stroke-linejoin="round"/>
<path d="M22.5565 26.3769L18.4967 24.4009L18.8201 27.0475L18.7841 28.1613L22.5565 26.3769Z" fill="#D7C1B3" stroke="#D7C1B3" stroke-linecap="round" stroke-linejoin="round"/>
<path d="M9.98193 26.3769L13.7543 28.1613L13.7304 27.0475L14.0298 24.4009L9.98193 26.3769Z" fill="#D7C1B3" stroke="#D7C1B3" stroke-linecap="round" stroke-linejoin="round"/>
<path d="M13.8142 19.9222L10.437 18.9282L12.8202 17.8384L13.8142 19.9222Z" fill="#233447" stroke="#233447" stroke-linecap="round" stroke-linejoin="round"/>
<path d="M18.7122 19.9222L19.7062 17.8384L22.1013 18.9282L18.7122 19.9222Z" fill="#233447" stroke="#233447" stroke-linecap="round" stroke-linejoin="round"/>
<path d="M9.98194 26.3768L10.5568 21.5146L6.80835 21.6224L9.98194 26.3768Z" fill="#CD6116" stroke="#CD6116" stroke-linecap="round" stroke-linejoin="round"/>
<path d="M21.9818 21.5146L22.5567 26.3768L25.7302 21.6224L21.9818 21.5146Z" fill="#CD6116" stroke="#CD6116" stroke-linecap="round" stroke-linejoin="round"/>
<path d="M24.832 16.1616L18.1016 16.461L18.7243 19.922L19.7183 17.8382L22.1135 18.928L24.832 16.1616Z" fill="#CD6116" stroke="#CD6116" stroke-linecap="round" stroke-linejoin="round"/>
<path d="M10.437 18.928L12.8322 17.8382L13.8142 19.922L14.4489 16.461L7.70654 16.1616L10.437 18.928Z" fill="#CD6116" stroke="#CD6116" stroke-linecap="round" stroke-linejoin="round"/>
<path d="M7.70642 16.1621L10.5327 21.671L10.4369 18.9285L7.70642 16.1621Z" fill="#E4751F" stroke="#E4751F" stroke-linecap="round" stroke-linejoin="round"/>
<path d="M22.1134 18.928L21.9937 21.6705L24.8319 16.1616L22.1134 18.928Z" fill="#E4751F" stroke="#E4751F" stroke-linecap="round" stroke-linejoin="round"/>
<path d="M14.4491 16.4607L13.8143 19.9217L14.6047 24.0055L14.7844 18.6283L14.4491 16.4607Z" fill="#E4751F" stroke="#E4751F" stroke-linecap="round" stroke-linejoin="round"/>
<path d="M18.1015 16.4607L17.7782 18.6163L17.9219 24.0055L18.7243 19.9217L18.1015 16.4607Z" fill="#E4751F" stroke="#E4751F" stroke-linecap="round" stroke-linejoin="round"/>
<path d="M18.7243 19.922L17.9219 24.0057L18.4967 24.4009L21.9937 21.6704L22.1134 18.928L18.7243 19.922Z" fill="#F6851B" stroke="#F6851B" stroke-linecap="round" stroke-linejoin="round"/>
<path d="M10.437 18.928L10.5328 21.6704L14.0298 24.4009L14.6046 24.0057L13.8142 19.922L10.437 18.928Z" fill="#F6851B" stroke="#F6851B" stroke-linecap="round" stroke-linejoin="round"/>
<path d="M18.7839 28.1611L18.8199 27.0474L18.5205 26.7839H14.0056L13.7301 27.0474L13.7541 28.1611L9.98169 26.3767L11.299 27.4545L13.9696 29.3108H18.5564L21.239 27.4545L22.5563 26.3767L18.7839 28.1611Z" fill="#C0AD9E" stroke="#C0AD9E" stroke-linecap="round" stroke-linejoin="round"/>
<path d="M18.4966 24.4011L17.9218 24.0059H14.6045L14.0296 24.4011L13.7302 27.0477L14.0057 26.7843H18.5206L18.82 27.0477L18.4966 24.4011Z" fill="#161616" stroke="#161616" stroke-linecap="round" stroke-linejoin="round"/>
<path d="M30.5204 10.425L31.5384 5.53884L30.0175 1L18.4967 9.55074L22.9278 13.2992L29.1911 15.1315L30.5803 13.5147L29.9815 13.0836L30.9396 12.2094L30.1971 11.6345L31.1552 10.904L30.5204 10.425Z" fill="#763D16" stroke="#763D16" stroke-linecap="round" stroke-linejoin="round"/>
<path d="M1 5.53982L2.01795 10.426L1.37125 10.905L2.32932 11.6355L1.59879 12.2104L2.55686 13.0846L1.95807 13.5157L3.33529 15.1325L9.59865 13.3002L14.0297 9.55172L2.50896 1.00098L1 5.53982Z" fill="#763D16" stroke="#763D16" stroke-linecap="round" stroke-linejoin="round"/>
<path d="M29.191 15.1314L22.9276 13.2991L24.8318 16.1613L21.9935 21.6702L25.73 21.6223H31.2987L29.191 15.1314Z" fill="#F6851B" stroke="#F6851B" stroke-linecap="round" stroke-linejoin="round"/>
<path d="M9.59874 13.2991L3.33538 15.1314L1.25159 21.6223H6.80837L10.5329 21.6702L7.70656 16.1613L9.59874 13.2991Z" fill="#F6851B" stroke="#F6851B" stroke-linecap="round" stroke-linejoin="round"/>
<path d="M18.1014 16.461L18.4966 9.55097L20.317 4.62891H12.2333L14.0297 9.55097L14.4488 16.461L14.5925 18.6406L14.6045 24.0058H17.9218L17.9457 18.6406L18.1014 16.461Z" fill="#F6851B" stroke="#F6851B" stroke-linecap="round" stroke-linejoin="round"/>
</svg>
