<svg width="1280" height="350" viewBox="0 0 1280 350" fill="none" xmlns="http://www.w3.org/2000/svg">
<rect y="0.000244141" width="1280" height="350" rx="12" fill="#EBF2F9"/>
<mask id="mask0" mask-type="alpha" maskUnits="userSpaceOnUse" x="0" y="0" width="1280" height="351">
<rect y="0.000244141" width="1280" height="350" rx="12" fill="#EBF2F9"/>
</mask>
<g mask="url(#mask0)">
<path d="M607.417 121.977C603.019 122.717 598.854 119.757 598.114 115.359C597.373 110.961 600.336 106.796 604.731 106.055C609.129 105.315 613.291 108.278 614.035 112.673C614.776 117.071 611.815 121.236 607.417 121.977Z" fill="white"/>
<path d="M682.503 109.329C678.108 110.07 673.94 107.107 673.199 102.712C672.459 98.3167 675.422 94.1491 679.817 93.4082C684.215 92.6673 688.38 95.6309 689.121 100.026C689.862 104.421 686.901 108.588 682.503 109.329Z" fill="white"/>
<path d="M757.56 96.6823C753.165 97.4232 748.997 94.4595 748.256 90.0646C747.515 85.6668 750.479 81.502 754.874 80.7611C759.272 80.0202 763.436 82.981 764.177 87.3788C764.918 91.7737 761.957 95.9413 757.56 96.6823Z" fill="white"/>
<path d="M832.646 84.0327C828.248 84.7764 824.083 81.8128 823.342 77.4178C822.601 73.02 825.565 68.8552 829.96 68.1143C834.357 67.3706 838.52 70.3342 839.263 74.732C840.004 79.1269 837.043 83.2918 832.646 84.0327Z" fill="white"/>
<path d="M617.817 183.677C613.422 184.417 609.257 181.454 608.516 177.059C607.772 172.661 610.736 168.496 615.134 167.755C619.529 167.014 623.694 169.978 624.435 174.373C625.178 178.768 622.215 182.933 617.817 183.677Z" fill="white"/>
<path d="M692.873 171.027C688.478 171.77 684.31 168.807 683.572 164.409C682.829 160.014 685.792 155.849 690.187 155.108C694.585 154.367 698.75 157.328 699.494 161.726C700.232 166.121 697.271 170.286 692.873 171.027Z" fill="white"/>
<path d="M767.959 158.379C763.564 159.123 759.396 156.159 758.658 151.762C757.915 147.367 760.878 143.202 765.273 142.461C769.671 141.72 773.836 144.681 774.579 149.079C775.318 153.474 772.357 157.639 767.959 158.379Z" fill="white"/>
<path d="M843.045 145.614C838.65 146.358 834.482 143.395 833.744 138.997C833 134.602 835.964 130.437 840.359 129.696C844.757 128.952 848.922 131.916 849.665 136.311C850.404 140.709 847.443 144.874 843.045 145.614Z" fill="white"/>
<path d="M918.101 132.969C913.707 133.71 909.539 130.749 908.801 126.352C908.057 121.954 911.021 117.789 915.416 117.048C919.813 116.307 923.978 119.271 924.719 123.666C925.46 128.064 922.499 132.228 918.101 132.969Z" fill="white"/>
<path d="M993.189 120.322C988.795 121.063 984.627 118.099 983.886 113.704C983.145 109.306 986.109 105.142 990.504 104.401C994.901 103.66 999.066 106.623 999.807 111.018C1000.55 115.413 997.587 119.578 993.189 120.322Z" fill="white"/>
<path d="M1068.25 107.675C1063.85 108.416 1059.68 105.452 1058.94 101.054C1058.2 96.6592 1061.17 92.4944 1065.56 91.7535C1069.96 91.0126 1074.12 93.9734 1074.86 98.3712C1075.6 102.766 1072.64 106.931 1068.25 107.675Z" fill="white"/>
<path d="M628.22 245.256C623.822 246 619.66 243.036 618.917 238.641C618.176 234.244 621.139 230.079 625.534 229.338C629.932 228.594 634.097 231.558 634.838 235.956C635.579 240.351 632.615 244.515 628.22 245.256Z" fill="white"/>
<path d="M703.277 232.609C698.882 233.35 694.717 230.389 693.973 225.991C693.232 221.596 696.196 217.431 700.591 216.69C704.989 215.947 709.151 218.91 709.894 223.308C710.635 227.703 707.675 231.868 703.277 232.609Z" fill="white"/>
<path d="M778.362 219.962C773.964 220.703 769.802 217.742 769.058 213.344C768.317 208.949 771.281 204.784 775.676 204.043C780.074 203.3 784.236 206.263 784.979 210.661C785.72 215.056 782.76 219.221 778.362 219.962Z" fill="white"/>
<path d="M853.416 207.317C849.021 208.057 844.859 205.094 844.116 200.699C843.375 196.301 846.335 192.139 850.733 191.395C855.131 190.654 859.293 193.615 860.037 198.013C860.775 202.411 857.817 206.576 853.416 207.317Z" fill="white"/>
<path d="M928.503 194.669C924.108 195.41 919.946 192.446 919.202 188.051C918.458 183.654 921.422 179.489 925.817 178.748C930.218 178.007 934.38 180.971 935.123 185.366C935.861 189.763 932.901 193.925 928.503 194.669Z" fill="white"/>
<path d="M1003.59 182.02C999.194 182.763 995.032 179.8 994.288 175.402C993.544 171.007 996.508 166.842 1000.9 166.101C1005.3 165.358 1009.47 168.324 1010.21 172.719C1010.95 177.114 1007.99 181.279 1003.59 182.02Z" fill="white"/>
<path d="M638.62 306.958C634.225 307.702 630.06 304.738 629.319 300.341C628.575 295.946 631.539 291.781 635.937 291.037C640.332 290.296 644.496 293.26 645.237 297.655C645.981 302.053 643.017 306.217 638.62 306.958Z" fill="white"/>
<path d="M713.676 294.311C709.281 295.052 705.116 292.091 704.376 287.693C703.632 283.298 706.595 279.133 710.99 278.39C715.388 277.649 719.553 280.612 720.297 285.007C721.038 289.405 718.074 293.57 713.676 294.311Z" fill="white"/>
<path d="M788.762 281.545C784.367 282.286 780.202 279.323 779.461 274.928C778.717 270.533 781.681 266.368 786.076 265.624C790.474 264.883 794.638 267.847 795.379 272.242C796.123 276.64 793.159 280.805 788.762 281.545Z" fill="white"/>
<path d="M863.82 268.898C859.425 269.639 855.261 266.675 854.517 262.28C853.776 257.883 856.74 253.721 861.135 252.977C865.532 252.236 869.697 255.197 870.438 259.595C871.182 263.992 868.218 268.157 863.82 268.898Z" fill="white"/>
<path d="M938.907 256.251C934.512 256.992 930.347 254.028 929.603 249.633C928.862 245.235 931.826 241.071 936.221 240.33C940.619 239.589 944.784 242.55 945.524 246.947C946.268 251.342 943.305 255.507 938.907 256.251Z" fill="white"/>
<path d="M1013.96 243.602C1009.57 244.343 1005.4 241.382 1004.66 236.984C1003.92 232.589 1006.88 228.424 1011.28 227.683C1015.67 226.94 1019.84 229.903 1020.58 234.298C1021.32 238.696 1018.36 242.861 1013.96 243.602Z" fill="white"/>
<path d="M724.079 355.889C719.681 356.63 715.519 353.67 714.776 349.272C714.035 344.874 716.998 340.712 721.396 339.971C725.791 339.233 729.953 342.191 730.697 346.589C731.438 350.984 728.477 355.146 724.079 355.889Z" fill="white"/>
<path d="M799.137 343.242C794.739 343.986 790.577 341.022 789.833 336.627C789.089 332.235 792.053 328.065 796.453 327.324C800.848 326.585 805.011 329.544 805.754 333.941C806.495 338.336 803.532 342.504 799.137 343.242Z" fill="white"/>
<path d="M874.222 330.598C869.825 331.339 865.663 328.381 864.919 323.978C864.175 319.583 867.139 315.418 871.537 314.677C875.934 313.936 880.096 316.9 880.84 321.295C881.581 325.695 878.617 329.857 874.222 330.598Z" fill="white"/>
<path d="M949.309 317.949C944.911 318.692 940.746 315.729 940.005 311.334C939.262 306.936 942.225 302.771 946.623 302.03C951.018 301.287 955.183 304.25 955.927 308.645C956.668 313.043 953.704 317.208 949.309 317.949Z" fill="white"/>
<path d="M1024.37 305.304C1019.97 306.045 1015.8 303.084 1015.06 298.686C1014.32 294.291 1017.28 290.126 1021.68 289.383C1026.07 288.642 1030.24 291.605 1030.98 296C1031.72 300.398 1028.76 304.563 1024.37 305.304Z" fill="white"/>
<path d="M424.346 888.063C296.653 844.317 185.123 758.674 102.061 652.275C19.0049 545.869 -74.6092 312.295 -58.4965 115.293C309.533 224.432 458.905 566.246 481.186 773.559L424.346 888.063Z" fill="#D3DDF1"/>
<path d="M-63.1797 115.893C-63.1354 116.209 -47.9147 235.198 20.686 387.107C89.2803 538.992 211.337 723.898 425.084 855.482L430.057 847.403C218.365 717.085 97.403 533.912 29.3337 383.198C-4.69458 307.853 -25.4885 240.645 -37.7612 192.319C-43.8976 168.153 -47.9021 148.707 -50.3756 135.321C-51.6092 128.628 -52.4633 123.447 -53.001 119.955C-53.273 118.208 -53.4627 116.88 -53.5892 115.994C-53.7157 115.115 -53.7664 114.691 -53.7664 114.691L-63.1797 115.893Z" fill="white"/>
<path d="M-62.6528 117.511C-62.5263 117.688 188.507 567.616 464.39 842.005L471.083 835.274C333.888 698.87 202.438 518.196 105.376 371.695C56.8415 298.438 16.8983 233.716 -10.9114 187.32C-24.8162 164.122 -35.6845 145.504 -43.0734 132.694C-46.7742 126.285 -49.5957 121.332 -51.4998 117.979C-53.3977 114.626 -54.3656 112.893 -54.3656 112.886L-62.6528 117.511Z" fill="white"/>
<path d="M-61.4492 118.816C-61.4429 118.823 -60.0321 119.942 -57.2929 122.175C-16.1983 155.723 319.258 437.824 480.593 814.217L489.317 810.472C315.842 406.149 -55.2938 111.655 -55.5468 111.383L-61.4492 118.816Z" fill="white"/>
<path d="M562.107 673.276C438.924 581.743 351.206 449.685 303.729 304.512C256.251 159.34 250.349 -129.138 350.706 -340.089C642.215 -110.413 735.196 331.468 673.055 566.819L562.107 673.276Z" fill="#98AEDA"/>
<path d="M346.067 -340.992C346.01 -340.726 322.648 -244.423 322.648 -100.516C322.642 97.4347 366.874 385.729 577.332 637.389L584.613 631.297C376.078 381.972 332.137 96.1125 332.137 -100.516C332.137 -171.958 337.938 -231.581 343.733 -273.315C346.637 -294.179 349.534 -310.57 351.698 -321.729C352.786 -327.309 353.684 -331.579 354.317 -334.451C354.633 -335.887 354.873 -336.969 355.044 -337.69C355.208 -338.411 355.291 -338.753 355.291 -338.753L346.074 -340.992H346.067Z" fill="white"/>
<path d="M345.959 -339.236C345.972 -339.148 368.448 -194.134 414.737 0.24942C461.038 194.633 531.119 438.347 626.536 636.033L635.083 631.908C540.171 435.317 470.166 192.058 423.973 -1.95203C400.87 -98.9633 383.707 -183.67 372.32 -244.11C366.627 -274.33 362.382 -298.483 359.56 -315.083C358.143 -323.377 357.087 -329.785 356.391 -334.119C355.682 -338.446 355.341 -340.685 355.341 -340.691L345.959 -339.236Z" fill="white"/>
<path d="M346.709 -337.385C346.709 -337.378 347.804 -335.664 349.904 -332.273C381.408 -281.398 635.004 142.706 656.159 611.289L665.636 610.859C642.767 107.748 354.864 -342.142 354.699 -342.496L346.709 -337.385Z" fill="white"/>
</g>
</svg>
