<svg width="232" height="71" viewBox="0 0 232 71" fill="none" xmlns="http://www.w3.org/2000/svg">
<path d="M124 44.9443C125.869 37.355 143.508 26.2737 152.929 32.963C155.828 18.5163 158.532 9.50167 167.983 2.38167C177.435 -4.73833 193.212 4.57501 195.741 24.055C198.269 16.0363 211.153 5.24834 221.505 14.355C231.084 22.7803 232.039 36.903 231.043 44.9443H124Z" fill="#EDF2F9"/>
<path d="M82 70.3299C80.5721 64.5329 67.0992 56.0686 59.9028 61.1782C57.6887 50.1433 55.6233 43.2576 48.4046 37.8191C41.1849 32.3807 29.1336 39.4945 27.2017 54.3739C25.2707 48.249 15.4295 40.0088 7.52227 46.9648C0.205778 53.4003 -0.523428 64.1877 0.237349 70.3299H82Z" fill="#EDF2F9"/>
</svg>
