<svg width="639" height="528" viewBox="0 0 639 528" fill="none" xmlns="http://www.w3.org/2000/svg">
<g clip-path="url(#clip0)">
<path d="M34.1981 216.281V211.04C26.1197 211.04 18.8275 207.773 13.5304 202.483C8.23678 197.186 4.96973 189.897 4.96973 181.815C4.96973 173.737 8.23678 166.445 13.5304 161.148C18.8275 155.854 26.1197 152.587 34.1981 152.587C42.2765 152.587 49.5653 155.854 54.8624 161.148C60.1559 166.445 63.4229 173.737 63.4264 181.815C63.4229 189.897 60.1559 197.186 54.8658 202.483C49.5652 207.776 42.2765 211.04 34.1981 211.04V216.281C53.2341 216.281 68.6641 200.855 68.6641 181.815C68.6641 162.776 53.2341 147.346 34.1981 147.346C15.1622 147.346 -0.267952 162.776 -0.271446 181.815C-0.271446 200.855 15.1622 216.281 34.1981 216.281Z" fill="#F69A94"/>
<path d="M422.015 253.699V248.458C418.332 248.458 415.023 246.973 412.609 244.562C410.198 242.147 408.713 238.835 408.713 235.152C408.713 231.473 410.198 228.164 412.609 225.749C415.023 223.338 418.332 221.853 422.015 221.853C425.697 221.853 429.007 223.338 431.424 225.749C433.835 228.164 435.317 231.473 435.32 235.152C435.317 238.835 433.835 242.147 431.421 244.562C429.006 246.973 425.697 248.458 422.015 248.458V253.699C432.256 253.695 440.558 245.397 440.562 235.152C440.558 224.911 432.256 216.612 422.015 216.612C411.77 216.612 403.471 224.911 403.471 235.152C403.471 245.397 411.77 253.699 422.015 253.699Z" fill="#93AAD8"/>
<path d="M93.7774 269.619V264.377C90.0981 264.374 86.7892 262.892 84.3748 260.482C81.9638 258.064 80.4788 254.755 80.4788 251.072C80.4788 247.389 81.9638 244.08 84.3748 241.666C86.7892 239.251 90.0981 237.77 93.7774 237.766C97.4602 237.77 100.773 239.251 103.187 241.666C105.598 244.08 107.083 247.389 107.083 251.072C107.083 254.755 105.598 258.064 103.187 260.482C100.773 262.892 97.4637 264.374 93.7774 264.377V269.619C104.022 269.615 112.324 261.317 112.324 251.072C112.324 240.831 104.026 232.528 93.7774 232.525C83.5361 232.528 75.2376 240.831 75.2376 251.072C75.2376 261.317 83.5361 269.615 93.7774 269.619Z" fill="#93AAD8"/>
<path d="M638.376 221.118L635.105 210.894C633.467 205.789 628.739 202.438 623.526 202.438C622.838 202.438 622.135 202.494 621.436 202.62L621.367 202.63L614.511 203.815C614.109 203.885 613.714 203.916 613.323 203.916C610.364 203.916 607.659 202.008 606.73 199.101L604.591 192.41C602.953 187.302 598.222 183.951 593.008 183.951C592.323 183.951 591.625 184.01 590.926 184.129L583.983 185.331C583.588 185.401 583.193 185.432 582.802 185.432C579.846 185.432 577.138 183.524 576.209 180.621L574.053 173.895C572.414 168.793 567.686 165.442 562.477 165.442C561.788 165.442 561.09 165.502 560.391 165.624L560.317 165.635L552.183 167.039L553.074 172.203L561.362 170.774L561.292 170.785C561.691 170.718 562.085 170.684 562.477 170.684C565.429 170.684 568.134 172.591 569.06 175.495L571.219 182.221C572.861 187.326 577.592 190.673 582.802 190.673C583.487 190.673 584.182 190.614 584.874 190.495L591.82 189.293H591.824C592.222 189.223 592.617 189.192 593.008 189.192C595.968 189.192 598.672 191.1 599.598 194.007L601.74 200.698C603.379 205.807 608.11 209.157 613.323 209.157C614.011 209.157 614.707 209.101 615.402 208.979L622.401 207.77L622.338 207.781C622.736 207.711 623.131 207.679 623.526 207.679C626.482 207.679 629.186 209.587 630.112 212.491L633.386 222.714L638.376 221.118Z" fill="#93AAD8"/>
</g>
<defs>
<clipPath id="clip0">
<rect width="639" height="639" fill="white" transform="translate(0 -111)"/>
</clipPath>
</defs>
</svg>
