<svg width="47" height="271" viewBox="0 0 47 271" fill="none" xmlns="http://www.w3.org/2000/svg">
<path d="M19.3711 267.496L21.2591 252.509L36.2458 254.397L34.3578 269.384L19.3711 267.496Z" stroke="#91ABE5" stroke-width="2" stroke-miterlimit="10"/>
<path d="M13.3945 213.109C13.3945 216.467 10.6732 219.187 7.31721 219.187C3.96254 219.187 1.24121 216.467 1.24121 213.109C1.24121 209.753 3.96254 207.033 7.31721 207.033C10.6732 207.033 13.3945 209.753 13.3945 213.109Z" stroke="#FF9C94" stroke-width="2" stroke-miterlimit="10"/>
<path d="M43.7259 152.303L42.4646 148.406C41.9046 146.677 40.1552 145.625 38.3646 145.942L35.7219 146.409C33.9312 146.725 32.1819 145.671 31.6232 143.942L30.7966 141.391C30.2366 139.662 28.4886 138.609 26.6979 138.926L24.0499 139.393C22.2606 139.709 20.5126 138.658 19.9526 136.93L19.1206 134.366C18.5592 132.638 16.8126 131.587 15.0246 131.902L11.8926 132.453" stroke="#91ABE5" stroke-width="2" stroke-miterlimit="10"/>
<path d="M45.7963 12.1868L33.575 1.09477" stroke="#FF9C94" stroke-width="2" stroke-miterlimit="10"/>
</svg>
