<svg width="261" height="217" viewBox="0 0 261 217" fill="none" xmlns="http://www.w3.org/2000/svg">
<path d="M242.187 217C241.911 217 241.634 216.99 241.355 216.971L146.207 210.243C139.797 209.789 134.95 204.204 135.403 197.794L137.384 169.785C137.509 168.022 138.94 166.691 140.713 166.691C141.563 166.691 142.377 167.019 143.007 167.614C145.929 170.373 149.493 171.975 153.313 172.245C153.697 172.272 154.079 172.286 154.459 172.286C164.105 172.286 172.271 163.658 173.05 152.645C173.864 141.125 166.335 131.173 156.268 130.461C155.885 130.434 155.504 130.421 155.126 130.421C151.709 130.421 148.35 131.519 145.413 133.596C144.835 134.004 144.167 134.219 143.478 134.219C142.551 134.219 141.653 133.83 141.019 133.148C140.393 132.476 140.083 131.59 140.15 130.656L142.131 102.646C142.561 96.5719 147.663 91.8128 153.744 91.8128C154.02 91.8128 154.3 91.8227 154.579 91.8432L183.518 93.8895C184.865 93.9842 185.98 94.834 186.43 96.1082C186.876 97.3743 186.545 98.7281 185.563 99.6395C182.304 102.665 180.348 106.637 180.052 110.823C179.34 120.891 188.134 129.745 199.652 130.56C200.222 130.6 200.798 130.62 201.364 130.62C212.176 130.62 221.169 123.222 221.837 113.777C222.132 109.592 220.754 105.384 217.955 101.93C217.144 100.928 216.985 99.5832 217.54 98.4198C218.1 97.2448 219.248 96.5156 220.537 96.5156C220.62 96.5156 220.704 96.5183 220.788 96.5246L249.727 98.5708C256.137 99.0238 260.983 104.608 260.53 111.019L253.803 206.167C253.373 212.242 248.271 217 242.188 217H242.187Z" fill="#83A3FC"/>
<path d="M106.98 130.52C106.493 130.52 105.999 130.489 105.512 130.427L76.5952 126.792C75.2504 126.624 74.1817 125.709 73.8064 124.406C73.4329 123.11 73.8484 121.774 74.8912 120.92C78.3832 118.062 80.5983 114.161 81.1291 109.938C81.7367 105.103 80.1587 100.283 76.6846 96.3636C73.189 92.4203 68.1985 89.8639 62.6316 89.1642C61.6326 89.0382 60.6211 88.9748 59.6239 88.9748C49.3185 88.9748 40.6957 95.7408 39.568 104.714C39.0364 108.938 40.2177 113.264 42.8939 116.898C43.6507 117.926 43.7597 119.22 43.1843 120.356C42.6115 121.49 41.4776 122.194 40.2257 122.194C40.0827 122.194 39.9371 122.184 39.7887 122.165L10.8715 118.531C7.78337 118.142 5.03033 116.575 3.1208 114.117C1.21127 111.658 0.373116 108.603 0.761812 105.514L12.6577 10.8727C13.3886 5.05652 18.3541 0.67094 24.2078 0.67094C24.6948 0.67094 25.1889 0.701318 25.6759 0.762974L120.316 12.6589C123.404 13.0467 126.157 14.6149 128.067 17.0739C129.977 19.5321 130.814 22.5872 130.427 25.6762L126.851 54.1199C126.638 55.8149 125.239 57.0445 123.522 57.0445C122.566 57.0445 121.688 56.6415 121.05 55.9088C118.201 52.6384 114.541 50.6386 110.466 50.1266C109.797 50.0426 109.117 49.9997 108.446 49.9997C99.0887 49.9997 91.027 58.0059 89.6929 68.6241C88.2525 80.0821 95.2285 90.4286 105.243 91.6876C105.909 91.7716 106.586 91.8145 107.255 91.8145C110.635 91.8145 113.98 90.7378 116.928 88.7032C117.488 88.3171 118.133 88.1125 118.793 88.1125C119.749 88.1125 120.666 88.5307 121.309 89.2581C121.944 89.9783 122.226 90.9067 122.106 91.8726L118.53 120.316C117.799 126.133 112.833 130.52 106.98 130.52Z" fill="#FFC7CA"/>
<path d="M24.208 -1.18209e-05V1.34032V-1.18209e-05C18.0174 -1.18209e-05 12.766 4.63754 11.9931 10.7897L0.0971725 105.43C-0.750812 112.173 4.0458 118.349 10.7886 119.196L39.7058 122.83C39.8792 122.852 40.0534 122.864 40.225 122.864C41.7315 122.864 43.0951 122.019 43.7822 120.659C44.4631 119.312 44.33 117.719 43.4337 116.501C40.8603 113.005 39.7237 108.849 40.233 104.798C41.3187 96.1591 49.6556 89.6451 59.6241 89.6451C60.5927 89.6451 61.5765 89.7067 62.5478 89.8291C73.6395 91.2231 81.677 100.207 80.4645 109.855C79.9551 113.906 77.8249 117.652 74.4669 120.402C73.2133 121.428 72.7138 123.034 73.1623 124.591C73.6136 126.156 74.8967 127.254 76.5114 127.457L105.429 131.092C105.943 131.157 106.465 131.189 106.98 131.189C113.17 131.189 118.422 126.551 119.195 120.4L122.771 91.9567C122.916 90.7969 122.575 89.6817 121.811 88.8149C121.042 87.9419 119.942 87.4425 118.794 87.4425C117.996 87.4425 117.219 87.6873 116.547 88.1519C113.712 90.1088 110.499 91.1427 107.256 91.1427C106.615 91.1427 105.967 91.1033 105.327 91.0229C100.686 90.4385 96.5726 87.8195 93.7454 83.6457C90.8815 79.4174 89.6788 74.1124 90.3579 68.7073C91.6509 58.4242 99.4266 50.67 108.446 50.67C109.09 50.67 109.742 50.7102 110.383 50.7915C114.292 51.2829 117.805 53.2041 120.545 56.3494C121.312 57.2295 122.37 57.7147 123.523 57.7147C125.548 57.7147 127.264 56.2055 127.516 54.204L131.092 25.7594C131.502 22.4935 130.615 19.2624 128.597 16.6621C126.576 14.0619 123.665 12.4043 120.399 11.9933L25.7592 0.09738C25.2454 0.033044 24.7236 -1.18209e-05 24.208 -1.18209e-05ZM24.208 1.34032C24.6646 1.34032 25.1275 1.36892 25.5921 1.4279L120.232 13.3238C126.252 14.0797 130.518 19.5733 129.761 25.5923L126.185 54.036C126.003 55.488 124.777 56.3744 123.523 56.3744C122.815 56.3744 122.098 56.092 121.556 55.4692C118.723 52.2176 114.922 50.0105 110.55 49.461C109.845 49.3725 109.143 49.3296 108.446 49.3296C98.8824 49.3296 90.4151 57.5012 89.0283 68.5402C87.5387 80.3843 94.7614 91.0453 105.16 92.3525C105.863 92.441 106.563 92.483 107.256 92.483C110.874 92.483 114.331 91.3098 117.308 89.2546C117.781 88.9284 118.294 88.7828 118.794 88.7828C120.286 88.7828 121.655 90.0874 121.44 91.7887L117.865 120.232C117.167 125.788 112.437 129.849 106.98 129.849C106.523 129.849 106.061 129.821 105.596 129.762L76.6785 126.127C74.3642 125.837 73.5108 122.917 75.3158 121.439C78.8257 118.566 81.2177 114.602 81.7941 110.021C83.1013 99.6243 74.559 89.9882 62.7149 88.4995C61.673 88.3682 60.6418 88.3047 59.6241 88.3047C49.0694 88.3047 40.0945 95.1467 38.9025 104.63C38.3271 109.211 39.6647 113.643 42.3543 117.295C43.6652 119.077 42.34 121.524 40.225 121.524C40.1097 121.524 39.9926 121.516 39.8729 121.5L10.9557 117.866C4.93667 117.109 0.669941 111.617 1.42678 105.597L13.3227 10.9568C14.0215 5.40153 18.7519 1.34032 24.208 1.34032Z" fill="white"/>
</svg>
