<svg width="16" height="20" viewBox="0 0 16 20" fill="none" xmlns="http://www.w3.org/2000/svg">
<path d="M8.0034 12.0152C9.1341 12.0152 10.2394 11.6776 11.1795 11.0449C12.1197 10.4122 12.8524 9.51303 13.2851 8.46096C13.7178 7.4089 13.831 6.25123 13.6105 5.13436C13.3899 4.0175 12.8454 2.99159 12.0459 2.18637C11.2463 1.38115 10.2277 0.832792 9.11871 0.610634C8.00974 0.388475 6.86026 0.502495 5.81564 0.938275C4.77101 1.37406 3.87815 2.11202 3.24997 3.05886C2.62179 4.00569 2.2865 5.11887 2.2865 6.25762C2.28831 7.78407 2.89121 9.24748 3.96295 10.3268C5.03468 11.4062 6.48774 12.0134 8.0034 12.0152ZM4.6876 5.40319C4.71037 5.31689 4.75276 5.23712 4.81142 5.17016C4.87007 5.1032 4.94339 5.0509 5.02557 5.0174C5.10775 4.98389 5.19654 4.97009 5.28493 4.97709C5.37331 4.98409 5.45887 5.0117 5.53484 5.05773C6.77842 5.83311 8.21015 6.24828 9.67273 6.25762C10.0283 6.25713 10.3834 6.2298 10.7349 6.17586C10.8229 6.16279 10.9127 6.17057 10.9972 6.19859C11.0817 6.22661 11.1585 6.27409 11.2215 6.33726C11.2846 6.40042 11.3322 6.47754 11.3604 6.56247C11.3887 6.64739 11.3969 6.73779 11.3844 6.82647C11.2396 7.6785 10.783 8.44491 10.1045 8.97441C9.42612 9.50391 8.57525 9.75802 7.71989 9.68658C6.86453 9.61514 6.06685 9.22335 5.4843 8.58853C4.90176 7.95372 4.57668 7.12202 4.57326 6.25762C4.57378 5.96898 4.61222 5.68167 4.6876 5.40319Z" fill="#303B72"/>
<path d="M15.8296 18.1515C15.9144 18.0674 15.971 17.9587 15.9915 17.8406C16.012 17.7225 15.9953 17.601 15.944 17.4929C15.2435 16.0317 14.1501 14.7977 12.788 13.9312C11.4259 13.0646 9.84978 12.6003 8.23872 12.5908C6.39429 12.5993 4.60115 13.2032 3.12256 14.3136C1.64397 15.4241 0.557808 16.9827 0.0235398 18.7607C-0.00171166 18.8465 -0.00672998 18.9371 0.00888369 19.0253C0.0244974 19.1135 0.0603126 19.1967 0.113483 19.2685C0.166653 19.3403 0.235713 19.3986 0.315174 19.4387C0.394634 19.4789 0.482305 19.4999 0.571219 19.5H14.2529C14.4044 19.4996 14.5496 19.4387 14.6565 19.3307L15.8296 18.1515Z" fill="#303B72"/>
</svg>
