<svg width="18" height="18" viewBox="0 0 18 18" fill="none" xmlns="http://www.w3.org/2000/svg">
<path d="M17.5577 15.4422L14.0739 11.9585C15.1347 10.3706 15.5669 8.44499 15.2865 6.55612C15.006 4.66725 14.0331 2.95021 12.5568 1.73899C11.0805 0.527778 9.20647 -0.0910137 7.29921 0.00298396C5.39196 0.0969816 3.58785 0.897047 2.23782 2.24756C0.887789 3.59806 0.0883613 5.40245 -0.00496201 7.30974C-0.0982853 9.21703 0.521168 11.0908 1.73291 12.5667C2.94464 14.0426 4.66202 15.0149 6.55099 15.2947C8.43996 15.5744 10.3654 15.1415 11.9529 14.0802L15.4367 17.5632C15.7203 17.8399 16.1009 17.9948 16.4972 17.9948C16.8934 17.9948 17.274 17.8399 17.5577 17.5632C17.8389 17.2819 17.9969 16.9005 17.9969 16.5027C17.9969 16.105 17.8389 15.7235 17.5577 15.4422ZM7.68468 2.25273C8.76011 2.25273 9.8114 2.57163 10.7056 3.16912C11.5998 3.7666 12.2967 4.61582 12.7083 5.60939C13.1198 6.60296 13.2275 7.69626 13.0177 8.75104C12.8079 9.80581 12.29 10.7747 11.5296 11.5351C10.7691 12.2956 9.80025 12.8134 8.74548 13.0233C7.69071 13.2331 6.59741 13.1254 5.60384 12.7138C4.61026 12.3023 3.76104 11.6053 3.16356 10.7111C2.56608 9.81695 2.24718 8.76567 2.24718 7.69023C2.24877 6.2486 2.82215 4.86648 3.84154 3.84709C4.86092 2.82771 6.24305 2.25432 7.68468 2.25273Z" fill="#303B72"/>
</svg>
