<svg width="18" height="18" viewBox="0 0 18 18" fill="none" xmlns="http://www.w3.org/2000/svg">
<path d="M17.7615 6.48375C17.6896 6.4164 17.6051 6.36387 17.5128 6.32919C17.4206 6.29451 17.3224 6.27834 17.2239 6.28161C17.1255 6.28489 17.0286 6.30754 16.9389 6.34827C16.8491 6.389 16.7683 6.44702 16.701 6.519C15.3225 7.99275 14.625 9.048 14.625 9.65625V15.2813C14.625 15.4802 14.546 15.6709 14.4053 15.8116C14.2647 15.9522 14.0739 16.0313 13.875 16.0313C13.6761 16.0313 13.4853 15.9522 13.3447 15.8116C13.204 15.6709 13.125 15.4802 13.125 15.2813V5.15625C13.125 4.65897 12.9275 4.18206 12.5758 3.83043C12.2242 3.47879 11.7473 3.28125 11.25 3.28125H11.064C11.0143 3.28125 10.9666 3.2615 10.9314 3.22633C10.8963 3.19117 10.8765 3.14348 10.8765 3.09375V1.78125C10.8761 1.43328 10.7377 1.09967 10.4916 0.853611C10.2456 0.607555 9.91198 0.469147 9.564 0.46875H1.314C0.965826 0.468948 0.631947 0.607245 0.385611 0.8533C0.139274 1.09936 0.000595792 1.43308 0 1.78125L0 16.0313C0.000594896 16.3792 0.139067 16.7127 0.385079 16.9587C0.631092 17.2047 0.964586 17.3432 1.3125 17.3438H9.5625C9.91048 17.3434 10.2441 17.2049 10.4901 16.9589C10.7362 16.7128 10.8746 16.3792 10.875 16.0313V4.96875C10.875 4.91902 10.8948 4.87133 10.9299 4.83617C10.9651 4.801 11.0128 4.78125 11.0625 4.78125H11.25C11.3495 4.78125 11.4448 4.82076 11.5152 4.89109C11.5855 4.96141 11.625 5.05679 11.625 5.15625V15.2813C11.625 15.878 11.8621 16.4503 12.284 16.8722C12.706 17.2942 13.2783 17.5313 13.875 17.5313C14.4717 17.5313 15.044 17.2942 15.466 16.8722C15.8879 16.4503 16.125 15.878 16.125 15.2813V13.611C16.1248 13.5761 16.1345 13.5419 16.1528 13.5122C16.171 13.4825 16.1973 13.4585 16.2285 13.443L17.0033 13.0553C17.1904 12.9623 17.3478 12.8189 17.4577 12.6411C17.5676 12.4634 17.6255 12.2585 17.625 12.0495V11.1563C17.625 10.8579 17.5065 10.5717 17.2955 10.3608C17.0845 10.1498 16.7984 10.0313 16.5 10.0313H16.305C16.2555 10.0313 16.2081 10.0117 16.1729 9.97686C16.1378 9.94203 16.1179 9.89472 16.1175 9.84525V9.72825C16.5783 8.92886 17.1433 8.19419 17.7975 7.5435C17.9332 7.39817 18.0056 7.2049 17.9989 7.00617C17.9921 6.80745 17.9068 6.61954 17.7615 6.48375ZM8.06175 11.7188C8.06175 11.8182 8.02224 11.9136 7.95192 11.9839C7.88159 12.0542 7.78621 12.0938 7.68675 12.0938H6.93675C6.83729 12.0938 6.74191 12.0542 6.67159 11.9839C6.60126 11.9136 6.56175 11.8182 6.56175 11.7188V9.46875C6.56175 9.36929 6.60126 9.27391 6.67159 9.20359C6.74191 9.13326 6.83729 9.09375 6.93675 9.09375H7.68675C7.78621 9.09375 7.88159 9.13326 7.95192 9.20359C8.02224 9.27391 8.06175 9.36929 8.06175 9.46875V11.7188ZM8.81175 5.15625C8.81175 5.25571 8.77224 5.35109 8.70192 5.42142C8.63159 5.49174 8.53621 5.53125 8.43675 5.53125H2.43675C2.33729 5.53125 2.24191 5.49174 2.17159 5.42142C2.10126 5.35109 2.06175 5.25571 2.06175 5.15625V2.90625C2.06175 2.80679 2.10126 2.71141 2.17159 2.64109C2.24191 2.57076 2.33729 2.53125 2.43675 2.53125H8.43675C8.53621 2.53125 8.63159 2.57076 8.70192 2.64109C8.77224 2.71141 8.81175 2.80679 8.81175 2.90625V5.15625Z" fill="white"/>
</svg>
