<svg width="483" height="409" viewBox="0 0 483 409" fill="none" xmlns="http://www.w3.org/2000/svg">
<path d="M289.019 195.172C288.292 195.172 287.555 195.125 286.828 195.033L243.68 189.609C241.674 189.359 240.079 187.993 239.519 186.049C238.962 184.115 239.582 182.121 241.138 180.848C246.348 176.583 249.654 170.761 250.446 164.46C251.352 157.247 248.998 150.053 243.814 144.205C238.598 138.321 231.151 134.507 222.844 133.463C221.354 133.275 219.844 133.18 218.356 133.18C202.979 133.18 190.112 143.276 188.43 156.665C187.636 162.968 189.399 169.424 193.392 174.847C194.522 176.38 194.684 178.311 193.826 180.007C192.971 181.697 191.279 182.748 189.411 182.748C189.198 182.748 188.98 182.733 188.759 182.705L145.61 177.283C141.002 176.703 136.894 174.364 134.044 170.696C131.195 167.027 129.944 162.468 130.524 157.859L148.275 16.6385C149.366 7.95986 156.775 1.41585 165.51 1.41585C166.236 1.41585 166.974 1.46118 167.7 1.55318L308.919 19.3039C313.527 19.8825 317.635 22.2225 320.484 25.8919C323.335 29.5599 324.584 34.1185 324.006 38.7279L318.671 81.1705C318.352 83.6999 316.264 85.5345 313.703 85.5345C312.276 85.5345 310.966 84.9332 310.015 83.8399C305.763 78.9599 300.302 75.9758 294.222 75.2119C293.223 75.0865 292.208 75.0225 291.207 75.0225C277.244 75.0225 265.215 86.9692 263.224 102.813C261.075 119.911 271.484 135.349 286.428 137.228C287.422 137.353 288.432 137.417 289.43 137.417C294.474 137.417 299.464 135.811 303.863 132.775C304.699 132.199 305.662 131.893 306.647 131.893C308.074 131.893 309.442 132.517 310.4 133.603C311.348 134.677 311.77 136.063 311.59 137.504L306.254 179.947C305.163 188.627 297.754 195.172 289.019 195.172Z" fill="#FFC7CA"/>
<path d="M165.51 0.414664V2.41466V0.414664C156.272 0.414664 148.436 7.33466 147.283 16.5147L129.532 157.733C128.267 167.796 135.424 177.011 145.486 178.275L188.635 183.697C188.894 183.731 189.154 183.748 189.41 183.748C191.658 183.748 193.692 182.487 194.718 180.457C195.734 178.448 195.535 176.071 194.198 174.253C190.358 169.037 188.662 162.836 189.422 156.791C191.042 143.9 203.482 134.18 218.356 134.18C219.802 134.18 221.27 134.272 222.719 134.455C239.27 136.535 251.263 149.94 249.454 164.336C248.694 170.381 245.515 175.971 240.504 180.075C238.634 181.605 237.888 184.001 238.558 186.325C239.231 188.66 241.146 190.299 243.555 190.601L286.704 196.025C287.472 196.123 288.251 196.171 289.019 196.171C298.256 196.171 306.092 189.249 307.246 180.072L312.582 137.629C312.799 135.899 312.29 134.235 311.15 132.941C310.002 131.639 308.36 130.893 306.647 130.893C305.458 130.893 304.298 131.259 303.295 131.952C299.064 134.872 294.27 136.415 289.431 136.415C288.475 136.415 287.507 136.356 286.552 136.236C279.627 135.364 273.49 131.456 269.271 125.228C264.998 118.919 263.203 111.003 264.216 102.937C266.146 87.5933 277.748 76.0227 291.207 76.0227C292.167 76.0227 293.14 76.0827 294.098 76.204C299.93 76.9373 305.172 79.804 309.26 84.4973C310.404 85.8107 311.983 86.5347 313.704 86.5347C316.726 86.5347 319.287 84.2827 319.663 81.296L324.998 38.852C325.61 33.9787 324.287 29.1573 321.275 25.2773C318.26 21.3973 313.916 18.924 309.043 18.3107L167.824 0.559989C167.058 0.463989 166.279 0.414664 165.51 0.414664ZM165.51 2.41466C166.191 2.41466 166.882 2.45734 167.575 2.54534L308.794 20.296C317.776 21.424 324.142 29.6213 323.012 38.6027L317.676 81.0453C317.404 83.212 315.575 84.5347 313.704 84.5347C312.648 84.5347 311.578 84.1133 310.768 83.184C306.542 78.332 300.87 75.0387 294.347 74.2187C293.294 74.0867 292.247 74.0227 291.207 74.0227C276.936 74.0227 264.302 86.216 262.232 102.688C260.01 120.361 270.787 136.269 286.303 138.22C287.352 138.352 288.396 138.415 289.431 138.415C294.83 138.415 299.988 136.664 304.431 133.597C305.136 133.111 305.902 132.893 306.647 132.893C308.874 132.893 310.916 134.84 310.596 137.379L305.262 179.821C304.22 188.111 297.162 194.171 289.019 194.171C288.338 194.171 287.648 194.129 286.954 194.041L243.804 188.617C240.351 188.184 239.078 183.827 241.771 181.621C247.008 177.335 250.578 171.42 251.438 164.584C253.388 149.071 240.642 134.692 222.968 132.471C221.414 132.275 219.875 132.18 218.356 132.18C202.607 132.18 189.215 142.389 187.436 156.54C186.578 163.376 188.574 169.989 192.587 175.439C194.543 178.097 192.566 181.748 189.41 181.748C189.238 181.748 189.063 181.737 188.884 181.713L145.735 176.291C136.754 175.161 130.387 166.965 131.516 157.983L149.267 16.764C150.31 8.47465 157.368 2.41466 165.51 2.41466Z" fill="white"/>
<path d="M55.2553 358.167L17.4899 355.353L5.10327 356.635L5.35127 403.589C5.3566 404.776 6.32327 405.732 7.5086 405.725C8.39793 405.721 9.19127 405.171 9.50594 404.34L19.1393 383.392L58.4979 388.121" fill="#F777BA"/>
<path d="M5.87377 407.85C7.42977 407.354 9.17777 406.442 9.57243 405.525L19.1378 383.314C14.1764 371.072 17.9684 355.225 17.9684 355.225L1.24577 354.01C0.693768 354.014 0.247101 354.465 0.249768 355.018L0.525767 407.48C0.532434 408.566 5.82443 407.868 5.87377 407.85Z" fill="#2E7EFA"/>
<path d="M18.1804 388.121C16.5591 386.877 14.7898 385.824 12.9231 384.989" stroke="#1A3987" stroke-miterlimit="10" stroke-linejoin="round"/>
<path d="M16.5083 390.918C14.7229 389.629 13.6936 389.113 12.0376 388.343" stroke="#1A3987" stroke-miterlimit="10" stroke-linejoin="round"/>
<path d="M15.2885 393.281C14.1125 392.407 12.4845 391.547 11.1858 390.868" stroke="#1A3987" stroke-miterlimit="10" stroke-linejoin="round"/>
<path d="M3.85938 354.297L4.14337 408.08" stroke="#1A3987" stroke-miterlimit="10" stroke-linejoin="round"/>
<path d="M11.8607 354.783C11.8607 354.783 11.7741 367.236 3.93408 368.356" stroke="#1A3987" stroke-miterlimit="10" stroke-linejoin="round"/>
<path d="M11.5326 400.973C11.5326 400.973 6.43392 397.385 4.08325 396.677" stroke="#1A3987" stroke-miterlimit="10" stroke-linejoin="round"/>
<path d="M121.217 280.678C121.777 281.834 128.805 331.67 133.834 366.425C136.983 388.18 137.378 401.913 105.705 399.313C62.0927 395.733 31.7047 393.761 31.7047 393.761L30.6914 354.653L90.6247 357.513L82.8181 318.821C82.8181 318.821 68.3234 299.496 79.0034 277.373" fill="#816FC2"/>
<path d="M37.1543 354.962L38.7356 393.761" stroke="#4C3F89" stroke-miterlimit="10"/>
<path d="M110.712 306.501L121.248 367.72C121.456 369.395 120.095 370.848 118.41 370.751L30.9697 365.36" stroke="#4C3F89" stroke-miterlimit="10"/>
<path d="M166.415 353.081L158.441 390.846L158.109 403.233L206.677 402.986C207.863 402.979 208.819 402.013 208.813 400.827C208.808 399.939 208.257 399.145 207.427 398.831L186.48 389.198L196.368 349.838" fill="#F777BA"/>
<path d="M210.938 402.462C210.442 400.908 209.53 399.16 208.611 398.765L186.402 389.2C174.159 394.161 158.313 390.369 158.313 390.369L155.486 407.09C155.489 407.644 155.939 408.09 156.494 408.088L210.566 407.81C211.654 407.805 210.954 402.512 210.938 402.462Z" fill="#2E7EFA"/>
<path d="M191.209 390.156C189.965 391.779 188.912 393.547 188.077 395.414" stroke="#1A3987" stroke-miterlimit="10" stroke-linejoin="round"/>
<path d="M194.005 391.828C192.716 393.613 192.201 394.643 191.431 396.299" stroke="#1A3987" stroke-miterlimit="10" stroke-linejoin="round"/>
<path d="M196.368 393.048C195.494 394.225 194.635 395.852 193.955 397.151" stroke="#1A3987" stroke-miterlimit="10" stroke-linejoin="round"/>
<path d="M155.772 404.477L211.167 404.194" stroke="#1A3987" stroke-miterlimit="10" stroke-linejoin="round"/>
<path d="M157.311 396.298C157.311 396.298 170.324 396.562 171.444 404.402" stroke="#1A3987" stroke-miterlimit="10" stroke-linejoin="round"/>
<path d="M204.06 396.803C204.06 396.803 200.472 401.902 199.764 404.254" stroke="#1A3987" stroke-miterlimit="10" stroke-linejoin="round"/>
<path d="M141.417 269.289L144.189 280.176C144.585 281.732 145.986 282.82 147.591 282.82H185.185C194.385 282.82 204.09 283.058 209.349 291.036C213.659 297.576 212.13 308.46 208.543 320.972C205.465 331.709 194.581 380.63 194.581 380.63H155.898L166.821 322.229H122.187C122.187 322.229 93.3007 322.466 97.2993 293.504" fill="#816FC2"/>
<path d="M156.936 374.583H195.676" stroke="#4C3F89" stroke-miterlimit="10"/>
<path d="M127.478 322.229H122.187C122.187 322.229 94.5166 322.229 94.1672 293.504" stroke="#4C3F89" stroke-miterlimit="10"/>
<path d="M124.413 278.611C124.413 278.611 125.117 311.008 152.368 311.008H172.88C175.428 311.008 177.33 313.351 176.809 315.844L163.28 380.539" stroke="#4C3F89" stroke-miterlimit="10"/>
<path d="M127.08 292.055C127.293 292.633 138.529 289.477 138.316 278.611" stroke="#4C3F89" stroke-miterlimit="10"/>
<path d="M103.471 296.646C103.471 296.646 109.363 296.646 114.723 295.087" stroke="#4C3F89" stroke-miterlimit="10"/>
<path d="M75.1477 296.646C75.1477 296.646 80.5837 296.799 84.713 296.646" stroke="#4C3F89" stroke-miterlimit="10"/>
<path d="M108.155 161.247C108.155 161.247 121.54 119.721 146.466 86.2873L129.424 75.898C102.47 105.141 84.7124 154.061 84.7124 154.061" fill="#F777BA"/>
<path d="M74.2689 231.78C74.2689 231.78 68.6969 180.543 89.8022 137.569L114.722 145.707L108.156 178.559" fill="#FFE1AD"/>
<path d="M87.9285 142.405L112.487 150.9" stroke="#D19B4B" stroke-miterlimit="10"/>
<path d="M142.889 91.0788C146.911 84.9348 161.481 69.0481 160.776 67.7201C160.069 66.3921 154.871 71.9135 154.495 70.7148C154.119 69.5175 161.543 60.4815 160.484 59.3428C159.048 57.8015 151.94 67.4628 151.94 67.4628C151.94 67.4628 159.197 56.4921 157.565 55.5148C156.409 54.8228 150.485 62.9401 147.833 65.7575C150.32 62.3388 153.692 56.3188 152.476 55.6255C151.271 54.9375 147.12 60.3775 143.717 64.3775C145.608 61.6828 148.783 56.5948 147.691 55.9015C146.601 55.2095 132.771 69.8935 121.871 84.8055" fill="#F777BA"/>
<path d="M124.639 218.768C124.639 218.768 150.139 228.539 168.835 229.754C193.355 231.348 221.862 222.212 221.862 222.212C221.862 222.212 225.623 202.064 215.814 203.023C203.725 205.23 182.815 206.772 167.087 204.866C157.277 203.678 136.399 192.5 136.399 192.5" fill="#F777BA"/>
<path d="M210.257 204.103C217.536 203.136 238.164 196.876 239.056 198.085C239.947 199.297 232.72 201.595 233.637 202.453C234.555 203.309 245.913 200.527 246.481 201.973C247.251 203.936 235.464 206.163 235.464 206.163C235.464 206.163 248.495 204.367 248.671 206.261C248.793 207.604 238.912 209.431 235.224 210.604C239.383 209.841 246.268 209.407 246.368 210.801C246.467 212.185 239.765 213.575 234.688 214.911C237.935 214.373 243.896 213.712 244.048 214.997C244.2 216.279 228.14 220.791 212.853 224.443" fill="#F777BA"/>
<path d="M98.274 170.652L94.79 188.171C94.79 188.171 104.601 198.102 114.875 188.858L114.759 177.114L98.274 170.652Z" fill="#F777BA"/>
<path d="M116.84 154.143C116.84 154.143 125.214 170.894 120.03 176.433C117.335 179.311 113.387 180.407 109.83 177.722C107.191 175.729 97.0725 163.721 98.4765 161.445C103.84 152.747 116.84 154.143 116.84 154.143Z" fill="#F777BA"/>
<path d="M120.178 163.582C120.178 163.582 123.267 166.659 123.267 168.697C123.267 169.598 120.178 169.735 120.178 169.735" fill="#F777BA"/>
<path d="M120.029 171.452L114.588 170.652C114.323 172.715 118.376 177.861 120.029 171.452Z" fill="white"/>
<path d="M116.055 163.309C115.94 163.877 116.048 164.563 116.56 164.891C116.799 165.045 117.108 164.845 117.109 164.577C117.112 164.163 116.913 163.711 116.808 163.309C116.715 162.949 116.133 162.923 116.055 163.309Z" fill="#00276F"/>
<path d="M113.443 162.298C114.013 161.43 114.997 160.847 116.033 160.765C116.477 160.727 116.956 160.79 117.303 161.071" stroke="#00276F" stroke-width="0.666667" stroke-miterlimit="10" stroke-linecap="round" stroke-linejoin="round"/>
<path d="M96.526 155.395C97.426 149.449 103.474 148.221 114.727 149.897C116.234 150.123 119.019 149.332 119.601 150.74C120.365 152.589 120.21 156.184 118.291 157.639C116.614 158.909 114.254 158.236 112.379 158.909C109.346 159.999 110.846 162.921 109.238 165.057C106.566 168.612 108.333 173.847 103.926 176.559C101.414 178.104 98.206 177.663 95.306 177.123C94.9527 177.056 94.5847 176.983 94.3034 176.761C93.306 175.984 93.7087 173.263 93.418 172.089C92.482 168.315 91.9607 164.351 92.2914 160.468C92.5794 157.095 95.286 155.055 96.526 155.395Z" fill="#0B0B3A"/>
<path d="M109.35 165.895C108.757 162.399 106.151 163.609 105.213 164.833C103.961 166.468 105.846 170.259 106.818 170.965C108.787 172.392 110.482 172.412 110.791 170.736" fill="#F777BA"/>
<path d="M114.588 179.496C110.792 178.316 108.417 176.432 108.417 176.432" stroke="#CC328A" stroke-miterlimit="10" stroke-linejoin="round"/>
<path d="M94.7017 182.814C94.7017 182.814 79.4831 189.261 74.7924 213.295C72.7071 223.987 76.7177 281.487 76.7204 281.442C109.652 287.865 145.112 278.379 145.112 278.379C145.112 278.379 141.051 240.898 139.2 226.779C134.928 194.205 112.487 183.853 112.487 183.853L94.7017 182.814Z" fill="#FFE1AD"/>
<path d="M112.488 183.853C112.488 183.853 125.148 185.798 133.285 189.679C141.422 193.561 159.732 202.466 159.732 202.466L150.322 228.497L117.098 217.993" fill="#FFE1AD"/>
<path d="M138.851 224.443L120.188 218.971" stroke="#D19B4B" stroke-miterlimit="10"/>
<path d="M154.031 199.698L145.113 226.447" stroke="#D19B4B" stroke-miterlimit="10"/>
<path d="M76.4019 277.372C76.4019 277.372 108.474 282.231 144.486 274.88" stroke="#D19B4B" stroke-miterlimit="10"/>
<path d="M405.651 352.309L413.625 390.074L412.346 402.461L365.389 402.214C364.203 402.208 363.246 401.241 363.253 400.056C363.258 399.168 363.809 398.373 364.639 398.06L385.586 388.426L375.697 349.066" fill="#F777BA"/>
<path d="M361.128 401.69C361.624 400.134 362.536 398.388 363.453 397.993L385.664 388.426C397.907 393.389 413.753 389.597 413.753 389.597L414.968 406.318C414.965 406.872 414.513 407.318 413.96 407.316L361.499 407.038C360.412 407.033 361.112 401.74 361.128 401.69Z" fill="#18277A"/>
<path d="M380.857 389.384C382.103 391.006 383.155 392.775 383.989 394.642" stroke="#5565AA" stroke-miterlimit="10"/>
<path d="M378.06 391.056C379.351 392.842 379.865 393.871 380.635 395.527" stroke="#5565AA" stroke-miterlimit="10"/>
<path d="M375.697 392.276C376.572 393.452 377.432 395.08 378.112 396.379" stroke="#5565AA" stroke-miterlimit="10"/>
<path d="M414.682 403.705L360.899 403.421" stroke="#5565AA" stroke-miterlimit="10"/>
<path d="M414.197 395.703C414.197 395.703 401.742 395.79 400.622 403.63" stroke="#5565AA" stroke-miterlimit="10"/>
<path d="M368.006 396.032C368.006 396.032 371.594 401.13 372.302 403.482" stroke="#5565AA" stroke-miterlimit="10"/>
<path d="M388.823 215.17C388.823 215.17 358.778 282.362 360.362 306.159C361.838 328.318 378.642 384.442 378.642 384.442L414.662 377.838C414.662 377.838 397.439 308.524 398.334 301.352C399.227 294.182 421.225 244.84 421.225 244.84C421.225 244.84 429.739 233.211 426.819 213.22" fill="#2E7EFA"/>
<path d="M408.64 378.942C408.64 378.942 391.842 308.97 392.736 301.799C393.629 294.628 414.449 246.195 414.449 246.195" stroke="#1A3987" stroke-miterlimit="10" stroke-linejoin="round"/>
<path d="M413.036 371.219L376.904 378.503" stroke="#1A3987" stroke-miterlimit="10" stroke-linejoin="round"/>
<path d="M457.735 334.668L474.539 369.815L478.632 381.576L436.004 401.267C434.928 401.764 433.652 401.295 433.153 400.219C432.781 399.412 432.944 398.46 433.563 397.822L448.447 380.215L429.232 344.436" fill="#F777BA"/>
<path d="M431.924 402.601C431.713 400.982 431.797 399.014 432.461 398.265L448.517 380.183C461.709 379.485 474.452 369.329 474.452 369.329L482.644 383.957C482.876 384.459 482.656 385.055 482.154 385.287L434.528 407.287C433.541 407.742 431.93 402.653 431.924 402.601Z" fill="#18277A"/>
<path d="M444.571 383.089C446.384 384.03 448.089 385.185 449.636 386.522" stroke="#5565AA" stroke-miterlimit="10"/>
<path d="M442.748 385.788C444.672 386.859 445.574 387.573 446.974 388.745" stroke="#5565AA" stroke-miterlimit="10"/>
<path d="M441.124 387.896C442.416 388.591 443.884 389.7 445.049 390.588" stroke="#5565AA" stroke-miterlimit="10"/>
<path d="M481.277 381.711L432.451 404.266" stroke="#5565AA" stroke-miterlimit="10"/>
<path d="M477.443 374.671C477.443 374.671 466.202 380.032 468.514 387.607" stroke="#5565AA" stroke-miterlimit="10"/>
<path d="M435.752 394.559C435.752 394.559 441.165 397.655 442.802 399.483" stroke="#5565AA" stroke-miterlimit="10"/>
<path d="M412.579 217.206C412.579 217.206 401.127 280.655 406.532 303.886C412.579 329.873 438.639 373.905 438.639 373.905L471.107 357.777C471.107 357.777 443.088 304.246 443.133 292.697C443.161 285.47 449.551 240.941 449.551 240.941C449.551 240.941 455.965 228.034 449.691 208.83" fill="#2E7EFA"/>
<path d="M463.629 361.491C463.629 361.491 435.639 309.171 435.656 294.279C435.663 287.053 440.099 253.359 442.071 242.522C444.045 231.686 447.907 219.159 442.213 210.411" stroke="#1A3987" stroke-miterlimit="10" stroke-linejoin="round"/>
<path d="M405.147 282.33C406.854 264.499 408.869 240.566 411.585 219.246" stroke="#1A3987" stroke-miterlimit="10" stroke-linejoin="round"/>
<path d="M430.655 219.246C430.655 219.246 432.855 224.712 444.773 227.885" stroke="#1A3987" stroke-miterlimit="10" stroke-linejoin="round"/>
<path d="M406.383 220.546C406.383 220.546 404.594 233.621 405.643 235.35C406.124 236.139 409.9 236.853 409.9 236.853" stroke="#1A3987" stroke-miterlimit="10" stroke-linejoin="round"/>
<path d="M384.306 225.676C384.306 225.676 391.504 225.86 395.637 221.255" stroke="#1A3987" stroke-miterlimit="10" stroke-linejoin="round"/>
<path d="M468.2 352.129L435.285 368.067" stroke="#1A3987" stroke-miterlimit="10" stroke-linejoin="round"/>
<path d="M398.832 119.927C398.832 119.927 385.174 123.852 383.21 150.005C381.355 160.739 385.812 220.404 385.814 220.357C418.876 226.069 454.126 215.82 454.126 215.82C454.126 215.82 447.951 178.436 445.602 164.393C439.702 129.139 415.323 121.647 415.323 121.647L398.832 119.927Z" fill="#18277A"/>
<path d="M404.562 120.165C404.562 120.165 396.523 105.994 383.998 92.0584C367.574 73.7837 342.779 58.4384 342.779 58.4384C342.779 58.4384 326.008 70.2211 333.696 76.3891C343.883 83.2597 356.906 96.9251 366.823 109.28C373.01 116.986 385.523 140.605 385.523 140.605" fill="#F777BA"/>
<path d="M338.425 79.5009C332.544 75.1063 313.413 65.1689 313.621 63.6796C313.83 62.1916 320.605 65.5969 320.548 64.3423C320.49 63.0889 310.421 57.1409 311.026 55.7089C311.846 53.7689 321.834 60.4116 321.834 60.4116C321.834 60.4116 311.258 52.5903 312.456 51.1129C313.306 50.0663 321.652 55.6649 325.11 57.4036C321.602 55.0423 316.373 50.5423 317.277 49.4729C318.174 48.4156 323.937 52.1049 328.504 54.6969C325.804 52.8129 321.078 49.1196 321.868 48.0943C322.654 47.0716 337.348 54.4956 351.208 64.0596" fill="#F777BA"/>
<path d="M429.617 163.749C429.617 163.749 417.351 188.146 404.348 201.637C387.297 219.329 360.072 231.776 360.072 231.776C360.072 231.776 343.721 219.414 351.619 213.518C362.04 207.005 378.535 194.064 388.877 182.062C395.329 174.576 405.651 151.148 405.651 151.148" fill="#F777BA"/>
<path d="M356.454 210.573C350.424 214.761 330.959 224.027 331.114 225.521C331.271 227.016 338.16 223.848 338.06 225.1C337.96 226.351 327.69 231.944 328.244 233.396C328.996 235.364 339.208 229.073 339.208 229.073C339.208 229.073 328.367 236.521 329.514 238.04C330.326 239.115 338.862 233.811 342.378 232.193C338.79 234.432 333.407 238.747 334.272 239.845C335.134 240.935 341.02 237.448 345.675 235.016C342.912 236.807 338.06 240.331 338.815 241.384C339.564 242.435 354.475 234.952 368.234 227.356" fill="#F777BA"/>
<path d="M405.132 144.839C401.72 156.32 392.7 175.333 392.7 175.333L417.187 188.239C417.187 188.239 429.815 172.827 434.589 154.312" fill="#18277A"/>
<path d="M417.187 188.239C417.187 188.239 430.895 169.095 433.279 158.749" stroke="#5565AA" stroke-miterlimit="10"/>
<path d="M392.699 175.334C392.699 175.334 401.811 157.688 403.725 149.142" stroke="#5565AA" stroke-miterlimit="10"/>
<path d="M382.766 157.783C382.461 148.196 377.839 128.161 364.086 109.835L385.735 92.5175C385.735 92.5175 404.757 107.748 410.181 121.181" fill="#18277A"/>
<path d="M394.556 92.2835C394.556 92.2835 389.03 107.601 393.95 112.578C396.506 115.166 404.054 115.617 407.266 113.053C409.648 111.149 413.179 99.3715 411.827 97.3088C406.663 89.4235 394.556 92.2835 394.556 92.2835Z" fill="#F777BA"/>
<path d="M397.643 99.5061C397.643 99.5061 394.679 103.123 394.799 104.234C394.918 105.345 397.483 105.757 397.483 105.757" stroke="#CC328A" stroke-width="0.666667" stroke-miterlimit="10" stroke-linejoin="round"/>
<path d="M394.511 106.78L401.44 108.541C401.44 108.541 399.697 112.025 395.959 110.797C393.292 109.921 394.511 106.78 394.511 106.78Z" fill="white"/>
<path d="M394.907 97.8994C394.727 98.2154 394.579 98.542 394.439 98.8767C394.183 99.4954 395.211 99.7887 395.455 99.1567C395.568 98.8607 395.667 98.5607 395.744 98.2527C395.869 97.7567 395.169 97.4394 394.907 97.8994Z" fill="#00276F"/>
<path d="M397.356 96.5556C397.356 96.5556 396.436 94.9836 394.749 95.9516" stroke="#00276F" stroke-width="0.666667" stroke-miterlimit="10" stroke-linecap="round" stroke-linejoin="round"/>
<path d="M402.712 100.658C402.552 100.981 402.415 101.314 402.296 101.654C402.074 102.291 403.104 102.579 403.311 101.934C403.408 101.63 403.491 101.325 403.55 101.011C403.64 100.534 402.959 100.162 402.712 100.658Z" fill="#00276F"/>
<path d="M402.677 97.9625C402.677 97.9625 404.464 97.5639 406.027 99.7959" stroke="#00276F" stroke-width="0.666667" stroke-miterlimit="10" stroke-linecap="round" stroke-linejoin="round"/>
<path d="M412.299 106.292L415.324 121.647C415.324 121.647 403.732 130.34 397.325 121.088L397.128 111.052L412.299 106.292Z" fill="#F777BA"/>
<path d="M417.823 103.646C417.955 103.099 418.106 102.557 418.302 102.01C418.767 100.714 419.479 99.5675 419.987 98.2941C421.005 95.7461 420.159 92.5795 418.01 90.8755C417.629 90.5741 417.21 90.3128 416.871 89.9621C416.11 89.1755 415.846 88.0501 415.405 87.0488C415.043 86.2288 414.518 85.4381 413.727 85.0181C411.914 84.0515 409.499 85.3621 407.686 84.3941C407.295 84.1835 406.962 83.8808 406.607 83.6128C404.009 81.6461 401.059 82.1048 398.226 83.1288C396.901 83.6088 396.465 84.1315 395.361 84.9901C394.155 85.9288 392.486 85.8661 391.274 86.7848C390.002 87.7488 389.682 89.5181 389.669 91.1155C389.663 91.6928 389.69 92.2901 389.935 92.8141C390.25 93.4875 390.89 93.9581 391.567 94.2661C393.19 95.0061 395.018 94.7221 396.739 94.5915C398.423 94.4648 400.378 93.2795 402.025 93.8941C403.63 94.4928 404.041 96.4621 406.018 96.6168C406.797 96.6768 407.745 96.5355 408.211 97.1621C408.737 97.8715 408.461 99.0368 408.875 99.8581C409.266 100.633 409.953 101.33 410.455 102.043C411.454 103.461 412.87 104.434 412.363 106.285C412.011 107.571 410.581 109.637 411.171 110.999C411.562 111.897 413.538 111.883 415.033 110.745C416.574 109.573 417.033 107.338 417.41 105.557C417.549 104.903 417.674 104.273 417.823 103.646Z" fill="#212237"/>
<path d="M410.749 103.961C412.213 101.589 413.641 101.773 414.537 102.879C415.732 104.353 414.089 107.897 413.212 108.572C411.432 109.939 409.868 109.997 409.541 108.461" fill="#F777BA"/>
<path d="M397.728 114.884C403.234 115.074 407.834 112.438 407.834 112.438" stroke="#CC328A" stroke-miterlimit="10" stroke-linejoin="round"/>
<path d="M382.499 154.249C382.499 154.249 382.863 139.276 381.151 134.701" stroke="#5565AA" stroke-miterlimit="10"/>
<path d="M395.843 123.825C395.843 123.825 398.564 128.56 405.929 128.403C414.276 128.223 417.729 122.625 417.729 122.625" stroke="#5565AA" stroke-miterlimit="10"/>
</svg>
