<svg width="208" height="389" viewBox="0 0 208 389" fill="none" xmlns="http://www.w3.org/2000/svg">
<path d="M51.7715 203.781C51.7715 203.781 50.4488 262.036 46.8915 282.017C42.9048 304.408 9.55017 349.587 9.55017 349.587L17.2648 357.228L28.7088 362.677C28.7088 362.677 57.8715 334.804 74.3102 299.915C88.5635 269.664 89.1942 206.853 89.1942 206.853" fill="#F777BA"/>
<path d="M43.4844 381.345C43.8498 379.964 43.9978 378.246 43.5071 377.522L31.6138 360.024C20.2471 357.93 10.3364 347.684 10.3364 347.684L0.389758 358.694C0.132425 359.104 0.255092 359.646 0.665759 359.904L40.6964 385.116C41.5018 385.624 43.4738 381.389 43.4844 381.345Z" fill="#00276F"/>
<path d="M34.7109 362.99C33.0296 363.602 31.4216 364.412 29.9283 365.399" stroke="#1A3987" stroke-miterlimit="10" stroke-linejoin="round"/>
<path d="M35.9883 365.538C34.1976 366.248 33.3336 366.768 31.9883 367.627" stroke="#1A3987" stroke-miterlimit="10" stroke-linejoin="round"/>
<path d="M37.1588 367.549C35.9601 368.007 34.5615 368.803 33.4495 369.443" stroke="#1A3987" stroke-miterlimit="10" stroke-linejoin="round"/>
<path d="M1.82947 356.901L42.8401 382.73" stroke="#1A3987" stroke-miterlimit="10" stroke-linejoin="round"/>
<path d="M6.80853 351.589C6.80853 351.589 16.2872 357.901 13.4285 364.213" stroke="#1A3987" stroke-miterlimit="10" stroke-linejoin="round"/>
<path d="M41.0691 373.936C41.0691 373.936 36.0251 376.012 34.3971 377.413" stroke="#1A3987" stroke-miterlimit="10" stroke-linejoin="round"/>
<path d="M94.5795 227.966C94.5795 227.966 96.8128 262.015 98.3648 288.058C99.9168 314.103 102.955 373.55 102.955 373.55L114.226 376.214L126.729 374.129C126.729 374.129 129.974 322.803 129.974 288.798C129.974 253.627 128.618 203.781 128.618 203.781" fill="#F777BA"/>
<path d="M148.89 383.306C148.455 381.945 147.658 380.415 146.855 380.069L127.422 371.701C116.711 376.043 102.847 372.723 102.847 372.723L100.374 387.354C100.377 387.838 100.771 388.229 101.255 388.226L148.565 387.985C149.517 387.979 148.903 383.349 148.89 383.306Z" fill="#00276F"/>
<path d="M131.628 372.538C130.54 373.956 129.619 375.506 128.888 377.138" stroke="#1A3987" stroke-miterlimit="10" stroke-linejoin="round"/>
<path d="M134.075 374.001C132.947 375.563 132.497 376.465 131.823 377.913" stroke="#1A3987" stroke-miterlimit="10" stroke-linejoin="round"/>
<path d="M136.143 375.069C135.378 376.097 134.626 377.521 134.031 378.657" stroke="#1A3987" stroke-miterlimit="10" stroke-linejoin="round"/>
<path d="M100.624 385.068L149.09 384.82" stroke="#1A3987" stroke-miterlimit="10" stroke-linejoin="round"/>
<path d="M101.97 377.913C101.97 377.913 113.355 378.143 114.335 385.002" stroke="#1A3987" stroke-miterlimit="10" stroke-linejoin="round"/>
<path d="M142.872 378.354C142.872 378.354 139.733 382.815 139.114 384.873" stroke="#1A3987" stroke-miterlimit="10" stroke-linejoin="round"/>
<path d="M93.7416 35.3756C87.6456 33.9863 81.835 38.089 79.1336 42.3236C78.2763 43.6676 77.615 45.137 76.6536 46.4076C70.5603 54.4703 46.0136 51.9743 50.8723 67.8436C51.4296 69.665 52.495 71.3543 52.655 73.253C52.8536 75.6356 51.603 77.865 50.9443 80.1636C48.8096 87.6223 54.0496 96.3356 61.639 97.945C65.0363 98.6663 68.819 98.1863 71.7576 100.041C74.495 101.768 75.7363 105.048 77.675 107.641C82.975 114.73 93.5203 116.126 101.839 113.104C104.99 111.958 108.136 110.08 109.484 107.012C110.251 105.268 110.378 103.26 111.374 101.636C113.3 98.4956 117.562 97.9743 120.763 96.1503C125.355 93.5316 128.06 87.3916 125.964 82.421C123.823 77.3436 119.292 72.6796 118.254 67.2316C117.675 64.197 118.508 61.0223 117.895 57.9943C117.439 55.745 116.167 53.6716 114.368 52.2463C113.131 51.2663 111.67 50.5943 110.45 49.593C107.882 47.4863 107.548 43.7263 104.907 41.5623C102.272 39.4036 98.7416 38.689 95.907 36.8583" fill="#FFE1AD"/>
<path d="M104.912 72.7579C120.396 68.4325 143.135 69.3299 161.287 51.3899C179.439 33.4499 187.204 19.7845 187.204 19.7845L201.189 30.8072C201.189 30.8072 182.832 66.0299 166.465 77.8685C144.952 93.4299 130.328 95.8339 117.977 98.0712" fill="#F777BA"/>
<path d="M183.381 25.638C187.204 19.7833 196.447 3.01262 197.739 3.19395C199.029 3.37795 196.065 9.24995 197.155 9.20195C198.243 9.15395 203.413 0.427285 204.656 0.953951C206.337 1.66728 200.563 10.3233 200.563 10.3233C200.563 10.3233 202.063 8.77395 203.343 9.81528C204.249 10.554 203.168 13.1673 203.168 13.1673C203.168 13.1673 204.903 11.446 205.827 12.2313C206.744 13.0113 205.512 16.1153 205.512 16.1153C205.512 16.1153 206.801 15.4113 207.691 16.0966C208.577 16.7793 204.04 27.222 195.593 40.7686" fill="#F777BA"/>
<path d="M195.921 11.483C195.921 11.483 195.677 14.5457 195.921 16.607C196.316 19.927 195.315 21.6657 195.315 21.6657" stroke="#CC328A" stroke-miterlimit="10" stroke-linejoin="round"/>
<path d="M200.07 11.0201C199.709 12.0068 199.358 12.9935 199.069 13.9948C198.924 14.4948 198.798 14.9988 198.702 15.5028C198.608 15.9935 198.524 16.5295 198.613 16.9388C198.69 17.1548 198.693 17.1735 198.864 17.1761C199.014 17.1815 199.221 17.1028 199.418 16.9855C199.816 16.7481 200.194 16.4068 200.545 16.0441C201.24 15.3095 201.913 14.5121 202.509 13.6881C202.653 13.4895 202.93 13.4455 203.128 13.5881C203.31 13.7201 203.364 13.9641 203.26 14.1575L203.254 14.1655C202.776 15.0588 202.324 15.9881 201.938 16.9241C201.746 17.3921 201.569 17.8655 201.436 18.3361C201.301 18.7921 201.208 19.3161 201.258 19.6148C201.322 19.7601 201.229 19.6935 201.362 19.7201C201.481 19.7575 201.662 19.6975 201.842 19.6175C202.212 19.4415 202.582 19.1148 202.92 18.7668C203.594 18.0601 204.189 17.2108 204.705 16.3601L204.709 16.3521C204.833 16.1481 205.1 16.0828 205.304 16.2068C205.494 16.3228 205.564 16.5655 205.469 16.7628C205.069 17.6028 204.66 18.4561 204.302 19.3188C203.956 20.1788 203.605 21.0735 203.497 21.9441C203.473 22.1548 203.48 22.3801 203.54 22.4988C203.581 22.6055 203.672 22.6348 203.869 22.6081C204.242 22.5188 204.629 22.2161 204.968 21.9121C205.652 21.2801 206.252 20.5388 206.826 19.7841C206.366 20.6161 205.842 21.4161 205.196 22.1401C204.862 22.4908 204.526 22.8575 203.986 23.0561C203.838 23.0881 203.689 23.1228 203.51 23.0841C203.333 23.0348 203.154 22.9015 203.082 22.7468C202.921 22.4401 202.932 22.1668 202.934 21.9095C203.002 20.8855 203.313 19.9735 203.614 19.0588C203.93 18.1481 204.277 17.2588 204.692 16.3855L205.457 16.7881C204.916 17.7175 204.333 18.5908 203.594 19.4015C203.218 19.7988 202.818 20.1935 202.258 20.4815C201.976 20.6095 201.641 20.7481 201.242 20.6868C201.07 20.6895 200.798 20.5988 200.609 20.4201C200.432 20.2415 200.326 20.0135 200.294 19.8348C200.165 19.1055 200.352 18.5895 200.496 18.0575C200.656 17.5361 200.854 17.0415 201.065 16.5548C201.489 15.5815 201.962 14.6535 202.482 13.7308L203.228 14.2095C202.572 15.0655 201.896 15.8815 201.089 16.6095C200.689 16.9735 200.265 17.3241 199.745 17.5948C199.485 17.7241 199.181 17.8481 198.81 17.8175C198.632 17.7961 198.41 17.7468 198.26 17.5641C198.108 17.4001 198.06 17.2188 198.029 17.0615C197.926 15.8335 198.378 14.8801 198.738 13.8815C199.13 12.9015 199.57 11.9441 200.07 11.0201Z" fill="#CC328A"/>
<path d="M90.1341 36.6016C89.4021 36.2056 88.4275 36.3243 87.8021 35.7736C86.7555 34.8536 86.7448 33.2763 87.1888 32.0549C87.8928 30.1056 90.4008 29.2549 92.3088 29.5363C96.8675 30.2109 96.1568 34.5936 93.3781 36.2443" fill="#FFE1AD"/>
<path d="M64.935 147.507C64.935 147.507 48.567 164.965 45.4563 188.733C42.347 212.501 42.2923 251.201 42.2923 251.201C42.2923 251.201 89.4336 259.839 132.294 250.276C130.658 230.511 132.294 175.185 117.328 147.507" fill="#2A2A68"/>
<path d="M50.9135 252.475C50.9135 252.475 49.4348 192.771 56.3575 172.615C61.7948 156.785 73.7535 141.498 73.7535 141.498" stroke="#5565AA" stroke-miterlimit="10"/>
<path d="M132.977 68.3769L138.556 95.0063C138.556 95.0063 127.637 99.4289 116.331 100.072C110.239 99.9596 101.008 76.2463 104.5 71.6743C114.664 68.6583 132.977 68.3769 132.977 68.3769Z" fill="#2E7EFA"/>
<path d="M63.8028 98.2604C63.8028 98.2604 63.0695 129.472 64.9348 147.507C91.2548 153.334 117.329 147.507 117.329 147.507L119.152 119.16C132.293 105.664 120.772 88.1857 120.772 88.1857L104.499 71.6738L88.2201 70.7738L63.8028 98.2604Z" fill="#2E7EFA"/>
<path d="M88.2207 70.7735C88.2207 70.7735 73.7527 68.4761 59.7607 79.9815C56.602 82.5788 52.6754 87.9948 49.434 94.5348L71.9914 109.392L85.294 94.5348" fill="#2E7EFA"/>
<path d="M124.951 98.9336C123.839 94.7669 120.76 88.1869 120.76 84.1736" stroke="#1A3987" stroke-miterlimit="10" stroke-linejoin="round"/>
<path d="M128.721 68.5208L135.097 96.2448" stroke="#1A3987" stroke-miterlimit="10" stroke-linejoin="round"/>
<path d="M51.3965 90.8587L67.7472 101.011" stroke="#1A3987" stroke-miterlimit="10" stroke-linejoin="round"/>
<path d="M105.71 41.8015C105.71 41.8015 111.69 57.3441 107.206 62.0814C104.876 64.5441 96.7869 63.1761 93.7416 60.8508C91.4816 59.1241 88.4962 48.7814 89.7149 46.8321C94.3696 39.3801 105.71 41.8015 105.71 41.8015Z" fill="#F777BA"/>
<path d="M88.8302 55.4817L88.2208 70.7737C89.4328 74.6284 102.423 78.2924 104.499 71.6737L103.203 60.2017L88.8302 55.4817Z" fill="#F777BA"/>
<path d="M81.944 53.7382C81.4013 52.2982 81.2907 50.7262 81.304 49.1849C81.3213 47.2342 81.5333 45.2649 82.1853 43.4262C83.296 40.2942 85.704 37.6516 88.7093 36.2342C91.7147 34.8182 97.46 33.4649 102.119 36.2183C104.5 35.9756 107.015 36.6436 108.781 38.2569C110.549 39.8702 111.449 42.4649 110.801 44.7676C106.372 44.2622 101.944 43.7556 97.516 43.2489C96.6187 45.6462 94.9667 47.7542 92.8533 49.1982C90.804 50.5996 88.548 52.3476 89.396 55.2076C89.7507 56.3996 88.4613 56.6209 88.4613 58.9276C86.0787 58.6769 82.552 55.2662 82 53.8809C81.98 53.8342 81.9613 53.7862 81.944 53.7382Z" fill="#FFE1AD"/>
<path d="M90.8541 53.0097C89.4421 50.8284 88.1155 51.0284 87.3021 52.0777C86.2181 53.4764 87.8208 56.7457 88.6528 57.3564C90.3395 58.5937 91.7968 58.6177 92.0701 57.179" fill="#F777BA"/>
<path d="M103.557 63.8177C97.8093 64.0551 93.7413 60.8497 93.7413 60.8497" stroke="#CC328A" stroke-miterlimit="10" stroke-linejoin="round"/>
<path d="M102.423 49.668C102.423 49.668 106.238 52.9787 106.149 54.016C106.061 55.0547 103.678 55.4907 103.678 55.4907" stroke="#CC328A" stroke-width="0.666667" stroke-miterlimit="10" stroke-linejoin="round"/>
<path d="M106.469 56.3828L100.047 58.1641C100.047 58.1641 101.741 61.3761 105.201 60.1561C107.668 59.2855 106.469 56.3828 106.469 56.3828Z" fill="white"/>
<path d="M105.116 48.4609C105.191 48.7463 105.287 49.0236 105.399 49.2969C105.685 49.9943 106.672 49.5956 106.361 48.8916C106.241 48.6209 106.108 48.3596 105.953 48.1076C105.684 47.6676 104.983 47.9516 105.116 48.4609Z" fill="#00276F"/>
<path d="M103.612 46.9121C103.612 46.9121 104.439 45.4281 106.029 46.2975" stroke="#00276F" stroke-width="0.666667" stroke-miterlimit="10" stroke-linecap="round" stroke-linejoin="round"/>
<path d="M97.8965 51.1881C97.9552 51.4801 98.0352 51.7628 98.1325 52.0441C98.3525 52.6841 99.3845 52.3948 99.1472 51.7641C99.0285 51.4455 98.8952 51.1335 98.7339 50.8348C98.4779 50.3575 97.7979 50.6988 97.8965 51.1881Z" fill="#00276F"/>
<path d="M98.6816 48.3301C98.6816 48.3301 97.0083 47.9954 95.5976 50.1061" stroke="#00276F" stroke-width="0.666667" stroke-miterlimit="10" stroke-linecap="round" stroke-linejoin="round"/>
<path d="M49.4343 94.5345C42.4063 108.719 38.041 129.387 52.865 135.681C68.3316 142.251 108.874 92.6212 108.874 92.6212L96.3596 81.8465L62.8783 103.389" fill="#F777BA"/>
<path d="M62.8783 103.389L52.8649 111.191" stroke="#CC328A" stroke-miterlimit="10" stroke-linejoin="round"/>
<path d="M108.948 85.9831C106.929 85.6031 105.601 83.6591 105.981 81.6404L108.687 67.2631L115.996 68.6391L113.291 83.0164C112.911 85.0351 110.967 86.3631 108.948 85.9831Z" fill="#2A2A68"/>
<path d="M117.098 71.7683L111.21 70.3349C107.034 69.3189 104.471 65.1083 105.487 60.9323C106.504 56.7549 110.715 54.1923 114.891 55.2096L120.779 56.6416C121.13 56.7269 121.344 57.0803 121.259 57.4323L117.887 71.2883C117.802 71.6376 117.448 71.8536 117.098 71.7683Z" fill="#4376CF"/>
<path d="M121.521 64.834C120.505 69.01 118.533 72.1166 117.117 71.7726C115.701 71.4286 115.377 67.762 116.394 63.586C117.41 59.4086 119.382 56.302 120.798 56.646C122.214 56.9913 122.538 60.6566 121.521 64.834Z" fill="#9CD0FF"/>
<path d="M135.415 84.8587C135.415 84.8587 124.623 75.5973 118.241 71.7733C116.24 70.1453 116.916 66.304 117.471 64.2067C118.901 58.7933 120.769 58.0867 120.769 58.0867C129.441 58.6893 143.052 54.5547 143.052 54.5547" fill="#2A2A68"/>
<path d="M136.117 68.3437C133.74 77.7757 134.001 85.9717 136.699 86.6517C139.396 87.3317 143.509 80.2371 145.887 70.8064C148.263 61.3744 148.004 53.1771 145.305 52.4984C142.608 51.8184 138.495 58.9131 136.117 68.3437Z" fill="#9CD0FF"/>
<path d="M137.712 68.7793C135.701 76.7553 135.72 83.638 137.753 84.15C139.786 84.6633 143.065 78.6113 145.074 70.6353C147.085 62.658 147.066 55.7753 145.033 55.2633C143 54.7513 139.722 60.802 137.712 68.7793Z" fill="#4376CF"/>
<path d="M141.275 73.3294C139.429 72.8641 137.809 73.0228 136.777 73.2348C137.013 71.8148 137.323 70.3188 137.711 68.7788C138.099 67.2401 138.535 65.7748 138.999 64.4121C139.809 65.0881 141.161 65.9961 143.006 66.4614L141.275 73.3294Z" fill="#2A2A68"/>
<path d="M141.204 69.6588C140.721 71.5748 140.749 73.2335 141.266 73.3628C141.785 73.4935 142.594 72.0468 143.078 70.1308C143.561 68.2161 143.533 66.5575 143.014 66.4268C142.497 66.2975 141.686 67.7428 141.204 69.6588Z" fill="#FFE1AD"/>
<path d="M90.2936 85.75C98.6496 80.2873 104.506 77.0713 105.52 76.6407C108.874 75.218 112.488 75.7673 115.127 76.834C116.014 77.194 116.862 77.706 117.454 78.4567C118.175 79.3673 118.463 80.57 118.416 81.7313C118.407 81.95 118.371 82.1967 118.19 82.3207C117.775 82.6033 117.387 81.9567 117.127 81.526C116.472 80.4447 115.375 79.9927 114.11 79.9887C114.751 80.0087 115.035 80.6327 115.312 81.2113C115.59 81.7913 115.267 82.6313 114.632 82.7207C115.22 82.83 115.707 83.35 115.779 83.9447C115.85 84.538 115.5 85.158 114.955 85.4047C115.359 85.5433 115.558 86.03 115.5 86.4527C115.444 86.8753 115.194 87.2447 114.935 87.5847C113.791 89.09 112.364 90.354 110.932 91.5873C106.443 95.4473 97.1496 105.934 97.1496 105.934" fill="#F777BA"/>
</svg>
