<svg width="573" height="343" viewBox="0 0 573 343" fill="none" xmlns="http://www.w3.org/2000/svg">
<path d="M69.4276 117.769C64.14 121.942 58.955 126.265 54.8771 131.095C26.6207 164.565 52.4767 209.655 53.7842 211.917L28.7062 239.668C28.7062 239.668 9.15438 228.246 1.73118 184.718C-4.31762 149.253 5.15049 101.254 49.6849 74.8662L69.4276 117.769Z" fill="#EE78AF"/>
<path d="M23.0332 234.937C30.423 244.016 42.6852 253.322 47.2689 250.452C48.2234 249.853 48.7197 248.805 49.006 247.744C51.323 249.273 53.8284 250.282 55.7969 248.731C57.262 247.577 57.5269 245.773 57.3431 243.854C59.5264 245.009 61.7169 245.87 63.5041 244.46C65.0527 243.241 65.4559 241.42 65.1624 239.383C66.9687 239.779 69.3739 239.648 70.7268 237.712C72.557 235.097 70.2162 232.208 66.4223 227.354C63.2082 223.245 55.8637 214.853 52.1724 209.117" fill="#EE78AF"/>
<path d="M57.0668 231.52C59.2429 234.629 61.777 237.421 64.6761 239.869C65.3251 240.418 66.2676 239.483 65.6162 238.932C62.803 236.557 60.3238 233.868 58.2121 230.852C57.7277 230.158 56.5752 230.821 57.0668 231.52Z" fill="#000021"/>
<path d="M41.0552 240.492C43.2314 243.599 45.7654 246.39 48.6645 248.838C49.3136 249.387 50.2561 248.452 49.6023 247.903C46.7914 245.526 44.3123 242.837 42.2006 239.821C41.7138 239.127 40.5637 239.788 41.0552 240.492Z" fill="#000021"/>
<path d="M49.5687 236.29C51.7449 239.396 54.2527 242.221 57.1518 244.672C57.7984 245.223 58.7433 244.288 58.0895 243.737C55.2763 241.358 52.8258 238.638 50.7141 235.617C50.2297 234.922 49.0772 235.586 49.5687 236.29Z" fill="#000021"/>
<path d="M0.482024 175.314C0.178987 173.396 0.0596826 170.585 0.0907021 167.356C0.143197 170.046 0.283979 172.701 0.51066 175.309C0.501115 175.312 0.491568 175.312 0.482024 175.314Z" fill="#EE78AF"/>
<path d="M0.541051 175.317C0.31437 172.709 0.173588 170.053 0.121094 167.364C0.20938 158.671 1.39528 146.929 3.07033 141.291C4.0558 141.341 5.60438 142.267 6.54451 142.852C11.4551 145.899 13.3998 155.438 10.8849 164.155C9.05232 170.519 4.32066 174.716 0.541051 175.317Z" fill="#EE78AF"/>
<path d="M156.629 63.7531C156.629 63.7531 83.7498 32.9984 27.5879 92.5033C27.5879 92.5033 42.6538 109.309 56.3382 130.612C56.3382 130.612 80.4785 104.207 124.984 103.556C136.955 103.377 166.476 76.0607 156.629 63.7531Z" fill="#2A3176"/>
<path d="M34.3161 84.7328C46.1155 96.6491 56.7504 109.303 64.4838 124.283C64.8417 124.977 65.8892 124.364 65.5313 123.669C57.7502 108.594 47.0484 95.8641 35.1751 83.8738C34.6239 83.3203 33.7649 84.1768 34.3161 84.7328Z" fill="#E7E9EC"/>
<path d="M149.249 40.5671C153.029 37.4485 156.298 33.4804 157.708 28.7607C159.116 24.0385 158.395 18.4979 155.086 14.8806C153.134 12.7474 150.454 11.416 147.691 10.619C142.516 9.12534 136.789 9.41879 131.938 11.7858C127.089 14.1481 123.219 18.6435 121.921 23.9264C121.394 26.0596 121.279 28.2858 121.446 30.4787C121.604 32.5188 122.009 34.5708 122.938 36.389C124.641 39.732 128.149 42.0537 131.859 42.3018C135.567 42.5452 139.347 40.7079 141.473 37.6226L149.249 40.5671Z" fill="#E66C50"/>
<path d="M142.807 59.8789L143.084 54.9515C143.084 54.9515 154.759 59.0557 156.152 48.5067C158.577 30.1312 160.283 25.2874 153.544 18.7113C146.804 12.1375 126.681 17.7664 125.87 33.3119L123.195 58.452C123.195 58.452 126.622 58.5689 132.189 59.8717C138.023 61.239 142.807 59.8789 142.807 59.8789Z" fill="#EE78AF"/>
<path d="M144.563 35.0029C144.403 35.7306 144.539 36.3773 144.864 36.4489C145.191 36.5181 145.582 35.9859 145.742 35.2582C145.902 34.5304 145.768 33.8814 145.441 33.8122C145.117 33.743 144.723 34.2727 144.563 35.0029Z" fill="#160014"/>
<path d="M153.849 36.9648C153.689 37.6926 153.823 38.3416 154.147 38.4108C154.474 38.48 154.865 37.9503 155.025 37.2201C155.185 36.4924 155.051 35.8481 154.727 35.7741C154.4 35.7049 154.009 36.2371 153.849 36.9648Z" fill="#160014"/>
<path d="M142.874 59.5744C142.855 59.5696 142.834 59.5648 142.814 59.56L143.072 54.9668C143.072 54.9668 143.213 55.0169 143.463 55.0885L142.874 59.5744Z" fill="white"/>
<path d="M142.771 60.2475L142.57 59.9803C142.704 59.9469 142.776 59.9254 142.776 59.9254L142.795 59.5913C142.814 59.5961 142.835 59.6009 142.854 59.6057L142.771 60.2475Z" fill="#5D6C87"/>
<path d="M142.584 59.9585L134.313 48.8654C137.921 53.4515 143.462 55.0573 143.462 55.0573L143.457 55.0979C143.206 55.0263 143.066 54.9762 143.066 54.9762L142.808 59.5695L142.789 59.9036C142.789 59.9036 142.717 59.9251 142.584 59.9585ZM134.313 48.8654C134.154 48.6626 133.998 48.455 133.846 48.2402L134.313 48.8654Z" fill="#CE3C2D"/>
<path d="M137.679 44.1458C137.173 44.1458 136.658 44.0743 136.15 43.924C133.336 43.0936 131.728 40.1706 132.558 37.4003C133.238 35.1287 135.338 33.666 137.622 33.666C138.128 33.666 138.643 33.7376 139.154 33.888C141.964 34.7207 143.573 37.6389 142.745 40.4116C142.065 42.6808 139.963 44.1458 137.679 44.1458Z" fill="#EE78AF"/>
<path d="M156.055 48.9368C154.251 47.3357 153.418 44.8016 154.153 42.3415C154.69 40.5519 155.952 39.1871 157.518 38.4307C157.138 41.2916 156.656 44.6036 156.129 48.5765L156.055 48.9368Z" fill="#EE78AF"/>
<path d="M145.095 29.2386C145.042 29.7421 145.717 30.2241 146.603 30.3148C147.486 30.4055 148.247 30.0738 148.299 29.5703C148.352 29.0668 147.676 28.5872 146.791 28.4965C145.906 28.4035 145.147 28.7375 145.095 29.2386Z" fill="#160014"/>
<path d="M154.369 30.9975C154.083 31.415 154.446 32.1572 155.181 32.6582C155.916 33.1569 156.744 33.2214 157.03 32.8038C157.316 32.3862 156.954 31.6441 156.219 31.1454C155.484 30.6467 154.656 30.5799 154.369 30.9975Z" fill="#160014"/>
<path d="M147.769 42.6084C146.901 42.1908 146.533 41.3366 145.739 41.3748C145.266 41.3962 144.839 41.7064 144.67 42.1431C144.498 42.5797 144.555 43.0832 144.732 43.527C145.073 44.3717 145.801 45.0709 146.645 45.4073C148.884 46.2949 150.146 45.2641 150.418 44.5292C150.606 44.0186 150.401 43.4053 149.912 43.0951C149.437 42.7968 148.392 42.9066 147.769 42.6084Z" fill="white"/>
<path d="M149.992 41.2569C149.589 41.2569 149.178 41.171 148.878 41.0541C148.128 40.7629 147.825 40.0709 147.961 39.2668L147.966 39.243C148.226 37.1766 148.789 34.6879 149.424 32.9245C149.672 32.2397 150.154 31.9844 150.724 31.9844C150.91 31.9844 151.106 32.013 151.307 32.0608C152.481 32.3447 152.507 33.0009 152.459 33.8551C152.397 35.0386 152.225 36.2174 152.034 37.389C151.872 38.3864 151.812 39.7249 151.335 40.6245C151.087 41.0946 150.543 41.2569 149.992 41.2569Z" fill="#EE78AF"/>
<path d="M472.199 340.088C474.213 302.115 493.268 238.931 482.235 202.827C476.258 183.258 386.43 185.513 386.43 185.513C386.43 185.513 354.867 234.92 344.699 337.012C344.597 338.038 344.454 339.062 344.332 340.088H472.199Z" fill="#816FB2"/>
<path d="M335.125 104.932C335.125 104.932 322.414 134.119 312.428 134.307C293.189 134.667 295.802 91.9297 296.198 85.5254C296.198 85.5254 298.705 81.5716 298.705 73.9909C298.705 60.4545 295.859 58.4239 293.365 58.4239C288.524 58.4239 293.723 65.3794 292.912 68.6746C292.912 68.6746 296.393 43.6563 291.006 41.1866C287.949 39.786 286.527 43.0908 286.527 43.0908C286.527 43.0908 285.816 39.3565 282.9 38.8912C279.989 38.4283 277.918 42.1244 277.918 42.1244C277.918 42.1244 277.281 39.2706 273.93 38.9747C271.081 38.7194 268.862 43.3986 268.862 43.3986C268.862 43.3986 268.428 39.6738 263.813 41.2868C259.762 42.7066 260.229 59.4929 260.229 59.4929C260.229 59.4929 254.329 106.769 264.314 137.977C273.138 165.553 290.643 180.202 312.428 180.202C334.218 180.202 354.19 160.927 367.807 132.47L335.125 104.932Z" fill="#EE78AF"/>
<path d="M287.258 70.4983C280.081 69.4628 274.375 75.4806 275.535 82.5864C275.654 83.3237 276.778 83.0111 276.659 82.2762C275.652 76.1105 280.692 70.7179 286.948 71.6222C287.683 71.7296 287.998 70.6057 287.258 70.4983Z" fill="#160014"/>
<path d="M410.382 9.15585C420.117 4.47907 433.174 9.1033 437.896 18.8983C439.051 21.2987 439.852 24.0523 441.945 25.6749C445.164 28.166 449.395 26.8202 453.611 25.4721C457.894 24.1024 462.16 22.7328 465.329 25.3909C469.455 28.8508 467.522 36.1308 470.955 40.2922C474.053 44.0456 478.989 43.2223 484.112 42.3991C487.119 41.9171 490.19 41.4327 492.991 41.8742C500.157 43.0004 505.029 51.7646 502.256 58.5388C500.381 63.1225 495.919 66.1815 493.841 70.6746C487.043 85.3778 508.868 103.531 499.806 116.925C496.332 122.06 493.635 129.459 491.517 135.298C490.567 137.915 490.844 140.829 490.164 143.532C488.262 151.096 479.591 154.807 471.876 155.093C460.807 155.501 445.562 146.011 435.965 140.413C426.352 134.804 416.502 125.393 418.408 114.336C419.551 107.705 424.834 102.193 425.171 95.4687C425.674 85.3849 415.144 78.4652 405.509 75.8071C395.876 73.1514 384.967 72.049 378.129 64.6902C374.829 61.1349 373.039 55.1553 376.265 51.5308C377.413 50.2423 379.114 49.3523 379.696 47.7178C380.734 44.8067 377.587 42.0722 377.246 38.9941C376.721 34.2625 382.366 31.7261 386.59 29.6191C393.822 26.0066 399.518 19.3636 402.028 11.6135L410.382 9.15585Z" fill="#160014"/>
<path d="M65.004 178.848L165.295 190.883L174.954 223.843L174.889 223.876C214.439 279.141 203.055 341.352 203.055 341.352L147.7 340.85C145.268 297.115 141.498 285.559 131.197 268.608L126.883 268.172C126.883 268.172 134.564 293.765 131.252 342.323H75.6127C75.6127 312.217 72.1242 292.744 65.1496 269.487C50.0097 218.987 65.004 178.848 65.004 178.848Z" fill="#4A77BB"/>
<path d="M396.23 340.247C398.034 325.785 399.881 311.323 402.183 296.927C404.584 281.945 407.122 266.691 411.997 252.278C412.281 251.436 410.954 251.078 410.673 251.913C405.705 266.6 403.147 282.153 400.72 297.426C398.461 311.657 396.64 325.95 394.858 340.247C394.748 341.123 396.122 341.113 396.23 340.247Z" fill="#E7E9EC"/>
<path d="M454.039 339.028C458.503 302.595 466.936 266.727 470.011 230.105C470.796 220.741 471.221 211.326 470.78 201.932C470.737 201.051 469.362 201.046 469.403 201.932C470.238 219.603 468.229 237.368 465.819 254.851C463.22 273.732 459.846 292.492 456.761 311.297C455.251 320.517 453.802 329.753 452.664 339.028C452.557 339.904 453.934 339.897 454.039 339.028Z" fill="#E7E9EC"/>
<path d="M408.956 254.934C405.67 253.311 402.798 251.128 400.318 248.432C399.719 247.778 398.751 248.752 399.347 249.403C401.9 252.18 404.878 254.45 408.262 256.122C409.052 256.511 409.748 255.328 408.956 254.934Z" fill="#E7E9EC"/>
<path d="M416.769 195.592C410.312 208.635 407.179 223.973 407.737 238.509C407.771 239.387 409.138 239.389 409.105 238.509C408.558 224.223 411.6 209.107 417.947 196.28C418.336 195.495 417.16 194.803 416.769 195.592Z" fill="#E7E9EC"/>
<path d="M420.113 207.966C420.065 209.703 421.418 211.149 423.133 211.199C424.849 211.247 426.281 209.88 426.331 208.145C426.378 206.408 425.026 204.964 423.308 204.914C421.592 204.867 420.16 206.231 420.113 207.966Z" fill="#E7E9EC"/>
<path d="M467.615 228.93C457.271 225.661 449.905 215.642 452.122 204.637C452.32 203.649 450.802 203.224 450.602 204.219C448.216 216.085 455.987 226.906 467.197 230.447C468.164 230.75 468.579 229.233 467.615 228.93Z" fill="#E7E9EC"/>
<path d="M467.409 237.725C453.143 232.955 443.737 218.193 444.949 203.284C445.032 202.277 443.458 202.282 443.376 203.284C442.105 218.911 452.098 234.263 466.989 239.243C467.953 239.565 468.364 238.047 467.409 237.725Z" fill="#E7E9EC"/>
<path d="M399.62 191.563C394.728 196.722 386.778 197.647 380.836 193.734C379.989 193.178 379.199 194.538 380.042 195.092C386.553 199.382 395.38 198.323 400.734 192.675C401.428 191.94 400.319 190.823 399.62 191.563Z" fill="#E7E9EC"/>
<path d="M405.477 194.242C398.817 202.059 385.691 205.583 377.435 198.131C376.686 197.454 375.569 198.565 376.323 199.243C385.19 207.251 399.337 203.867 406.588 195.356C407.242 194.59 406.133 193.471 405.477 194.242Z" fill="#E7E9EC"/>
<path d="M408.188 54.1346C360.957 54.86 334.209 102.124 324.223 123.236C324.223 123.236 332.572 132.153 340.563 137.923C349.036 144.041 358.719 150.775 358.719 150.775C358.719 150.775 369.614 140.677 386.219 117.868C386.219 117.868 464.24 53.2685 408.188 54.1346Z" fill="#EFE1DC"/>
<path d="M364.444 142.129C357.796 137.951 351.401 133.343 345.283 128.425C339.637 123.884 333.987 119.067 329.511 113.331C329.041 112.727 328.201 113.576 328.668 114.175C333.331 120.15 339.263 125.149 345.166 129.847C351.146 134.61 357.369 139.089 363.842 143.157C364.494 143.567 365.093 142.537 364.444 142.129Z" fill="#D58B85"/>
<path d="M482.164 202.193C482.164 202.193 493.666 72.4576 444.285 55.8908C403.893 42.3376 320.837 71.7322 378.92 154.977L385.028 185.672C385.028 185.672 428.603 212.291 482.164 202.193Z" fill="#EFE1DC"/>
<path d="M371.204 112.538C367.076 122.576 366.909 133.743 370.722 143.904C370.99 144.615 372.144 144.307 371.872 143.586C368.121 133.591 368.296 122.727 372.354 112.855C372.646 112.147 371.493 111.837 371.204 112.538Z" fill="#D58B85"/>
<path d="M363.971 113.866C364.725 116.923 366.209 119.652 368.359 121.95C368.884 122.513 369.729 121.669 369.204 121.105C367.19 118.951 365.827 116.412 365.123 113.549C364.94 112.804 363.787 113.119 363.971 113.866Z" fill="#D58B85"/>
<path d="M393.347 42.5986C388.616 38.442 384.569 33.2236 382.944 27.1032C381.317 20.9876 382.457 13.8985 386.85 9.38157C389.437 6.71866 392.932 5.1128 396.509 4.19653C403.214 2.47853 410.559 3.07743 416.696 6.30346C422.833 9.5271 427.629 15.4494 429.091 22.2832C429.683 25.044 429.745 27.905 429.445 30.7158C429.165 33.3334 428.564 35.9533 427.302 38.2512C424.985 42.4746 420.392 45.3236 415.617 45.4978C410.842 45.6696 406.058 43.1594 403.45 39.1149L393.347 42.5986Z" fill="#160014"/>
<path d="M401.064 57.2884L400.938 52.3539C400.938 52.3539 389.143 56.1025 388.07 45.5177C386.199 27.0754 384.641 22.1839 391.575 15.8154C398.509 9.44684 418.452 15.6817 418.796 31.2416L419.865 53.8047C419.865 53.8047 417.283 56.4676 411.678 57.601C405.806 58.7892 401.064 57.2884 401.064 57.2884Z" fill="#EE78AF"/>
<path d="M400.046 32.3629C400.185 33.0931 400.032 33.7373 399.703 33.7969C399.376 33.859 399.001 33.3149 398.86 32.5824C398.724 31.8498 398.877 31.208 399.204 31.1484C399.533 31.0863 399.908 31.6304 400.046 32.3629Z" fill="#160014"/>
<path d="M390.691 34.0469C390.829 34.777 390.674 35.4213 390.347 35.481C390.02 35.543 389.643 34.9966 389.505 34.264C389.369 33.5339 389.521 32.8897 389.848 32.83C390.175 32.768 390.552 33.312 390.691 34.0469Z" fill="#160014"/>
<path d="M400.752 54.645L400.527 52.4163C400.78 52.3495 400.921 52.3042 400.921 52.3042L400.981 54.6187C400.907 54.6259 400.826 54.6355 400.752 54.645Z" fill="black"/>
<path d="M400.879 55.7818L400.771 54.7128C400.845 54.7033 400.927 54.6937 401.001 54.6865L401.027 55.7412C400.979 55.7555 400.927 55.7699 400.879 55.7818Z" fill="#E4CBC7"/>
<path d="M401.063 57.6926L400.877 55.8482C400.925 55.8362 400.977 55.8219 401.025 55.8076L401.065 57.3729C401.065 57.3729 401.137 57.3968 401.268 57.4326L401.063 57.6926Z" fill="#E4CBC7"/>
<path d="M401.255 57.3089C401.124 57.2731 401.052 57.2492 401.052 57.2492L401.012 55.684L400.985 54.6293L400.926 52.3147C400.926 52.3147 400.785 52.36 400.532 52.4269L400.527 52.3816C400.527 52.3816 406.111 50.9451 409.855 46.4735L401.255 57.3089ZM409.855 46.4735L410.344 45.8579C410.184 46.0679 410.022 46.2731 409.855 46.4735Z" fill="#F37543"/>
<path d="M407.464 42.8158C404.882 42.8158 402.529 41.1145 401.842 38.5375C401.021 35.4618 402.887 32.3026 406.008 31.4794C406.512 31.3481 407.02 31.2837 407.519 31.2837C410.1 31.2837 412.455 32.985 413.143 35.562C413.963 38.6377 412.098 41.7969 408.976 42.6177C408.471 42.7514 407.962 42.8158 407.464 42.8158Z" fill="#EE78AF"/>
<path d="M388.114 45.8967L388.05 45.534C387.646 41.5468 387.262 38.2205 386.969 35.3477C388.51 36.1542 389.732 37.5572 390.214 39.3635C390.875 41.8427 389.966 44.3529 388.114 45.8967Z" fill="#EE78AF"/>
<path d="M399.678 26.4826C399.716 26.9861 399.027 27.4466 398.139 27.5111C397.252 27.5755 396.502 27.2176 396.464 26.7141C396.428 26.2131 397.118 25.7501 398.006 25.6857C398.893 25.6213 399.643 25.9792 399.678 26.4826Z" fill="#160014"/>
<path d="M390.366 28.0748C390.64 28.4995 390.254 29.2321 389.507 29.7069C388.757 30.1842 387.927 30.2271 387.653 29.8C387.378 29.3753 387.765 28.6427 388.514 28.1678C389.261 27.6906 390.091 27.6477 390.366 28.0748Z" fill="#160014"/>
<path d="M424.839 32.3782C424.039 29.3812 420.947 27.5964 417.933 28.3886C414.919 29.1832 413.125 32.2541 413.925 35.2511C414.721 38.248 417.814 40.0328 420.828 39.2407C423.841 38.4461 425.636 35.3751 424.839 32.3782Z" fill="#F89961"/>
<path d="M420.024 30.5886C417.778 30.8725 416.265 32.8243 416.578 35.0768C416.681 35.8141 417.802 35.5015 417.699 34.7666C417.501 33.3301 418.594 31.9343 420.024 31.7529C420.758 31.6599 420.768 30.4931 420.024 30.5886Z" fill="#160014"/>
<path d="M389.525 16.9021C390.337 19.868 393.536 21.567 396.584 22.0824C399.628 22.5978 402.785 22.2804 405.803 22.9366C408.822 23.5904 411.9 25.64 412.289 28.6871C412.394 29.5174 412.308 30.4218 412.757 31.1305C413.248 31.906 414.291 32.2114 415.19 32.0182C416.09 31.8249 416.851 31.2164 417.431 30.5077C418.958 28.6465 419.395 26.0504 418.934 23.693C418.474 21.3355 417.195 19.1951 415.62 17.3745C412.599 13.8741 408.314 11.3711 403.701 10.901C399.087 10.4286 394.205 12.1346 391.222 15.6661" fill="#160014"/>
<path d="M395.766 40.7386C396.694 40.469 397.195 39.6864 397.973 39.8558C398.436 39.956 398.806 40.3306 398.904 40.7912C398.999 41.2469 398.858 41.7361 398.61 42.1441C398.135 42.9196 397.305 43.4923 396.415 43.6855C394.062 44.1914 392.986 42.9649 392.838 42.199C392.736 41.6597 393.039 41.0918 393.573 40.8675C394.091 40.648 395.105 40.9295 395.766 40.7386Z" fill="white"/>
<path d="M394.522 39.4541C393.94 39.4541 393.358 39.2824 393.11 38.7789C392.661 37.865 392.642 36.5264 392.508 35.5242C392.353 34.3479 392.22 33.1644 392.191 31.9809C392.169 31.1243 392.215 30.4681 393.396 30.2223C393.577 30.1841 393.754 30.1626 393.923 30.1626C394.52 30.1626 395.018 30.4251 395.252 31.1433C395.835 32.9234 396.321 35.424 396.519 37.4999L396.524 37.5214C396.636 38.3327 396.312 39.0127 395.555 39.2824C395.271 39.3826 394.897 39.4541 394.522 39.4541Z" fill="#EE78AF"/>
<path d="M447.754 56.3694C447.754 56.3694 490.709 55.5534 513.635 95.2535C542.609 145.426 545.585 226.461 545.585 226.461C545.585 226.461 541.411 243.348 513.281 244.199C513.281 244.199 502.145 181.438 484.593 141.048C467.041 100.658 447.754 56.3694 447.754 56.3694Z" fill="#EE78AF"/>
<path d="M513.268 244.389C514.69 250.235 520.295 253.177 524.606 254.325C530.364 255.857 542.762 257.539 545.714 254.783C547.022 253.566 547.107 251.406 545.986 250.011C544.865 248.615 543.092 247.97 541.409 247.388C550.286 247.763 558.64 247.744 567.502 246.293C569.487 245.968 571.508 244.933 572.481 243.153C573.46 241.375 571.813 239.178 570.317 238.717C572.481 233.787 567.8 232.566 567.8 232.566C567.8 232.566 567.506 229.313 565.006 228.851C555.946 227.187 547.756 226.328 538.224 226.214" fill="#EE78AF"/>
<path d="M485.186 141.703C485.186 141.703 512.409 134.475 525.666 122.136C525.666 122.136 504.554 40.1186 419.83 53.8554L420.52 118.762L481.576 133.633L485.186 141.703Z" fill="#EFE1DC"/>
<path d="M430.694 56.9507C419.427 67.2564 402.55 70.0792 388.582 63.8657C387.885 63.5555 387.279 64.5816 387.978 64.8941C402.462 71.3366 419.842 68.49 431.537 57.7954C432.104 57.2753 431.26 56.433 430.694 56.9507Z" fill="#D58B85"/>
<path d="M473.179 117.507C478.03 125.137 481.043 133.744 484.701 141.969C485.011 142.671 486.04 142.062 485.73 141.368C482.076 133.143 479.06 124.534 474.207 116.905C473.797 116.259 472.763 116.855 473.179 117.507Z" fill="#D58B85"/>
<path d="M481.837 132.797C496.614 128.063 511.761 121.634 523.754 111.591C524.343 111.1 523.494 110.26 522.909 110.749C511.081 120.654 496.087 126.979 481.52 131.647C480.792 131.878 481.102 133.033 481.837 132.797Z" fill="#D58B85"/>
<path d="M543.278 247.427C540.978 246.594 538.654 245.838 536.304 245.158C535.583 244.95 535.273 246.074 535.994 246.282C538.344 246.959 540.668 247.718 542.968 248.548C543.674 248.806 543.978 247.68 543.278 247.427Z" fill="#160014"/>
<path d="M569.549 237.995C563.792 237.79 558.041 237.506 552.295 237.146C551.546 237.1 551.549 238.265 552.295 238.31C558.041 238.671 563.792 238.952 569.549 239.16C570.299 239.186 570.299 238.019 569.549 237.995Z" fill="#160014"/>
<path d="M552.997 232.143C557.812 232.255 562.587 232.685 567.345 233.446C568.077 233.563 568.395 232.441 567.65 232.322C562.795 231.544 557.917 231.093 552.997 230.979C552.246 230.962 552.246 232.126 552.997 232.143Z" fill="#160014"/>
<path d="M291.572 58.1621C288.864 61.8988 287.876 66.3418 288.625 70.8802C288.747 71.6175 289.869 71.3049 289.747 70.5723C289.048 66.3251 290.057 62.2281 292.577 58.7515C293.018 58.1454 292.009 57.5608 291.572 58.1621Z" fill="#160014"/>
<path d="M268.246 43.0512C267.719 48.2458 267.583 53.438 267.831 58.6517C267.867 59.3985 269.034 59.4033 268.995 58.6517C268.745 53.438 268.886 48.2458 269.411 43.0512C269.487 42.3067 268.32 42.3115 268.246 43.0512Z" fill="#160014"/>
<path d="M276.891 42.0765V57.6816C276.891 58.4309 278.055 58.4309 278.055 57.6816V42.0765C278.055 41.3273 276.891 41.3249 276.891 42.0765Z" fill="#160014"/>
<path d="M286.018 43.0548C285.815 48.5619 285.61 54.0691 285.405 59.5715C285.376 60.3231 286.541 60.3231 286.567 59.5715C286.772 54.0691 286.977 48.5619 287.182 43.0548C287.211 42.3079 286.047 42.3079 286.018 43.0548Z" fill="#160014"/>
<path d="M215.19 110.119C215.19 110.119 227.901 139.492 237.887 139.492C258.766 139.492 254.168 98.6228 253.771 92.2184L253.318 91.7603C253.318 91.7603 251.505 87.6275 251.047 76.6132C250.667 67.3384 254.456 63.609 256.95 63.609C261.794 63.609 256.592 70.5668 257.403 73.8597C257.403 73.8597 253.922 48.8412 259.31 46.374C262.369 44.9734 263.788 48.2781 263.788 48.2781C263.788 48.2781 264.499 44.5439 267.415 44.0762C270.329 43.6133 272.397 47.3118 272.397 47.3118C272.397 47.3118 273.035 44.4556 276.385 44.1597C279.234 43.9068 281.455 48.5859 281.455 48.5859C281.455 48.5859 281.887 44.8589 286.502 46.4743C290.553 47.8916 290.086 64.6803 290.086 64.6803C290.086 64.6803 295.987 111.954 286.001 143.164C277.177 170.741 259.675 185.389 237.887 185.389C216.097 185.389 196.125 166.112 182.508 137.655L215.19 110.119Z" fill="#EE78AF"/>
<path d="M142.094 59.3196C189.325 60.0474 213.431 107.541 226.059 128.422C226.059 128.422 217.369 136.895 209.719 143.11C202.954 148.606 193.567 155.816 192.83 156.084C192.83 156.084 181.338 143.144 164.063 123.055C164.063 123.055 86.0392 58.4558 142.094 59.3196Z" fill="#2A3176"/>
<path d="M185.37 148.229C191.915 144.099 198.059 139.305 203.943 134.289C209.782 129.314 215.583 124.053 220.305 117.978C220.78 117.367 219.925 116.503 219.446 117.119C214.907 122.955 209.364 128.03 203.779 132.836C197.763 138.012 191.473 142.944 184.754 147.177C184.095 147.594 184.704 148.644 185.37 148.229Z" fill="#E7E9EC"/>
<path d="M58.0061 215.353C58.0061 215.353 48.7146 60.3032 99.126 57.0605C192.731 51.0451 187.384 83.804 175.346 172.062V221.872C175.346 221.872 107.148 222.874 58.0061 215.353Z" fill="#2A3176"/>
<path d="M262.842 48.662V65.496C262.842 66.2453 264.006 66.2453 264.006 65.496V48.662C264.006 47.9128 262.842 47.9128 262.842 48.662Z" fill="#160014"/>
<path d="M271.195 46.7019C271.426 52.7412 271.023 58.7828 271.254 64.8245C271.283 65.5737 272.447 65.5761 272.419 64.8245C272.187 58.7828 272.59 52.7412 272.359 46.7019C272.33 45.9527 271.166 45.9479 271.195 46.7019Z" fill="#160014"/>
<path d="M280.955 48.662V64.847C280.955 65.5986 282.119 65.5986 282.119 64.847V48.662C282.119 47.9128 280.955 47.9128 280.955 48.662Z" fill="#160014"/>
<path d="M255.695 64.2181V74.5786C255.695 75.3254 256.86 75.3278 256.86 74.5786V64.2181C256.86 63.4689 255.695 63.4665 255.695 64.2181Z" fill="#160014"/>
<path d="M123.024 36.5656L123.022 36.5632L123.024 36.5656ZM123.012 36.5441C123.007 36.5346 123.002 36.5274 122.998 36.5178C123.002 36.5274 123.007 36.5346 123.012 36.5441ZM122.995 36.5131C122.983 36.4868 122.969 36.463 122.957 36.4367C122.969 36.463 122.983 36.4868 122.995 36.5131ZM122.955 36.4343C122.948 36.4224 122.943 36.4105 122.936 36.3961C122.007 34.5779 121.602 32.5259 121.444 30.4858C121.399 29.8678 121.373 29.2497 121.375 28.6293C121.373 29.2497 121.399 29.8678 121.444 30.4858C121.602 32.5259 122.007 34.5779 122.936 36.3961C122.943 36.4105 122.948 36.4224 122.955 36.4343ZM156.119 16.2001C156.117 16.1977 156.117 16.1977 156.115 16.1953C156.117 16.1977 156.117 16.1977 156.119 16.2001ZM156.095 16.1667C156.091 16.1619 156.088 16.1548 156.084 16.1476C156.088 16.1548 156.091 16.1595 156.095 16.1667ZM156.069 16.1261C156.062 16.119 156.057 16.1094 156.05 16.0999C156.057 16.1094 156.062 16.119 156.069 16.1261ZM156.038 16.0856C156.031 16.0736 156.024 16.0641 156.017 16.0521C156.024 16.0641 156.031 16.0736 156.038 16.0856ZM156.01 16.0426C156 16.0283 155.99 16.0139 155.979 15.9996C155.99 16.0139 156 16.0283 156.01 16.0426ZM155.979 15.9996C155.738 15.6584 155.477 15.3316 155.198 15.0166C155.477 15.3316 155.738 15.6584 155.979 15.9996ZM155.196 15.0142C155.186 14.9999 155.174 14.9879 155.162 14.9736C155.174 14.9879 155.186 14.9999 155.196 15.0142ZM155.158 14.9712C155.148 14.9569 155.136 14.945 155.124 14.9331C155.136 14.945 155.148 14.9569 155.158 14.9712ZM155.12 14.9283C155.108 14.9139 155.096 14.8996 155.084 14.8877C155.096 14.8996 155.108 14.9139 155.12 14.9283Z" fill="#564E55"/>
<path d="M125.226 39.3787C124.346 38.5674 123.592 37.6202 123.024 36.5584L123.022 36.556C123.019 36.5488 123.014 36.5417 123.012 36.5369C123.007 36.5273 123.002 36.5201 122.998 36.5106C122.998 36.5082 122.995 36.5059 122.995 36.5059C122.983 36.4796 122.969 36.4557 122.957 36.4295C122.955 36.4295 122.955 36.4271 122.955 36.4271C122.948 36.4151 122.943 36.4032 122.936 36.3889C122.007 34.5707 121.602 32.5187 121.444 30.4785C121.399 29.8605 121.373 29.2425 121.375 28.6221C121.375 27.0401 121.54 25.4581 121.919 23.9263C123.217 18.6434 127.088 14.1479 131.936 11.7857C134.823 10.3779 138.021 9.70264 141.228 9.70264C143.409 9.70264 145.594 10.0152 147.689 10.6189C150.452 11.4159 153.132 12.7473 155.084 14.8805C155.096 14.8924 155.108 14.9067 155.12 14.921C155.122 14.9234 155.124 14.9234 155.124 14.9258C155.136 14.9378 155.148 14.9497 155.158 14.964C155.16 14.964 155.16 14.9664 155.162 14.9664C155.174 14.9807 155.186 14.9926 155.196 15.0069C155.198 15.0069 155.198 15.007 155.198 15.0094C155.477 15.3243 155.738 15.6512 155.979 15.9924C155.99 16.0067 156 16.021 156.01 16.0354C156.012 16.0377 156.014 16.0425 156.017 16.0449C156.024 16.0568 156.031 16.0664 156.038 16.0783C156.043 16.0831 156.048 16.0879 156.05 16.0927C156.057 16.1022 156.062 16.1117 156.069 16.1189C156.074 16.126 156.079 16.1332 156.084 16.1404C156.088 16.1475 156.091 16.1547 156.095 16.1594C156.103 16.169 156.107 16.1785 156.115 16.1881C156.117 16.1905 156.117 16.1905 156.119 16.1929C158.207 19.2805 158.799 23.3154 158.107 27.0592C157.654 23.8809 156.31 21.471 153.54 18.7651C151.676 16.9469 148.787 16.0617 145.568 16.0617C137.186 16.0617 126.553 22.0627 125.875 33.2082V33.225C125.873 33.2321 125.873 33.2393 125.873 33.2464C125.873 33.2608 125.871 33.275 125.871 33.2893V33.3037C125.868 33.3251 125.868 33.3442 125.866 33.3657L125.226 39.3787Z" fill="#532122"/>
<path d="M125.391 39.4738C125.336 39.4237 125.281 39.3759 125.229 39.3258L125.868 33.3128L125.391 39.4738ZM131.449 34.9044C130.834 34.9044 130.297 34.4748 130.065 33.6994C129.471 31.7213 127.648 30.7836 126.283 30.3421C126.078 31.2417 125.937 32.177 125.878 33.1553C126.555 22.0098 137.188 16.0088 145.57 16.0088C148.789 16.0088 151.679 16.894 153.542 18.7122C156.312 21.4181 157.656 23.828 158.109 27.0063C158.104 27.023 158.102 27.0397 158.1 27.0564C158.03 26.5697 157.935 26.1068 157.823 25.6534L157.828 25.9541C157.823 26.0925 157.825 26.1569 157.823 26.1569C157.816 26.1569 157.505 20.4135 148.338 18.3806C147.159 18.1181 146.062 17.9988 145.045 17.9988C137.314 17.9988 134.148 24.8564 134.279 28.1564C134.468 32.9191 132.776 34.9044 131.449 34.9044ZM125.873 33.2508V33.2365V33.2508ZM125.875 33.1936C125.875 33.1864 125.875 33.1792 125.878 33.1721C125.875 33.1792 125.875 33.1864 125.875 33.1936Z" fill="#532122"/>
<path d="M137.669 22.9127C147.526 15.4107 154.555 33.7767 164.202 28.6751C165.899 27.778 167.273 26.2079 167.867 24.3778C168.657 21.9368 167.834 19.3311 168.471 16.8734C169.125 14.3441 170.891 13.9457 172.666 12.4281C174.195 11.1205 175.124 9.13766 175.178 7.13094C175.283 3.26782 171.633 0.134822 167.789 1.02723C163.976 1.91248 163.176 7.35041 159.27 7.76082C156.991 7.99705 155.242 6.06196 153.515 4.90947C151.437 3.52552 148.392 1.75027 146.011 2.76198C142.429 4.28671 143.734 6.15259 140.713 7.4745C137.693 8.79402 135.898 6.03333 132.31 6.89472C127.838 7.97324 124.633 11.2756 125.275 16.4082C125.946 21.7865 132.975 25.0936 137.657 22.927" fill="#13010F"/>
<path d="M119.754 34.1764C120.642 31.2033 123.786 29.514 126.774 30.3968C129.761 31.2797 131.463 34.4055 130.575 37.3762C129.685 40.3469 126.542 42.0387 123.555 41.1558C120.565 40.273 118.864 37.1471 119.754 34.1764Z" fill="#EE78AF"/>
<path d="M124.459 33.8171C125.948 34.0534 127.086 35.3896 126.824 36.9382C126.7 37.6683 127.821 37.9833 127.948 37.246C128.308 35.1224 126.938 33.0369 124.767 32.6933C124.035 32.5787 123.72 33.7002 124.459 33.8171Z" fill="#160014"/>
<path d="M61.4217 126.188C62.1948 116.347 64.1538 106.698 67.2582 97.33C67.5039 96.5879 66.3324 96.2681 66.0866 97.0054C62.9489 106.478 60.9875 116.24 60.2072 126.188C60.1476 126.966 61.3621 126.963 61.4217 126.188Z" fill="#E7E9EC"/>
<path d="M172.332 131.405C174.728 135.488 177.302 139.453 179.951 143.374C180.387 144.018 181.44 143.412 181.001 142.76C178.352 138.84 175.777 134.874 173.382 130.794C172.986 130.119 171.936 130.73 172.332 131.405Z" fill="#E7E9EC"/>
<path d="M104.941 264.423C116.578 267.552 128.526 269.124 140.578 269.105C141.463 269.105 141.463 267.731 140.578 267.733C128.643 267.75 116.831 266.199 105.306 263.097C104.45 262.865 104.085 264.192 104.941 264.423Z" fill="#E7E9EC"/>
<path d="M97.7268 220.29C97.8843 226.924 98.7958 233.44 100.466 239.859C100.688 240.716 102.015 240.353 101.79 239.494C100.151 233.197 99.2539 226.8 99.0988 220.29C99.0797 219.408 97.7053 219.405 97.7268 220.29Z" fill="#E7E9EC"/>
<path d="M163.819 224.83C172.356 237.035 180.064 249.894 185.292 263.888C190.629 278.174 193.216 293.254 194.089 308.442C194.707 319.172 194.535 329.931 194.02 340.664C193.977 341.547 195.351 341.544 195.394 340.664C196.244 323.004 196.187 305.156 193.13 287.692C190.613 273.314 185.814 259.522 178.985 246.627C174.85 238.815 170.068 231.373 165.005 224.136C164.501 223.418 163.311 224.102 163.819 224.83Z" fill="#E7E9EC"/>
<path d="M125.336 220.566C125.882 226.181 126.429 231.798 126.975 237.412C127.061 238.286 128.438 238.293 128.35 237.412C127.803 231.798 127.257 226.181 126.71 220.566C126.627 219.693 125.25 219.683 125.336 220.566Z" fill="#E7E9EC"/>
<path d="M68.8372 217.204C67.9663 226.128 69.0567 234.265 71.7387 242.795C72.0036 243.637 73.3302 243.275 73.063 242.43C70.424 234.033 69.355 225.98 70.2116 217.204C70.2975 216.321 68.9231 216.328 68.8372 217.204Z" fill="#E7E9EC"/>
<path d="M256.935 63.6553L256.432 63.7054C256.737 69.2197 257.388 73.906 257.388 73.906C256.58 70.6131 261.779 63.6553 256.935 63.6553Z" fill="#E66C50"/>
<path d="M254.841 170.081C246.237 173.417 240.775 180.032 242.644 184.851L242.77 185.109C253.799 183.945 263.556 178.807 271.434 169.962C267.891 167.64 261.406 167.538 254.841 170.081Z" fill="#E66C50"/>
<path d="M242.771 185.11L242.645 184.852C242.397 184.213 242.277 183.542 242.277 182.85C242.282 178.334 247.381 172.977 254.843 170.082C258.131 168.808 261.4 168.197 264.287 168.197C267.164 168.197 269.667 168.803 271.436 169.963C263.557 178.808 253.8 183.946 242.771 185.11Z" fill="#EE78AF"/>
<path d="M292.89 68.7186C292.89 68.7186 293.542 64.0227 293.845 58.5012L293.344 58.4702C288.502 58.4702 293.702 65.4258 292.89 68.7186Z" fill="#F89961"/>
<path d="M307.072 170.085C298.465 166.749 289.973 167.952 288.105 172.769L288.066 172.9C295.261 177.713 303.459 180.219 312.398 180.219C314.564 180.219 316.705 179.975 318.831 179.605C317.12 175.978 312.801 172.306 307.072 170.085Z" fill="#F89961"/>
<path d="M312.398 180.219C303.459 180.219 295.261 177.713 288.066 172.9L288.105 172.769C289.257 169.794 292.939 168.197 297.613 168.197C300.505 168.197 303.781 168.808 307.072 170.085C312.801 172.306 317.12 175.978 318.831 179.605C316.705 179.975 314.564 180.219 312.398 180.219Z" fill="#EE78AF"/>
<path d="M274.123 3.19723V23.2168C274.123 24.071 275.45 24.0734 275.45 23.2168V3.19723C275.45 2.343 274.123 2.34062 274.123 3.19723Z" fill="#000021"/>
<path d="M294.228 11.4341C291.701 16.1228 289.175 20.8115 286.645 25.5002C286.242 26.2542 287.387 26.9223 287.793 26.1707C290.32 21.482 292.847 16.7933 295.374 12.1022C295.777 11.353 294.632 10.6801 294.228 11.4341Z" fill="#000021"/>
<path d="M255.605 12.1027C258.134 16.7938 260.661 21.4825 263.188 26.1712C263.591 26.9228 264.739 26.2547 264.333 25.5007C261.807 20.812 259.28 16.1233 256.753 11.4346C256.347 10.6806 255.199 11.3511 255.605 12.1027Z" fill="#000021"/>
<path d="M529.09 138.578C524.031 140.096 522.01 148.244 524.57 156.779C527.131 165.317 533.306 171.003 538.362 169.488L538.646 169.376C536.744 159.404 534.323 148.855 531.268 138.37C530.529 138.311 529.798 138.368 529.09 138.578Z" fill="#F89961"/>
<path d="M536.678 169.73C532.006 169.73 526.852 164.385 524.57 156.778C523.814 154.261 523.459 151.777 523.461 149.489C523.466 144.015 525.523 139.649 529.09 138.577C529.624 138.417 530.173 138.348 530.729 138.348C530.908 138.348 531.089 138.355 531.268 138.37C534.323 148.854 536.744 159.403 538.646 169.375L538.362 169.487C537.811 169.652 537.248 169.73 536.678 169.73Z" fill="#EE78AF"/>
</svg>
