<svg width="1000" height="667" viewBox="0 0 1000 667" fill="none" xmlns="http://www.w3.org/2000/svg">
<g clip-path="url(#clip0)">
<g opacity="0.449997">
<g opacity="0.449997">
<path opacity="0.449997" d="M569.586 348.901C567.717 341.312 550.078 330.23 540.657 336.92C537.758 322.473 535.054 313.458 525.603 306.338C516.151 299.218 500.374 308.532 497.845 328.012C495.317 319.993 482.433 309.205 472.081 318.312C462.502 326.737 461.547 340.86 462.543 348.901H569.586Z" fill="#D2DEF9"/>
</g>
</g>
<path d="M340.092 374.081C313.178 364.861 289.672 346.81 272.166 324.383C254.659 301.957 234.93 252.729 238.324 211.206C315.894 234.209 347.376 306.251 352.072 349.946" fill="#D2DEF9"/>
<path d="M238.325 211.206C238.325 211.206 251.1 311.161 340.768 366.362" stroke="white" stroke-width="2" stroke-miterlimit="10"/>
<path d="M238.325 211.206C238.325 211.206 291.244 306.013 349.24 363.682" stroke="white" stroke-width="2" stroke-miterlimit="10"/>
<path d="M238.325 211.206C238.325 211.206 316.45 273.242 352.866 358.161" stroke="white" stroke-width="2" stroke-miterlimit="10"/>
<path d="M340.359 539.197C309.684 550.614 275.873 550.985 244.387 542.63C212.901 534.277 160.599 501.851 134.5 459.41C209.429 433.907 299.288 468.557 334.188 506.991" fill="#D2DEF9"/>
<path d="M134.5 459.41C134.5 459.41 216.161 545.799 335.545 531.273" stroke="white" stroke-width="2" stroke-miterlimit="10" stroke-linejoin="round"/>
<path d="M134.5 459.41C134.5 459.41 248.645 510.613 341.283 522.318" stroke="white" stroke-width="2" stroke-miterlimit="10" stroke-linejoin="round"/>
<path d="M134.5 459.41C134.5 459.41 248.304 460.146 340.668 514.283" stroke="white" stroke-width="2" stroke-miterlimit="10" stroke-linejoin="round"/>
<path d="M369.118 328.87C343.155 309.578 324.667 281.745 314.661 251.148C304.654 220.55 303.409 159.749 324.562 115.288C386.002 163.696 405.598 256.829 392.502 306.433" fill="#E9F1FF"/>
<path d="M324.562 115.288C324.562 115.288 296.853 229.45 373.099 320.62" stroke="white" stroke-width="2" stroke-miterlimit="10" stroke-linejoin="round"/>
<path d="M324.562 115.288C324.562 115.288 343.495 237.46 383.61 320.56" stroke="white" stroke-width="2" stroke-miterlimit="10" stroke-linejoin="round"/>
<path d="M324.562 115.288C324.562 115.288 385.153 210.037 389.941 315.729" stroke="white" stroke-width="2" stroke-miterlimit="10" stroke-linejoin="round"/>
<path d="M604.325 314.542C630.511 309.56 654.705 295.938 673.916 277.46C693.127 258.984 717.955 215.944 720.313 176.984C645.323 188.03 606.568 250.668 596.416 290.57" fill="#D2DEF9"/>
<path d="M720.314 176.984C720.314 176.984 695.208 267.992 604.724 307.292" stroke="white" stroke-width="2" stroke-miterlimit="10" stroke-linejoin="round"/>
<path d="M720.314 176.984C720.314 176.984 658.661 257.892 597.222 303.684" stroke="white" stroke-width="2" stroke-miterlimit="10" stroke-linejoin="round"/>
<path d="M720.314 176.984C720.314 176.984 639.629 224.155 594.591 298.083" stroke="white" stroke-width="2" stroke-miterlimit="10" stroke-linejoin="round"/>
<path d="M677.619 526.061C715.921 533.336 756.153 527.786 792.209 512.956C828.267 498.125 885.149 452.888 909.269 401.144C801.304 375.922 714.952 440.353 679.723 489.198" fill="#D2DEF9"/>
<path d="M909.269 401.143C909.269 401.143 826.264 511.501 682.051 516.411" stroke="white" stroke-width="2" stroke-miterlimit="10" stroke-linejoin="round"/>
<path d="M909.269 401.143C909.269 401.143 795.66 477.051 679.291 498.442" stroke="white" stroke-width="2" stroke-miterlimit="10" stroke-linejoin="round"/>
<path d="M909.269 401.143C909.269 401.143 774.165 422.022 673.205 498.442" stroke="white" stroke-width="2" stroke-miterlimit="10" stroke-linejoin="round"/>
<path d="M570.479 304.342C603.449 290.16 630.533 264.844 649.169 234.37C667.803 203.898 684.711 138.576 673.255 85.1584C594.531 121.694 549.535 217.228 550.978 274.134" fill="#E9F1FF"/>
<path d="M673.255 85.1588C673.255 85.1588 673.948 215.504 568.294 294.415" stroke="white" stroke-width="2" stroke-miterlimit="10" stroke-linejoin="round"/>
<path d="M673.255 85.1588C673.255 85.1588 621.542 212.212 556.961 291.66" stroke="white" stroke-width="2" stroke-miterlimit="10" stroke-linejoin="round"/>
<path d="M673.255 85.1588C673.255 85.1588 583.586 171.943 551.363 284.825" stroke="white" stroke-width="2" stroke-miterlimit="10" stroke-linejoin="round"/>
<path d="M335.056 488.915C317.203 491.694 286.825 495.841 270.032 484.63C260.748 478.433 259.044 466.973 255.415 456.887C249.203 439.631 236.443 429.485 219.521 426.527C212.752 425.343 205.587 422.297 202.34 415.825C197.508 406.193 203.452 393.805 199.572 383.703C197.489 378.277 192.965 374.437 189.233 370.121C180.211 359.685 177.973 344.222 177.973 344.222C177.973 344.222 188.881 347.671 201.095 343.863C208.931 341.418 217.439 339.891 225.684 341.198C232.127 342.219 236.956 345.591 241.209 350.711C246.215 356.737 250.417 361.285 257.645 363.786C268.805 367.649 296.465 358.302 299.5 374.323C300.325 378.683 299.299 383.402 301.309 387.482C304.953 394.874 313.764 391.118 319.771 393.002C329.005 395.899 339.104 402.541 343.063 411.209C352.505 431.882 352.068 460.371 346.751 482.827" fill="#E9F1FF"/>
<path d="M179.083 344.517C209.193 377.062 254.769 389.281 284.128 422.601C292.936 432.597 299.985 444.189 308.293 454.661C316.6 465.136 326.595 474.746 338.827 478.87" stroke="white" stroke-width="2" stroke-miterlimit="10" stroke-linejoin="round"/>
<path d="M200.004 406.852C215.741 408.546 239.632 408.178 263.345 403.696C263.345 403.696 257.549 373.162 252.652 361.488" stroke="white" stroke-width="2" stroke-miterlimit="10" stroke-linejoin="round"/>
<path d="M200.517 396.68C217.825 397.937 232.342 396.904 252.524 396.086" stroke="white" stroke-width="2" stroke-miterlimit="10" stroke-linejoin="round"/>
<path d="M198.021 381.119C198.021 381.119 212.739 381.608 226.109 379.801" stroke="white" stroke-width="2" stroke-miterlimit="10" stroke-linejoin="round"/>
<path d="M183.538 361.411C183.644 361.623 188.258 362.167 198.85 362.007" stroke="white" stroke-width="2" stroke-miterlimit="10" stroke-linejoin="round"/>
<path d="M220.163 376.191C220.277 376.262 213.271 354.582 207.794 342.227" stroke="white" stroke-width="2" stroke-miterlimit="10" stroke-linejoin="round"/>
<path d="M248.433 393.423C248.332 393.358 241.488 359.069 234.741 344.729" stroke="white" stroke-width="2" stroke-miterlimit="10" stroke-linejoin="round"/>
<path d="M234.845 431.818C235.373 432.108 265.013 434.086 289.349 428.93" stroke="white" stroke-width="2" stroke-miterlimit="10" stroke-linejoin="round"/>
<path d="M281.959 420.215C281.959 420.215 278.939 383.543 274.192 364.816" stroke="white" stroke-width="2" stroke-miterlimit="10" stroke-linejoin="round"/>
<path d="M305.485 388.591C308.934 411.187 309.408 456.047 309.408 456.047C309.408 456.047 271.224 461.222 255.414 456.889" stroke="white" stroke-width="2" stroke-miterlimit="10" stroke-linejoin="round"/>
<path d="M325.731 471.975C325.731 471.975 327.092 421.194 324.103 394.617" stroke="white" stroke-width="2" stroke-miterlimit="10" stroke-linejoin="round"/>
<path d="M258.213 466.966C258.213 466.966 288.981 471.302 314.925 462.363" stroke="white" stroke-width="2" stroke-miterlimit="10" stroke-linejoin="round"/>
<path d="M332.053 476.012C332.053 476.012 340.91 435.929 334.411 400.734" stroke="white" stroke-width="2" stroke-miterlimit="10" stroke-linejoin="round"/>
<path d="M580.921 270.68C589.043 249.698 602.239 228.95 594.126 205.779C589.641 192.968 575.937 187.572 565.453 180.662C547.513 168.835 539.491 150.824 540.818 129.547C541.349 121.036 539.866 111.582 533.391 106.032C523.755 97.7751 507.991 101.912 497.555 94.6937C491.95 90.8177 488.83 84.3711 484.949 78.7697C475.559 65.2231 458.561 58.6671 458.561 58.6671C458.561 58.6671 459.465 72.7644 451.733 86.6444C446.773 95.5511 442.671 105.499 441.871 115.832C441.246 123.907 443.749 130.608 448.402 137.043C453.879 144.616 457.895 150.847 458.741 160.244C460.043 174.75 441.715 206.007 459.13 213.67C463.867 215.755 469.531 215.682 473.621 219.135C481.033 225.395 474.309 235.158 474.787 242.918C475.526 254.848 480.291 268.758 489.069 275.715C510.006 292.314 542.593 298.859 569.658 297.984" fill="#E9F1FF"/>
<path d="M458.588 60.0865C487.317 104.724 488.589 163.085 518.41 207.001C527.357 220.177 538.609 231.615 548.238 244.301C557.865 256.987 566.044 271.507 567.348 287.38" stroke="white" stroke-width="2" stroke-miterlimit="10" stroke-linejoin="round"/>
<path d="M502.635 177.077C502.635 177.077 469.451 162.455 457.505 153.611" stroke="white" stroke-width="2" stroke-miterlimit="10" stroke-linejoin="round"/>
<path d="M512.081 99.0638C508.71 120.388 503.502 137.753 496.969 162.051" stroke="white" stroke-width="2" stroke-miterlimit="10" stroke-linejoin="round"/>
<path d="M495.041 92.1686C495.041 92.1686 491.513 110.158 485.742 125.939" stroke="white" stroke-width="2" stroke-miterlimit="10" stroke-linejoin="round"/>
<path d="M476.603 69.692C476.815 69.872 476.155 75.6094 473.034 88.4294" stroke="white" stroke-width="2" stroke-miterlimit="10" stroke-linejoin="round"/>
<path d="M483.279 117.824C483.329 117.98 460.569 104.09 448.01 94.3722" stroke="white" stroke-width="2" stroke-miterlimit="10" stroke-linejoin="round"/>
<path d="M495.069 156.422C495.024 156.283 457.849 139.457 443.378 127.705" stroke="white" stroke-width="2" stroke-miterlimit="10" stroke-linejoin="round"/>
<path d="M540.017 117.825C536.781 130.149 530.57 162.051 512.081 193.856" stroke="white" stroke-width="2" stroke-miterlimit="10" stroke-linejoin="round"/>
<path d="M516.293 203.777C516.293 203.777 475.342 190.999 455.321 180.587" stroke="white" stroke-width="2" stroke-miterlimit="10" stroke-linejoin="round"/>
<path d="M563.128 269.77C563.128 269.77 504.881 258.809 475.426 248.578" stroke="white" stroke-width="2" stroke-miterlimit="10" stroke-linejoin="round"/>
<path d="M576.16 186.563C576.16 186.563 572.56 224.991 555.173 254.265" stroke="white" stroke-width="2" stroke-miterlimit="10" stroke-linejoin="round"/>
<path d="M698.099 454.207C721.263 449.732 747.044 449.896 763.107 429.782C771.987 418.66 769.146 403.482 769.444 390.319C769.956 367.794 781.486 350.635 801.126 339.96C808.98 335.691 816.554 329.107 817.875 320.264C819.843 307.106 807.386 295.407 807.984 282.116C808.306 274.978 812.294 268.615 815.106 262.046C821.91 246.16 818.263 227.407 818.263 227.407C818.263 227.407 806.243 236.064 789.608 236.93C778.932 237.484 767.811 239.383 758.186 244.43C750.666 248.372 746.107 254.327 742.984 262.044C739.307 271.13 736.011 278.168 728.134 284.154C715.975 293.392 678 294.523 680.894 314.262C681.682 319.632 684.902 324.622 684.112 330.179C682.682 340.25 670.262 339.715 663.636 344.463C653.45 351.766 643.75 363.747 642.459 375.42C639.379 403.266 651.718 435.858 667.571 459.411" fill="#E9F1FF"/>
<path d="M817.017 228.223C793.373 278.609 742.239 312.251 719.841 363.204C713.121 378.491 709.229 394.86 703.325 410.479C697.421 426.099 689.078 441.453 675.705 451.452" stroke="white" stroke-width="2" stroke-miterlimit="10" stroke-linejoin="round"/>
<path d="M817.039 308.936C798.338 317.649 768.731 327.49 737.634 332.522C737.634 332.522 732.136 294.9 733.338 279.361" stroke="white" stroke-width="2" stroke-miterlimit="10" stroke-linejoin="round"/>
<path d="M812.194 297.454C791.375 306.338 773.049 311.386 747.826 319.118" stroke="white" stroke-width="2" stroke-miterlimit="10" stroke-linejoin="round"/>
<path d="M808.827 278.476C808.827 278.476 790.883 285.364 773.648 289.029" stroke="white" stroke-width="2" stroke-miterlimit="10" stroke-linejoin="round"/>
<path d="M818.521 249.577C818.479 249.866 813.014 252.475 799.887 256.843" stroke="white" stroke-width="2" stroke-miterlimit="10" stroke-linejoin="round"/>
<path d="M779.486 282.32C779.374 282.45 779.034 254.495 780.67 237.927" stroke="white" stroke-width="2" stroke-miterlimit="10" stroke-linejoin="round"/>
<path d="M751.767 314.295C751.864 314.176 746.103 271.782 748.48 252.382" stroke="white" stroke-width="2" stroke-miterlimit="10" stroke-linejoin="round"/>
<path d="M784.422 352.634C783.891 353.194 748.166 368.207 716.023 372.73" stroke="white" stroke-width="2" stroke-miterlimit="10" stroke-linejoin="round"/>
<path d="M721.526 359.529C721.526 359.529 710.062 316.035 708.159 292.449" stroke="white" stroke-width="2" stroke-miterlimit="10" stroke-linejoin="round"/>
<path d="M679.423 333.249C684.529 360.732 702.523 412.552 702.523 412.552C702.523 412.552 751.747 402.097 769.445 390.319" stroke="white" stroke-width="2" stroke-miterlimit="10" stroke-linejoin="round"/>
<path d="M688.996 437.893C688.996 437.893 666.285 380.048 658.964 348.184" stroke="white" stroke-width="2" stroke-miterlimit="10" stroke-linejoin="round"/>
<path d="M770.168 403.117C770.168 403.117 734.028 421.327 698.337 422.191" stroke="white" stroke-width="2" stroke-miterlimit="10" stroke-linejoin="round"/>
<path d="M682.871 445.254C682.871 445.254 655.351 402.941 648.787 359.651" stroke="white" stroke-width="2" stroke-miterlimit="10" stroke-linejoin="round"/>
<path d="M604.148 359.607C607.311 366.228 620.112 394.147 623.274 400.768C613.007 404.049 603.598 408.301 593.53 412.151C589.266 417.888 598.796 406.547 599.238 400.327" fill="#F777BA"/>
<path d="M626.19 409.964L620.381 411.969C620.154 411.374 619.687 409.626 619.355 409.15C618.261 409.528 615.979 410.508 615.715 410.741C615.495 410.934 615.27 411.678 615.077 412.404C614.821 413.378 614.123 414.128 613.225 414.438L590.131 422.41C587.279 423.393 585.626 420.062 588.093 417.341C590.329 414.874 595.205 409.525 595.443 409.378C604.945 407.113 619.373 400.205 621.206 395.99C624.277 397.65 626.202 409.881 626.19 409.964Z" fill="#0B0B3A"/>
<path d="M601.607 283.917C602.125 299.009 600.531 329.281 602.581 342.123C603.872 350.201 618.421 390.372 618.421 390.372L599.239 400.327C599.239 400.327 582.793 374.921 573.425 344.888C567.355 325.427 566.884 303.993 566.884 286.365" fill="#F777BA"/>
<path d="M651.703 328.426C657.096 333.4 679.34 354.58 684.731 359.558C676.415 366.411 669.254 373.851 661.332 381.16C659.502 388.068 664.144 374.003 662.247 368.063" fill="#F777BA"/>
<path d="M690.851 367.013L686.199 371.032C685.767 370.562 684.687 369.113 684.202 368.793C683.325 369.55 681.571 371.308 681.411 371.621C681.279 371.881 681.345 372.657 681.435 373.402C681.558 374.402 681.19 375.357 680.471 375.98L661.982 391.948C659.699 393.92 656.927 391.438 658.209 387.997C659.37 384.876 661.913 378.101 662.082 377.874C670.063 372.248 680.899 360.481 681.039 355.885C684.507 356.289 690.83 366.932 690.851 367.013Z" fill="#0B0B3A"/>
<path d="M632.992 255.469C632.992 255.469 631.823 299.929 637.937 311.249C645.149 324.603 668.553 344.629 668.553 344.629L662.247 368.062C662.247 368.062 629.383 349.719 612.228 327.669C599.205 310.927 598.589 258.047 598.589 258.047" fill="#F777BA"/>
<path d="M631.174 218.308C654.332 236.179 652.436 307.689 652.436 307.689C652.436 307.689 626.69 314.449 605.669 314.449C584.648 314.449 562.732 311.113 562.732 311.113C564.01 249.617 574.924 233.632 581.068 223.111" fill="#18277A"/>
<path d="M587.954 120.678C587.954 120.678 593.18 135.896 592.338 139.441C591.497 142.988 579.968 142.005 577.029 141.853C576.778 134.108 579.365 123.241 579.365 123.241" fill="#212237"/>
<path d="M589.72 138.582L590.953 147.055C590.953 147.055 597.116 151.027 602.295 148.933C607.748 146.725 607.457 143.746 607.457 143.746L600.915 128.21" fill="#F777BA"/>
<path d="M581.072 123.697C580.977 134.62 582.929 143.174 590.134 142.62C597.729 142.034 603.374 135.789 600.652 127.272C597.792 118.321 581.704 117.392 581.072 123.697Z" fill="#F777BA"/>
<path d="M590.398 143.243C594.1 142.635 598.592 140.681 600.548 135.639" stroke="#CC328A" stroke-miterlimit="10" stroke-linejoin="round"/>
<path d="M599.487 126.813C599.492 126.813 599.492 126.805 599.487 126.805C599.482 126.805 599.482 126.813 599.487 126.813Z" fill="#FF855A"/>
<path d="M599.437 126.81C599.435 126.842 599.431 126.874 599.428 126.907C599.423 126.971 599.523 126.971 599.528 126.907C599.531 126.874 599.533 126.842 599.536 126.81C599.541 126.746 599.443 126.746 599.437 126.81Z" fill="#FF855A"/>
<path d="M592.4 122.887C586.221 124.522 581.852 124.295 577.782 122.789C578.436 119.097 580.696 113.822 587.578 113.67C592.338 109.301 597.936 110.833 599.48 111.334C603.509 112.645 606.152 115.101 608.301 118.719C611.789 124.594 612.521 133.505 612.456 138.441C607.084 139.911 602.582 140.679 599.117 140.878C599.269 140.883 596.997 126.105 592.4 122.887Z" fill="#212237"/>
<path d="M596.012 130.184C595.944 129.896 596.125 128.979 596.989 128.458C598.513 127.542 599.958 129.346 600.113 130.991C600.209 132.024 600.024 132.888 599.494 133.82C598.797 135.047 597.644 135.536 596.712 134.41" fill="#F777BA"/>
<path d="M586.743 129.514C586.743 129.514 585.477 133.685 585.974 134.6C586.473 135.514 588.829 134.957 588.829 134.957" stroke="#CC328A" stroke-width="0.666667" stroke-miterlimit="10" stroke-linejoin="round"/>
<path d="M586.631 136.896L593.229 135.948C593.229 135.948 592.966 139.571 589.307 139.843C586.698 140.036 586.631 136.896 586.631 136.896Z" fill="white"/>
<path d="M583.794 129.04C583.749 129.378 583.721 129.711 583.72 130.052C583.717 130.73 584.788 130.73 584.772 130.052C584.764 129.711 584.732 129.376 584.678 129.04C584.61 128.607 583.856 128.599 583.794 129.04Z" fill="#00276F"/>
<path d="M585.445 127.075C585.445 127.075 584.093 126.047 582.984 127.483" stroke="#00276F" stroke-width="0.666667" stroke-miterlimit="10" stroke-linecap="round" stroke-linejoin="round"/>
<path d="M591.486 128.762C591.462 129.058 591.462 129.353 591.478 129.65C591.514 130.326 592.584 130.321 592.53 129.65C592.502 129.312 592.458 128.973 592.386 128.64C592.27 128.106 591.524 128.274 591.486 128.762Z" fill="#00276F"/>
<path d="M590.531 126.394C590.531 126.394 591.929 125.415 594.069 126.782" stroke="#00276F" stroke-width="0.666667" stroke-miterlimit="10" stroke-linecap="round" stroke-linejoin="round"/>
<path d="M584.013 184.073C563.057 213.182 520.265 239.346 520.265 239.346L511.437 228.166C511.437 228.166 543.501 201.292 562.768 170.437" fill="#F777BA"/>
<path d="M515.203 225.196C511.276 228.617 498.115 236.716 498.402 237.739C498.69 238.76 503.36 235.971 503.431 236.847C503.503 237.723 496.639 242.484 497.212 243.441C497.99 244.74 504.731 239.5 504.731 239.5C504.731 239.5 497.663 245.596 498.676 246.548C499.395 247.223 505.023 242.812 507.407 241.388C505.043 243.247 501.606 246.701 502.364 247.388C503.119 248.068 507.02 245.144 510.143 243.059C508.331 244.536 505.191 247.397 505.862 248.061C506.532 248.724 516.568 242.253 525.751 235.805" fill="#F777BA"/>
<path d="M505.116 236.738C505.116 236.738 510.215 236.861 512.36 235.797" stroke="#CC328A" stroke-miterlimit="10" stroke-linejoin="round"/>
<path d="M588.526 147.145C579.375 145.499 571.209 152.042 567.639 157.729C560.455 169.167 556.521 178.21 556.521 178.21L578.069 191.19L590.33 152.637" fill="#FF9357"/>
<path d="M588.526 147.145C592.794 147.927 593.826 149.454 596.849 148.497C602.29 146.774 606.437 144.005 606.437 144.005C602.877 144.246 618.082 147.01 629.707 159.283C633.617 172.727 634.07 186.103 635.198 221.611C606.247 230.973 581.067 223.111 581.067 223.111C581.067 223.111 577.782 207.626 574.011 196.155C568.775 185.591 571.047 173.75 576.899 164.074C577.089 158.195 588.526 147.145 588.526 147.145Z" fill="#FF9357"/>
<path d="M606.026 140.348L596.15 148.716L602.465 155.441L609.014 145.5L606.026 140.348Z" fill="white"/>
<path d="M596.15 148.715L590.558 144.329L588.526 147.145L591.207 155.241L596.15 148.715Z" fill="white"/>
<path d="M571.078 184.149C570.727 177.293 574.782 166.657 574.782 166.657" stroke="#A52F2D" stroke-miterlimit="10"/>
<path d="M678.937 593.786C678.525 593.786 678.112 593.772 677.695 593.742L535.719 583.704C526.153 583.026 518.921 574.693 519.597 565.128L522.553 523.334C522.74 520.702 524.875 518.717 527.521 518.717C528.789 518.717 530.004 519.206 530.944 520.094C535.304 524.212 540.623 526.601 546.321 527.005C546.895 527.045 547.465 527.065 548.032 527.065C562.425 527.065 574.611 514.192 575.773 497.758C576.988 480.568 565.753 465.718 550.732 464.656C550.16 464.616 549.592 464.596 549.027 464.596C543.928 464.596 538.916 466.234 534.533 469.333C533.672 469.942 532.675 470.264 531.647 470.264C530.263 470.264 528.924 469.682 527.977 468.665C527.043 467.662 526.581 466.341 526.681 464.946L529.636 423.152C530.279 414.088 537.891 406.986 546.965 406.986C547.377 406.986 547.795 407.001 548.211 407.032L591.393 410.085C593.403 410.226 595.067 411.494 595.739 413.396C596.404 415.285 595.909 417.305 594.444 418.665C589.581 423.18 586.663 429.106 586.221 435.353C585.159 450.376 598.28 463.588 615.468 464.804C616.317 464.864 617.177 464.893 618.023 464.893C634.156 464.893 647.575 453.854 648.571 439.761C649.012 433.516 646.955 427.237 642.779 422.082C641.568 420.588 641.331 418.581 642.159 416.845C642.995 415.092 644.708 414.004 646.632 414.004C646.755 414.004 646.88 414.008 647.005 414.017L690.188 417.07C699.752 417.746 706.984 426.078 706.308 435.645L696.269 577.621C695.628 586.686 688.015 593.786 678.939 593.786H678.937Z" fill="#83A3FC"/>
<path d="M546.969 405.987C537.369 405.986 529.318 413.495 528.639 423.082L525.683 464.875C525.565 466.551 526.119 468.138 527.246 469.347C528.382 470.567 529.986 471.266 531.647 471.266C532.882 471.266 534.079 470.879 535.11 470.15C539.325 467.171 544.135 465.596 549.027 465.596C549.569 465.596 550.118 465.616 550.661 465.654C565.134 466.678 575.951 481.047 574.774 497.686C573.65 513.6 561.903 526.066 548.033 526.066C547.489 526.066 546.938 526.046 546.393 526.008C540.926 525.622 535.822 523.326 531.63 519.368C530.503 518.303 529.045 517.718 527.522 517.718C524.343 517.718 521.778 520.102 521.554 523.263L518.601 565.058C517.885 575.174 525.533 583.984 535.649 584.7L677.623 594.739C678.061 594.771 678.502 594.787 678.938 594.787C688.538 594.787 696.589 587.278 697.267 577.691L707.306 435.715C708.021 425.599 700.374 416.788 690.258 416.072L647.075 413.019C646.927 413.01 646.778 413.004 646.633 413.004C644.319 413.004 642.259 414.311 641.255 416.415C640.261 418.503 640.546 420.915 642.001 422.712C646.075 427.74 648.002 433.612 647.573 439.691C646.613 453.263 633.634 463.894 618.023 463.894C617.202 463.894 616.366 463.863 615.541 463.806C607.431 463.232 600.014 459.932 594.658 454.514C589.369 449.164 586.726 442.386 587.218 435.423C587.649 429.346 590.383 423.803 595.123 419.398C596.886 417.76 597.482 415.335 596.681 413.064C595.877 410.782 593.878 409.258 591.465 409.087L548.282 406.034C547.846 406.003 547.403 405.987 546.969 405.987ZM546.969 407.987C547.357 407.987 547.749 408 548.142 408.028L591.323 411.082C594.777 411.326 596.299 415.575 593.763 417.932C588.874 422.474 585.703 428.499 585.223 435.283C584.121 450.88 597.63 464.544 615.398 465.8C616.279 465.863 617.155 465.894 618.023 465.894C634.65 465.894 648.519 454.656 649.567 439.832C650.047 433.048 647.757 426.638 643.555 421.454C641.441 418.842 643.359 415.004 646.633 415.004C646.731 415.004 646.833 415.007 646.935 415.015L690.117 418.068C699.147 418.706 705.949 426.544 705.311 435.574L695.273 577.551C694.662 586.187 687.465 592.787 678.938 592.787C678.55 592.787 678.158 592.772 677.766 592.744L535.789 582.706C526.759 582.067 519.957 574.23 520.595 565.198L523.551 523.404C523.71 521.15 525.573 519.718 527.522 519.718C528.477 519.718 529.451 520.063 530.258 520.822C534.613 524.935 540.121 527.57 546.251 528.003C546.849 528.044 547.442 528.066 548.033 528.066C562.878 528.066 575.562 514.915 576.771 497.828C578.026 480.06 566.399 464.762 550.802 463.659C550.207 463.618 549.615 463.596 549.027 463.596C543.55 463.596 538.374 465.394 533.957 468.516C533.226 469.032 532.426 469.266 531.647 469.266C529.491 469.266 527.503 467.484 527.678 465.016L530.634 423.223C531.245 414.586 538.441 407.986 546.969 407.987Z" fill="white"/>
<g opacity="0.190002">
<g opacity="0.190002">
<path opacity="0.190002" d="M738.753 636.543C733.122 681.003 692.515 712.48 648.057 706.85C603.597 701.219 572.118 660.614 577.749 616.154C583.379 571.692 623.986 540.216 668.446 545.847C712.905 551.476 744.383 592.083 738.753 636.543Z" stroke="#91ABE5" stroke-width="14.6667" stroke-miterlimit="10"/>
</g>
<g opacity="0.190002">
<path opacity="0.190002" d="M707.644 630.891C704.086 658.983 678.43 678.872 650.338 675.315C622.245 671.756 602.355 646.1 605.912 618.008C609.471 589.916 635.127 570.027 663.22 573.585C691.312 577.141 711.202 602.799 707.644 630.891Z" stroke="#91ABE5" stroke-width="14.6667" stroke-miterlimit="10"/>
</g>
<g opacity="0.190002">
<path opacity="0.190002" d="M684.875 629.72C683.014 644.424 669.583 654.835 654.879 652.972C640.175 651.109 629.764 637.681 631.626 622.976C633.488 608.272 646.918 597.861 661.623 599.724C676.327 601.585 686.736 615.016 684.875 629.72Z" stroke="#91ABE5" stroke-width="14.6667" stroke-miterlimit="10"/>
</g>
</g>
<path d="M477.019 404.172C476.292 404.172 475.555 404.125 474.828 404.033L431.68 398.609C429.674 398.359 428.079 396.993 427.519 395.049C426.962 393.115 427.582 391.121 429.138 389.848C434.348 385.583 437.654 379.761 438.446 373.46C439.352 366.247 436.998 359.053 431.814 353.205C426.598 347.321 419.151 343.507 410.844 342.463C409.354 342.275 407.844 342.18 406.356 342.18C390.979 342.18 378.112 352.276 376.43 365.665C375.636 371.968 377.399 378.424 381.392 383.847C382.522 385.38 382.684 387.311 381.826 389.007C380.971 390.697 379.279 391.748 377.411 391.748C377.198 391.748 376.98 391.733 376.759 391.705L333.61 386.283C329.002 385.703 324.894 383.364 322.044 379.696C319.195 376.027 317.944 371.468 318.524 366.859L336.275 225.639C337.366 216.96 344.775 210.416 353.51 210.416C354.236 210.416 354.974 210.461 355.7 210.553L496.919 228.304C501.527 228.883 505.635 231.223 508.484 234.892C511.335 238.56 512.584 243.119 512.006 247.728L506.671 290.171C506.352 292.7 504.264 294.535 501.703 294.535C500.276 294.535 498.966 293.933 498.015 292.84C493.763 287.96 488.302 284.976 482.222 284.212C481.223 284.087 480.208 284.023 479.207 284.023C465.244 284.023 453.215 295.969 451.224 311.813C449.075 328.911 459.484 344.349 474.428 346.228C475.422 346.353 476.432 346.417 477.43 346.417C482.474 346.417 487.464 344.811 491.863 341.775C492.699 341.199 493.662 340.893 494.647 340.893C496.074 340.893 497.442 341.517 498.4 342.603C499.348 343.677 499.77 345.063 499.59 346.504L494.254 388.947C493.163 397.627 485.754 404.172 477.019 404.172Z" fill="#FFC7CA"/>
<path d="M353.51 209.415V211.415V209.415C344.272 209.415 336.436 216.335 335.283 225.515L317.532 366.733C316.267 376.796 323.424 386.011 333.486 387.275L376.635 392.697C376.894 392.731 377.154 392.748 377.41 392.748C379.658 392.748 381.692 391.487 382.718 389.457C383.734 387.448 383.535 385.071 382.198 383.253C378.358 378.037 376.662 371.836 377.422 365.791C379.042 352.9 391.482 343.18 406.356 343.18C407.802 343.18 409.27 343.272 410.719 343.455C427.27 345.535 439.263 358.94 437.454 373.336C436.694 379.381 433.515 384.971 428.504 389.075C426.634 390.605 425.888 393.001 426.558 395.325C427.231 397.66 429.146 399.299 431.555 399.601L474.704 405.025C475.472 405.123 476.251 405.171 477.019 405.171C486.256 405.171 494.092 398.249 495.246 389.072L500.582 346.629C500.799 344.899 500.29 343.235 499.15 341.941C498.002 340.639 496.36 339.893 494.647 339.893C493.458 339.893 492.298 340.259 491.295 340.952C487.064 343.872 482.27 345.415 477.431 345.415C476.475 345.415 475.507 345.356 474.552 345.236C467.627 344.364 461.49 340.456 457.271 334.228C452.998 327.919 451.203 320.003 452.216 311.937C454.146 296.593 465.748 285.023 479.207 285.023C480.167 285.023 481.14 285.083 482.098 285.204C487.93 285.937 493.172 288.804 497.26 293.497C498.404 294.811 499.983 295.535 501.704 295.535C504.726 295.535 507.287 293.283 507.663 290.296L512.998 247.852C513.61 242.979 512.287 238.157 509.275 234.277C506.26 230.397 501.916 227.924 497.043 227.311L355.824 209.56C355.058 209.464 354.279 209.415 353.51 209.415ZM353.51 211.415C354.191 211.415 354.882 211.457 355.575 211.545L496.794 229.296C505.776 230.424 512.142 238.621 511.012 247.603L505.676 290.045C505.404 292.212 503.575 293.535 501.704 293.535C500.648 293.535 499.578 293.113 498.768 292.184C494.542 287.332 488.87 284.039 482.347 283.219C481.294 283.087 480.247 283.023 479.207 283.023C464.936 283.023 452.302 295.216 450.232 311.688C448.01 329.361 458.787 345.269 474.303 347.22C475.352 347.352 476.396 347.415 477.431 347.415C482.83 347.415 487.988 345.664 492.431 342.597C493.136 342.111 493.902 341.893 494.647 341.893C496.874 341.893 498.916 343.84 498.596 346.379L493.262 388.821C492.22 397.111 485.162 403.171 477.019 403.171C476.338 403.171 475.648 403.129 474.954 403.041L431.804 397.617C428.351 397.184 427.078 392.827 429.771 390.621C435.008 386.335 438.578 380.42 439.438 373.584C441.388 358.071 428.642 343.692 410.968 341.471C409.414 341.275 407.875 341.18 406.356 341.18C390.607 341.18 377.215 351.389 375.436 365.54C374.578 372.376 376.574 378.989 380.587 384.439C382.543 387.097 380.566 390.748 377.41 390.748C377.238 390.748 377.063 390.737 376.884 390.713L333.735 385.291C324.754 384.161 318.387 375.965 319.516 366.983L337.267 225.764C338.31 217.475 345.368 211.415 353.51 211.415Z" fill="white"/>
<g opacity="0.25">
<g opacity="0.25">
<path opacity="0.25" d="M417.876 227.44C417.876 272.255 381.545 308.585 336.73 308.585C291.916 308.585 255.586 272.255 255.586 227.44C255.586 182.625 291.916 146.296 336.73 146.296C381.545 146.296 417.876 182.625 417.876 227.44Z" stroke="white" stroke-width="14.6667" stroke-miterlimit="10"/>
</g>
<g opacity="0.25">
<path opacity="0.25" d="M390.323 225.742C390.323 256.278 365.568 281.032 335.032 281.032C304.495 281.032 279.74 256.278 279.74 225.742C279.74 195.206 304.495 170.451 335.032 170.451C365.568 170.451 390.323 195.206 390.323 225.742Z" stroke="white" stroke-width="14.6667" stroke-miterlimit="10"/>
</g>
<g opacity="0.25">
<path opacity="0.25" d="M363.568 227.44C363.568 242.261 351.552 254.277 336.73 254.277C321.909 254.277 309.894 242.261 309.894 227.44C309.894 212.619 321.909 200.604 336.73 200.604C351.552 200.604 363.568 212.619 363.568 227.44Z" stroke="white" stroke-width="14.6667" stroke-miterlimit="10"/>
</g>
</g>
<path d="M606.207 448.655C597.348 448.563 589.047 445.443 582.831 439.87C576.578 434.264 573.179 426.851 573.26 418.998C573.332 412.106 576.168 405.439 581.246 400.226C582.246 399.198 582.216 397.904 581.854 397.034C581.49 396.156 580.584 395.215 579.136 395.199L535.598 394.747C530.952 394.699 526.603 392.846 523.352 389.526C520.103 386.207 518.339 381.822 518.387 377.176L518.824 335.054C518.835 334.02 518.371 333.332 517.979 332.936C517.408 332.36 516.626 332.031 515.83 332.031C515.166 332.031 514.532 332.263 513.999 332.702C508.964 336.846 503.014 339.035 496.79 339.035L496.516 339.034C488.663 338.954 481.322 335.402 475.847 329.032C470.404 322.702 467.458 314.336 467.55 305.479C467.738 287.312 480.92 272.532 496.934 272.532L497.207 272.534C503.53 272.599 509.53 274.914 514.555 279.228C515.095 279.692 515.743 279.938 516.43 279.938C517.856 279.936 519.407 278.806 519.427 276.978L519.864 234.854C519.963 225.363 527.763 217.643 537.251 217.643L679.758 219.122C684.402 219.17 688.751 221.023 692.003 224.343C695.252 227.662 697.015 232.047 696.967 236.692L695.491 379.015C695.392 388.504 687.592 396.226 678.106 396.226L634.379 395.772C632.908 395.772 631.995 396.698 631.619 397.566C631.135 398.678 631.342 399.87 632.168 400.755C637.136 406.072 639.834 412.795 639.762 419.687C639.595 435.662 624.723 448.658 606.607 448.658L606.207 448.655Z" fill="#B5C8F7"/>
<path d="M537.251 216.643C527.218 216.643 518.969 224.808 518.865 234.843L518.427 276.967C518.414 278.2 517.402 278.937 516.43 278.937C515.979 278.937 515.567 278.78 515.206 278.469C510.002 274 503.779 271.601 497.218 271.533L496.934 271.532C480.374 271.532 466.745 286.756 466.55 305.469C466.354 324.355 479.793 339.861 496.506 340.033L496.79 340.035C503.249 340.035 509.419 337.767 514.635 333.473C514.993 333.18 515.394 333.031 515.83 333.031C516.361 333.031 516.886 333.253 517.269 333.64C517.526 333.9 517.833 334.355 517.825 335.043L517.387 377.165C517.282 387.307 525.446 395.643 535.587 395.748L579.126 396.199C580.335 396.212 580.814 397.135 580.931 397.417C581.047 397.697 581.362 398.673 580.529 399.528C575.271 404.925 572.334 411.837 572.261 418.987C572.087 435.701 587.31 449.46 606.197 449.655L606.606 449.657C625.269 449.657 640.59 436.217 640.761 419.699C640.835 412.548 638.043 405.579 632.898 400.072C632.089 399.204 632.415 398.239 632.535 397.963C632.657 397.684 633.146 396.772 634.345 396.772L677.909 397.224L678.105 397.225C688.138 397.225 696.387 389.061 696.491 379.025L697.967 236.703C698.073 226.561 689.909 218.227 679.769 218.121L537.446 216.644L537.251 216.643ZM537.251 218.643C537.309 218.643 537.367 218.643 537.426 218.644L679.747 220.121C688.799 220.215 696.062 227.629 695.967 236.681L694.491 379.004C694.397 387.999 687.077 395.225 678.105 395.225C678.047 395.225 677.987 395.225 677.93 395.224L634.39 394.772H634.345C630.89 394.772 629.067 398.901 631.437 401.437C636.075 406.401 638.834 412.764 638.761 419.677C638.601 435.2 624.241 447.657 606.606 447.657C606.477 447.657 606.346 447.657 606.217 447.656C588.405 447.471 574.098 434.644 574.261 419.008C574.333 412.095 577.222 405.791 581.962 400.923C584.393 398.427 582.633 394.236 579.147 394.199L535.609 393.748C526.555 393.653 519.293 386.239 519.387 377.187L519.825 335.063C519.849 332.683 517.893 331.031 515.83 331.031C514.983 331.031 514.117 331.309 513.363 331.929C508.697 335.771 502.971 338.035 496.79 338.035C496.702 338.035 496.614 338.035 496.527 338.033C480.89 337.871 468.365 323.301 468.55 305.489C468.733 287.779 481.417 273.532 496.934 273.532C497.021 273.532 497.11 273.532 497.197 273.533C503.478 273.599 509.251 275.993 513.902 279.987C514.669 280.643 515.557 280.937 516.43 280.937C518.465 280.937 520.402 279.337 520.427 276.988L520.865 234.864C520.958 225.869 528.278 218.643 537.251 218.643Z" fill="white"/>
<path d="M472.934 244.884C470.846 245.236 468.868 243.828 468.516 241.74C468.162 239.651 469.57 237.672 471.658 237.32C473.748 236.968 475.726 238.376 476.078 240.464C476.432 242.552 475.024 244.532 472.934 244.884Z" fill="white"/>
<path d="M508.602 238.868C506.514 239.22 504.534 237.812 504.182 235.724C503.83 233.636 505.238 231.656 507.326 231.304C509.414 230.952 511.394 232.36 511.744 234.448C512.098 236.536 510.69 238.516 508.602 238.868Z" fill="white"/>
<path d="M544.268 232.852C542.18 233.204 540.2 231.796 539.848 229.708C539.496 227.62 540.904 225.64 542.992 225.288C545.08 224.936 547.06 226.344 547.411 228.432C547.764 230.52 546.356 232.5 544.268 232.852Z" fill="white"/>
<path d="M579.935 226.835C577.846 227.187 575.867 225.779 575.515 223.691C575.163 221.603 576.571 219.623 578.659 219.271C580.747 218.919 582.726 220.327 583.078 222.415C583.431 224.503 582.023 226.483 579.935 226.835Z" fill="white"/>
<path d="M615.6 220.819C613.512 221.171 611.534 219.763 611.182 217.675C610.83 215.587 612.238 213.607 614.326 213.255C616.414 212.903 618.392 214.311 618.744 216.399C619.098 218.487 617.69 220.467 615.6 220.819Z" fill="white"/>
<path d="M651.267 214.803C649.179 215.155 647.2 213.747 646.848 211.659C646.496 209.571 647.903 207.591 649.992 207.239C652.08 206.887 654.059 208.295 654.411 210.383C654.763 212.471 653.355 214.451 651.267 214.803Z" fill="white"/>
<path d="M686.934 208.786C684.846 209.138 682.867 207.73 682.515 205.642C682.162 203.554 683.57 201.574 685.658 201.222C687.747 200.87 689.726 202.278 690.078 204.366C690.43 206.454 689.022 208.434 686.934 208.786Z" fill="white"/>
<path d="M477.874 274.166C475.786 274.519 473.807 273.111 473.455 271.022C473.102 268.934 474.51 266.955 476.598 266.603C478.687 266.25 480.666 267.658 481.018 269.747C481.371 271.835 479.962 273.814 477.874 274.166Z" fill="white"/>
<path d="M513.54 268.15C511.452 268.503 509.472 267.095 509.122 265.006C508.768 262.918 510.176 260.939 512.264 260.587C514.352 260.234 516.332 261.642 516.684 263.731C517.036 265.819 515.628 267.798 513.54 268.15Z" fill="white"/>
<path d="M549.207 262.133C547.119 262.487 545.139 261.079 544.788 258.989C544.435 256.901 545.843 254.923 547.931 254.571C550.019 254.217 551.999 255.625 552.351 257.715C552.703 259.803 551.295 261.781 549.207 262.133Z" fill="white"/>
<path d="M584.874 256.118C582.786 256.47 580.806 255.062 580.455 252.974C580.102 250.885 581.51 248.906 583.598 248.554C585.686 248.202 587.666 249.61 588.018 251.698C588.37 253.786 586.962 255.765 584.874 256.118Z" fill="white"/>
<path d="M620.54 250.102C618.452 250.454 616.472 249.046 616.122 246.958C615.768 244.868 617.176 242.89 619.264 242.538C621.352 242.186 623.332 243.594 623.683 245.682C624.036 247.77 622.628 249.748 620.54 250.102Z" fill="white"/>
<path d="M656.207 244.085C654.119 244.437 652.139 243.029 651.787 240.941C651.435 238.852 652.843 236.873 654.931 236.521C657.019 236.169 658.999 237.577 659.35 239.665C659.703 241.753 658.295 243.732 656.207 244.085Z" fill="white"/>
<path d="M691.874 238.069C689.786 238.421 687.806 237.013 687.454 234.925C687.102 232.837 688.51 230.857 690.598 230.505C692.686 230.153 694.666 231.561 695.016 233.649C695.37 235.737 693.962 237.716 691.874 238.069Z" fill="white"/>
<path d="M482.813 303.448C480.725 303.8 478.747 302.392 478.395 300.304C478.041 298.216 479.449 296.238 481.537 295.886C483.627 295.532 485.605 296.94 485.957 299.03C486.309 301.118 484.901 303.096 482.813 303.448Z" fill="white"/>
<path d="M518.481 297.432C516.393 297.784 514.413 296.376 514.061 294.288C513.709 292.2 515.117 290.222 517.205 289.87C519.293 289.516 521.271 290.924 521.623 293.014C521.977 295.102 520.569 297.08 518.481 297.432Z" fill="white"/>
<path d="M554.147 291.416C552.058 291.768 550.079 290.36 549.727 288.272C549.375 286.184 550.783 284.205 552.871 283.853C554.959 283.5 556.938 284.908 557.29 286.997C557.643 289.085 556.235 291.064 554.147 291.416Z" fill="white"/>
<path d="M589.812 285.4C587.724 285.752 585.746 284.344 585.394 282.256C585.042 280.168 586.448 278.189 588.538 277.837C590.626 277.484 592.604 278.892 592.956 280.981C593.308 283.069 591.902 285.048 589.812 285.4Z" fill="white"/>
<path d="M625.479 279.383C623.391 279.735 621.413 278.327 621.061 276.239C620.707 274.151 622.115 272.173 624.203 271.821C626.293 271.467 628.271 272.875 628.623 274.965C628.975 277.053 627.567 279.031 625.479 279.383Z" fill="white"/>
<path d="M661.146 273.367C659.058 273.721 657.079 272.311 656.727 270.223C656.374 268.135 657.782 266.157 659.87 265.805C661.958 265.451 663.938 266.859 664.29 268.949C664.642 271.037 663.234 273.015 661.146 273.367Z" fill="white"/>
<path d="M696.812 267.351C694.724 267.704 692.744 266.295 692.394 264.207C692.04 262.119 693.448 260.14 695.536 259.788C697.624 259.435 699.604 260.843 699.956 262.932C700.308 265.02 698.9 266.999 696.812 267.351Z" fill="white"/>
<path d="M487.753 332.731C485.665 333.083 483.686 331.675 483.333 329.587C482.981 327.499 484.389 325.52 486.477 325.167C488.566 324.815 490.545 326.223 490.897 328.311C491.249 330.4 489.841 332.379 487.753 332.731Z" fill="white"/>
<path d="M523.419 326.715C521.331 327.067 519.351 325.659 519.001 323.571C518.647 321.483 520.055 319.504 522.143 319.151C524.231 318.799 526.211 320.207 526.563 322.295C526.915 324.384 525.507 326.363 523.419 326.715Z" fill="white"/>
<path d="M559.086 320.698C556.998 321.05 555.018 319.642 554.667 317.554C554.314 315.466 555.722 313.488 557.81 313.134C559.898 312.782 561.878 314.19 562.229 316.278C562.582 318.368 561.174 320.346 559.086 320.698Z" fill="white"/>
<path d="M594.753 314.682C592.665 315.034 590.685 313.626 590.333 311.538C589.981 309.45 591.389 307.472 593.477 307.118C595.565 306.766 597.545 308.174 597.895 310.262C598.249 312.352 596.841 314.33 594.753 314.682Z" fill="white"/>
<path d="M630.419 308.666C628.331 309.018 626.351 307.61 625.999 305.522C625.647 303.434 627.055 301.455 629.143 301.102C631.231 300.75 633.211 302.158 633.562 304.246C633.915 306.335 632.507 308.314 630.419 308.666Z" fill="white"/>
<path d="M666.086 302.65C663.998 303.002 662.018 301.594 661.666 299.506C661.314 297.418 662.722 295.439 664.81 295.087C666.898 294.734 668.878 296.142 669.229 298.23C669.582 300.319 668.174 302.298 666.086 302.65Z" fill="white"/>
<path d="M701.753 296.633C699.665 296.985 697.685 295.577 697.333 293.489C696.981 291.401 698.389 289.423 700.477 289.071C702.565 288.717 704.545 290.125 704.895 292.213C705.249 294.303 703.841 296.281 701.753 296.633Z" fill="white"/>
<path d="M492.692 362.013C490.604 362.366 488.624 360.958 488.272 358.87C487.92 356.781 489.328 354.802 491.416 354.45C493.505 354.097 495.484 355.505 495.836 357.594C496.188 359.682 494.78 361.661 492.692 362.013Z" fill="white"/>
<path d="M528.358 355.997C526.27 356.349 524.291 354.943 523.939 352.853C523.587 350.764 524.995 348.787 527.083 348.433C529.171 348.081 531.15 349.489 531.502 351.579C531.854 353.667 530.447 355.644 528.358 355.997Z" fill="white"/>
<path d="M564.025 349.981C561.937 350.334 559.958 348.926 559.606 346.838C559.253 344.749 560.661 342.77 562.75 342.418C564.838 342.065 566.817 343.473 567.169 345.562C567.521 347.65 566.113 349.629 564.025 349.981Z" fill="white"/>
<path d="M599.691 343.965C597.603 344.318 595.625 342.91 595.273 340.821C594.919 338.731 596.327 336.754 598.415 336.401C600.505 336.049 602.483 337.457 602.835 339.546C603.187 341.634 601.779 343.611 599.691 343.965Z" fill="white"/>
<path d="M635.358 337.948C633.27 338.301 631.29 336.893 630.939 334.805C630.586 332.716 631.994 330.737 634.082 330.385C636.17 330.032 638.15 331.44 638.502 333.529C638.854 335.617 637.446 337.596 635.358 337.948Z" fill="white"/>
<path d="M671.025 331.932C668.937 332.284 666.957 330.876 666.606 328.788C666.253 326.7 667.661 324.72 669.749 324.368C671.837 324.016 673.817 325.424 674.169 327.512C674.521 329.6 673.113 331.58 671.025 331.932Z" fill="white"/>
<path d="M706.691 325.916C704.603 326.268 702.623 324.86 702.273 322.772C701.919 320.684 703.327 318.704 705.415 318.352C707.503 318 709.483 319.408 709.835 321.496C710.187 323.584 708.779 325.564 706.691 325.916Z" fill="white"/>
<path d="M497.631 391.296C495.543 391.649 493.563 390.241 493.211 388.153C492.859 386.064 494.267 384.085 496.355 383.732C498.443 383.38 500.423 384.788 500.775 386.877C501.127 388.965 499.719 390.944 497.631 391.296Z" fill="white"/>
<path d="M533.298 385.28C531.21 385.632 529.23 384.224 528.879 382.136C528.526 380.047 529.934 378.069 532.022 377.716C534.11 377.364 536.09 378.771 536.441 380.86C536.794 382.949 535.386 384.927 533.298 385.28Z" fill="white"/>
<path d="M568.965 379.263C566.877 379.616 564.897 378.208 564.546 376.12C564.193 374.031 565.601 372.052 567.689 371.699C569.777 371.347 571.757 372.755 572.107 374.844C572.461 376.932 571.053 378.911 568.965 379.263Z" fill="white"/>
<path d="M604.631 373.247C602.543 373.599 600.563 372.191 600.211 370.103C599.859 368.014 601.267 366.037 603.355 365.683C605.443 365.331 607.423 366.739 607.774 368.827C608.127 370.917 606.719 372.894 604.631 373.247Z" fill="white"/>
<path d="M640.298 367.231C638.21 367.584 636.23 366.176 635.878 364.088C635.526 361.999 636.934 360.02 639.022 359.668C641.11 359.315 643.09 360.723 643.441 362.812C643.794 364.9 642.386 366.879 640.298 367.231Z" fill="white"/>
<path d="M675.965 361.215C673.877 361.567 671.897 360.159 671.545 358.071C671.193 355.981 672.601 354.004 674.689 353.651C676.777 353.299 678.755 354.707 679.107 356.796C679.461 358.884 678.053 360.861 675.965 361.215Z" fill="white"/>
<path d="M711.631 355.198C709.542 355.551 707.563 354.143 707.211 352.055C706.859 349.966 708.267 347.987 710.355 347.635C712.443 347.282 714.422 348.69 714.774 350.779C715.127 352.867 713.719 354.846 711.631 355.198Z" fill="white"/>
<path d="M502.57 420.578C500.482 420.931 498.504 419.523 498.152 417.435C497.798 415.346 499.206 413.367 501.294 413.014C503.384 412.662 505.362 414.07 505.714 416.159C506.068 418.247 504.658 420.226 502.57 420.578Z" fill="white"/>
<path d="M538.237 414.563C536.149 414.915 534.17 413.507 533.818 411.419C533.465 409.329 534.873 407.352 536.962 406.999C539.05 406.647 541.029 408.053 541.381 410.143C541.733 412.231 540.325 414.209 538.237 414.563Z" fill="white"/>
<path d="M573.904 408.546C571.816 408.899 569.836 407.491 569.485 405.403C569.132 403.314 570.54 401.335 572.628 400.982C574.716 400.63 576.696 402.038 577.048 404.127C577.4 406.215 575.992 408.194 573.904 408.546Z" fill="white"/>
<path d="M609.57 402.53C607.482 402.882 605.502 401.474 605.152 399.386C604.798 397.297 606.206 395.319 608.294 394.966C610.382 394.614 612.362 396.021 612.714 398.11C613.066 400.198 611.658 402.177 609.57 402.53Z" fill="white"/>
<path d="M645.237 396.513C643.149 396.866 641.169 395.458 640.818 393.37C640.465 391.281 641.873 389.302 643.961 388.949C646.049 388.597 648.029 390.005 648.381 392.094C648.733 394.182 647.325 396.161 645.237 396.513Z" fill="white"/>
<path d="M680.904 390.497C678.816 390.849 676.836 389.441 676.485 387.353C676.132 385.264 677.54 383.287 679.628 382.933C681.716 382.581 683.696 383.988 684.048 386.077C684.4 388.165 682.992 390.144 680.904 390.497Z" fill="white"/>
<path d="M716.57 384.481C714.482 384.834 712.502 383.426 712.152 381.338C711.798 379.249 713.206 377.27 715.294 376.917C717.382 376.565 719.362 377.973 719.713 380.062C720.066 382.15 718.658 384.129 716.57 384.481Z" fill="white"/>
<path d="M507.51 449.861C505.422 450.214 503.442 448.806 503.092 446.718C502.738 444.629 504.146 442.65 506.234 442.297C508.322 441.945 510.302 443.353 510.653 445.442C511.006 447.53 509.598 449.509 507.51 449.861Z" fill="white"/>
<path d="M543.177 443.845C541.089 444.197 539.109 442.789 538.757 440.701C538.405 438.612 539.813 436.633 541.901 436.281C543.989 435.929 545.969 437.336 546.32 439.425C546.673 441.513 545.265 443.492 543.177 443.845Z" fill="white"/>
<path d="M578.844 437.828C576.756 438.181 574.776 436.773 574.424 434.685C574.072 432.596 575.48 430.617 577.568 430.264C579.656 429.912 581.636 431.32 581.986 433.409C582.34 435.497 580.932 437.476 578.844 437.828Z" fill="white"/>
<path d="M614.51 431.813C612.422 432.165 610.442 430.757 610.09 428.669C609.738 426.579 611.146 424.601 613.234 424.249C615.322 423.897 617.302 425.303 617.653 427.393C618.006 429.481 616.598 431.459 614.51 431.813Z" fill="white"/>
<path d="M650.177 425.796C648.088 426.149 646.109 424.741 645.757 422.653C645.405 420.564 646.813 418.585 648.901 418.232C650.989 417.88 652.969 419.288 653.32 421.377C653.673 423.465 652.265 425.444 650.177 425.796Z" fill="white"/>
<path d="M685.842 419.78C683.754 420.132 681.776 418.724 681.424 416.636C681.072 414.547 682.48 412.568 684.568 412.216C686.656 411.864 688.634 413.271 688.986 415.36C689.34 417.448 687.932 419.427 685.842 419.78Z" fill="white"/>
<path d="M721.509 413.763C719.421 414.116 717.442 412.708 717.09 410.62C716.737 408.531 718.146 406.552 720.234 406.199C722.322 405.847 724.301 407.255 724.653 409.344C725.005 411.432 723.597 413.411 721.509 413.763Z" fill="white"/>
<g opacity="0.350006">
<g opacity="0.350006">
<path opacity="0.350006" d="M245.975 534.521C243.92 535.034 241.837 533.783 241.325 531.727C240.812 529.673 242.063 527.591 244.117 527.079C246.173 526.566 248.255 527.817 248.768 529.871C249.28 531.927 248.031 534.009 245.975 534.521Z" fill="white"/>
</g>
<g opacity="0.350006">
<path opacity="0.350006" d="M281.07 525.766C279.014 526.279 276.932 525.028 276.42 522.974C275.907 520.918 277.158 518.838 279.212 518.324C281.268 517.811 283.35 519.062 283.863 521.118C284.375 523.172 283.126 525.254 281.07 525.766Z" fill="white"/>
</g>
<g opacity="0.350006">
<path opacity="0.350006" d="M316.165 517.012C314.109 517.524 312.027 516.273 311.515 514.218C311.002 512.162 312.253 510.082 314.307 509.569C316.363 509.056 318.445 510.308 318.958 512.362C319.47 514.417 318.221 516.498 316.165 517.012Z" fill="white"/>
</g>
<g opacity="0.350006">
<path opacity="0.350006" d="M351.26 508.257C349.204 508.77 347.122 507.518 346.61 505.463C346.097 503.409 347.348 501.327 349.402 500.814C351.457 500.301 353.54 501.553 354.052 503.607C354.565 505.663 353.314 507.743 351.26 508.257Z" fill="white"/>
</g>
<g opacity="0.350006">
<path opacity="0.350006" d="M386.354 499.501C384.299 500.015 382.217 498.764 381.705 496.708C381.191 494.653 382.442 492.572 384.498 492.059C386.553 491.547 388.634 492.797 389.147 494.852C389.659 496.908 388.41 498.988 386.354 499.501Z" fill="white"/>
</g>
<g opacity="0.350006">
<path opacity="0.350006" d="M421.449 490.746C419.393 491.259 417.312 490.009 416.8 487.953C416.287 485.898 417.537 483.817 419.592 483.305C421.648 482.791 423.729 484.042 424.243 486.098C424.755 488.153 423.505 490.234 421.449 490.746Z" fill="white"/>
</g>
<g opacity="0.350006">
<path opacity="0.350006" d="M456.544 481.992C454.488 482.504 452.407 481.253 451.895 479.199C451.382 477.143 452.632 475.063 454.687 474.549C456.743 474.036 458.824 475.287 459.338 477.343C459.85 479.397 458.599 481.479 456.544 481.992Z" fill="white"/>
</g>
<g opacity="0.350006">
<path opacity="0.350006" d="M253.163 563.335C251.107 563.848 249.025 562.596 248.513 560.541C248 558.485 249.251 556.405 251.305 555.892C253.361 555.379 255.443 556.631 255.956 558.685C256.468 560.74 255.217 562.821 253.163 563.335Z" fill="white"/>
</g>
<g opacity="0.350006">
<path opacity="0.350006" d="M288.257 554.579C286.203 555.093 284.12 553.841 283.608 551.786C283.095 549.731 284.345 547.65 286.401 547.137C288.456 546.623 290.537 547.875 291.051 549.93C291.563 551.986 290.313 554.066 288.257 554.579Z" fill="white"/>
</g>
<g opacity="0.350006">
<path opacity="0.350006" d="M323.352 545.824C321.296 546.338 319.215 545.087 318.703 543.031C318.19 540.976 319.44 538.895 321.495 538.382C323.551 537.87 325.632 539.12 326.146 541.175C326.658 543.231 325.408 545.311 323.352 545.824Z" fill="white"/>
</g>
<g opacity="0.350006">
<path opacity="0.350006" d="M358.447 537.069C356.391 537.582 354.31 536.332 353.798 534.276C353.284 532.221 354.535 530.14 356.59 529.628C358.646 529.114 360.727 530.365 361.24 532.421C361.752 534.476 360.503 536.557 358.447 537.069Z" fill="white"/>
</g>
<g opacity="0.350006">
<path opacity="0.350006" d="M393.542 528.315C391.486 528.827 389.405 527.576 388.893 525.522C388.38 523.466 389.63 521.386 391.685 520.872C393.741 520.359 395.822 521.61 396.336 523.666C396.848 525.72 395.598 527.802 393.542 528.315Z" fill="white"/>
</g>
<g opacity="0.350006">
<path opacity="0.350006" d="M428.637 519.56C426.581 520.073 424.5 518.821 423.988 516.767C423.475 514.712 424.725 512.631 426.78 512.117C428.835 511.604 430.917 512.856 431.429 514.911C431.943 516.965 430.692 519.047 428.637 519.56Z" fill="white"/>
</g>
<g opacity="0.350006">
<path opacity="0.350006" d="M463.732 510.805C461.677 511.318 459.594 510.066 459.082 508.011C458.569 505.957 459.82 503.875 461.876 503.362C463.93 502.849 466.012 504.101 466.525 506.155C467.037 508.211 465.788 510.291 463.732 510.805Z" fill="white"/>
</g>
<g opacity="0.350006">
<path opacity="0.350006" d="M260.35 592.147C258.296 592.661 256.213 591.41 255.701 589.354C255.188 587.299 256.438 585.218 258.494 584.705C260.549 584.193 262.63 585.443 263.144 587.498C263.656 589.554 262.406 591.634 260.35 592.147Z" fill="white"/>
</g>
<g opacity="0.350006">
<path opacity="0.350006" d="M295.445 583.392C293.389 583.905 291.308 582.655 290.796 580.599C290.283 578.544 291.533 576.463 293.588 575.951C295.644 575.437 297.725 576.688 298.239 578.744C298.751 580.799 297.501 582.88 295.445 583.392Z" fill="white"/>
</g>
<g opacity="0.350006">
<path opacity="0.350006" d="M330.54 574.638C328.484 575.15 326.403 573.899 325.891 571.845C325.378 569.789 326.628 567.709 328.683 567.195C330.739 566.682 332.82 567.933 333.334 569.989C333.846 572.043 332.596 574.125 330.54 574.638Z" fill="white"/>
</g>
<g opacity="0.350006">
<path opacity="0.350006" d="M365.635 565.883C363.579 566.396 361.498 565.144 360.986 563.089C360.473 561.035 361.723 558.953 363.778 558.44C365.834 557.927 367.915 559.179 368.427 561.233C368.941 563.288 367.69 565.369 365.635 565.883Z" fill="white"/>
</g>
<g opacity="0.350006">
<path opacity="0.350006" d="M400.73 557.128C398.675 557.641 396.593 556.389 396.081 554.334C395.567 552.28 396.818 550.198 398.874 549.685C400.929 549.173 403.01 550.424 403.523 552.478C404.035 554.534 402.786 556.614 400.73 557.128Z" fill="white"/>
</g>
<g opacity="0.350006">
<path opacity="0.350006" d="M435.825 548.372C433.769 548.886 431.688 547.635 431.176 545.579C430.662 543.524 431.913 541.443 433.968 540.93C436.024 540.418 438.105 541.668 438.618 543.723C439.13 545.779 437.881 547.859 435.825 548.372Z" fill="white"/>
</g>
<g opacity="0.350006">
<path opacity="0.350006" d="M470.92 539.617C468.864 540.131 466.783 538.88 466.271 536.824C465.757 534.769 467.008 532.688 469.063 532.176C471.119 531.663 473.2 532.913 473.713 534.969C474.225 537.024 472.975 539.105 470.92 539.617Z" fill="white"/>
</g>
<g opacity="0.350006">
<path opacity="0.350006" d="M267.538 620.961C265.482 621.473 263.401 620.222 262.889 618.168C262.376 616.112 263.626 614.032 265.681 613.518C267.737 613.005 269.818 614.257 270.332 616.312C270.844 618.366 269.594 620.448 267.538 620.961Z" fill="white"/>
</g>
<g opacity="0.350006">
<path opacity="0.350006" d="M302.633 612.206C300.577 612.719 298.496 611.467 297.984 609.412C297.471 607.358 298.721 605.276 300.776 604.763C302.832 604.25 304.913 605.502 305.427 607.556C305.939 609.611 304.688 611.692 302.633 612.206Z" fill="white"/>
</g>
<g opacity="0.350006">
<path opacity="0.350006" d="M337.728 603.45C335.673 603.964 333.591 602.712 333.079 600.657C332.565 598.602 333.816 596.521 335.872 596.008C337.927 595.496 340.008 596.746 340.521 598.801C341.033 600.857 339.784 602.937 337.728 603.45Z" fill="white"/>
</g>
<g opacity="0.350006">
<path opacity="0.350006" d="M372.823 594.695C370.767 595.209 368.686 593.958 368.174 591.902C367.66 589.847 368.911 587.766 370.966 587.253C373.022 586.741 375.103 587.991 375.616 590.046C376.128 592.102 374.879 594.182 372.823 594.695Z" fill="white"/>
</g>
<g opacity="0.350006">
<path opacity="0.350006" d="M407.918 585.94C405.862 586.453 403.781 585.203 403.269 583.148C402.755 581.092 404.006 579.011 406.061 578.499C408.117 577.985 410.198 579.236 410.711 581.292C411.223 583.347 409.974 585.428 407.918 585.94Z" fill="white"/>
</g>
<g opacity="0.350006">
<path opacity="0.350006" d="M443.013 577.186C440.957 577.698 438.876 576.447 438.364 574.393C437.85 572.337 439.101 570.257 441.156 569.743C443.212 569.23 445.293 570.481 445.805 572.537C446.318 574.591 445.068 576.673 443.013 577.186Z" fill="white"/>
</g>
<g opacity="0.350006">
<path opacity="0.350006" d="M478.107 568.431C476.053 568.944 473.97 567.692 473.458 565.638C472.945 563.583 474.195 561.502 476.251 560.988C478.306 560.475 480.387 561.727 480.901 563.782C481.413 565.836 480.163 567.918 478.107 568.431Z" fill="white"/>
</g>
<g opacity="0.350006">
<path opacity="0.350006" d="M380.011 623.509C377.955 624.021 375.874 622.77 375.362 620.716C374.848 618.66 376.099 616.58 378.154 616.066C380.21 615.553 382.291 616.804 382.804 618.86C383.316 620.914 382.066 622.996 380.011 623.509Z" fill="white"/>
</g>
<g opacity="0.350006">
<path opacity="0.350006" d="M415.105 614.754C413.051 615.267 410.968 614.015 410.456 611.961C409.943 609.906 411.193 607.825 413.249 607.311C415.304 606.798 417.385 608.05 417.899 610.105C418.411 612.159 417.161 614.241 415.105 614.754Z" fill="white"/>
</g>
<g opacity="0.350006">
<path opacity="0.350006" d="M450.2 605.999C448.144 606.512 446.063 605.26 445.551 603.205C445.038 601.151 446.288 599.069 448.343 598.556C450.399 598.044 452.48 599.295 452.994 601.349C453.506 603.405 452.256 605.485 450.2 605.999Z" fill="white"/>
</g>
<g opacity="0.350006">
<path opacity="0.350006" d="M485.296 597.243C483.24 597.757 481.158 596.506 480.646 594.45C480.133 592.395 481.384 590.314 483.438 589.802C485.494 589.289 487.576 590.539 488.089 592.594C488.601 594.65 487.352 596.731 485.296 597.243Z" fill="white"/>
</g>
</g>
<path d="M345.965 593.15C336.753 593.15 329.133 585.939 328.617 576.732L320.652 434.624C320.116 425.05 327.468 416.823 337.044 416.287L380.369 413.858C381.811 413.778 382.672 412.799 382.999 411.91C383.417 410.768 383.141 409.59 382.263 408.755C377.039 403.802 373.952 397.324 373.571 390.514C372.667 374.376 386.824 360.411 405.131 359.384C405.849 359.344 406.561 359.324 407.271 359.324C424.744 359.324 439.108 371.39 439.971 386.791C440.353 393.602 438.009 400.384 433.373 405.891C432.616 406.788 432.46 407.962 432.956 409.028C433.344 409.863 434.253 410.755 435.64 410.755L435.824 410.75L479.151 408.322C479.481 408.303 479.811 408.294 480.137 408.294C489.351 408.294 496.972 415.507 497.488 424.712L499.872 467.246C499.971 469.012 501.473 470.068 502.869 470.068C503.401 470.068 504.184 469.922 504.893 469.224C509.796 464.399 515.844 461.656 522.383 461.288C522.875 461.262 523.365 461.248 523.853 461.248C539.491 461.248 552.52 475.128 553.512 492.848C554.008 501.692 551.445 510.183 546.297 516.756C541.119 523.367 533.947 527.25 526.104 527.69C525.613 527.718 525.125 527.731 524.637 527.731C518.627 527.731 512.817 525.666 507.839 521.759C507.312 521.346 506.695 521.128 506.055 521.128C505.236 521.128 504.435 521.476 503.86 522.084C503.465 522.502 503.009 523.222 503.069 524.286L505.453 566.82C505.713 571.458 504.152 575.919 501.056 579.383C497.96 582.846 493.7 584.898 489.063 585.158L346.956 593.122C346.624 593.14 346.295 593.15 345.965 593.15Z" fill="#9FBFFF"/>
<path d="M407.273 358.324C406.545 358.324 405.805 358.346 405.075 358.387C395.988 358.896 387.608 362.492 381.479 368.514C375.28 374.603 372.116 382.436 372.573 390.571C372.968 397.635 376.165 404.352 381.573 409.48C382.435 410.296 382.163 411.283 382.06 411.566C381.955 411.852 381.519 412.794 380.313 412.86L336.988 415.29C326.861 415.856 319.087 424.556 319.655 434.682L327.62 576.788C328.165 586.523 336.224 594.151 345.968 594.151C346.315 594.151 346.661 594.14 347.012 594.122L489.119 586.156C494.024 585.88 498.527 583.712 501.801 580.05C505.076 576.387 506.727 571.67 506.452 566.764L504.068 524.23C504.027 523.52 504.328 523.046 504.587 522.771C504.968 522.368 505.517 522.13 506.055 522.13C506.475 522.13 506.867 522.27 507.221 522.547C512.379 526.592 518.401 528.731 524.637 528.731C525.143 528.731 525.651 528.716 526.16 528.687C534.295 528.232 541.725 524.214 547.084 517.372C552.383 510.608 555.02 501.879 554.511 492.794C553.487 474.544 540.021 460.248 523.853 460.248C523.347 460.248 522.839 460.263 522.327 460.292C515.543 460.672 509.272 463.515 504.191 468.511C503.724 468.971 503.215 469.068 502.869 469.068C501.952 469.068 500.939 468.41 500.871 467.19L498.487 424.656C497.94 414.922 489.881 407.296 480.139 407.295C479.792 407.295 479.444 407.303 479.095 407.323L435.768 409.751C435.724 409.754 435.683 409.755 435.64 409.755C434.487 409.755 433.988 408.876 433.863 408.607C433.705 408.27 433.417 407.391 434.137 406.535C438.94 400.832 441.365 393.802 440.969 386.736C440.077 370.804 425.275 358.326 407.273 358.324ZM407.273 360.324C424.139 360.326 438.132 371.851 438.972 386.848C439.356 393.686 436.939 400.104 432.608 405.246C430.424 407.842 432.32 411.755 435.64 411.755C435.719 411.755 435.8 411.752 435.88 411.748L479.207 409.32C479.519 409.302 479.829 409.295 480.137 409.295C488.771 409.295 496 416.043 496.489 424.768L498.873 467.302C499.001 469.586 500.901 471.068 502.869 471.068C503.827 471.068 504.801 470.718 505.595 469.936C510.124 465.48 515.952 462.652 522.439 462.288C522.912 462.262 523.383 462.248 523.853 462.248C538.856 462.248 551.547 475.662 552.513 492.906C553.511 510.69 541.661 525.816 526.048 526.691C525.576 526.718 525.105 526.731 524.637 526.731C518.679 526.731 513.089 524.61 508.456 520.972C507.712 520.39 506.873 520.13 506.055 520.13C503.928 520.13 501.933 521.891 502.071 524.342L504.455 566.876C504.961 575.914 498.045 583.652 489.007 584.159L346.9 592.124C346.587 592.142 346.276 592.151 345.968 592.151C337.335 592.151 330.105 585.402 329.616 576.676L321.651 434.57C321.144 425.53 328.061 417.792 337.1 417.286L380.425 414.856C383.892 414.663 385.469 410.419 382.949 408.03C378.072 403.404 374.952 397.295 374.569 390.459C373.695 374.846 387.403 361.38 405.187 360.383C405.887 360.344 406.581 360.324 407.273 360.324Z" fill="white"/>
<path d="M153.772 389.781C153.772 389.781 152.449 448.036 148.892 468.017C144.905 490.408 111.55 535.587 111.55 535.587L119.265 543.228L130.709 548.677C130.709 548.677 159.872 520.804 176.31 485.915C190.563 455.664 191.194 392.853 191.194 392.853" fill="#F777BA"/>
<path d="M145.484 567.345C145.85 565.964 145.998 564.246 145.507 563.522L133.614 546.024C122.247 543.93 112.336 533.684 112.336 533.684L102.39 544.694C102.132 545.104 102.255 545.646 102.666 545.904L142.696 571.116C143.502 571.624 145.474 567.389 145.484 567.345Z" fill="#00276F"/>
<path d="M136.711 548.99C135.03 549.602 133.422 550.412 131.928 551.399" stroke="#1A3987" stroke-miterlimit="10" stroke-linejoin="round"/>
<path d="M137.988 551.538C136.198 552.248 135.334 552.768 133.988 553.627" stroke="#1A3987" stroke-miterlimit="10" stroke-linejoin="round"/>
<path d="M139.159 553.549C137.96 554.007 136.561 554.803 135.449 555.443" stroke="#1A3987" stroke-miterlimit="10" stroke-linejoin="round"/>
<path d="M103.829 542.901L144.84 568.73" stroke="#1A3987" stroke-miterlimit="10" stroke-linejoin="round"/>
<path d="M108.809 537.589C108.809 537.589 118.287 543.901 115.429 550.213" stroke="#1A3987" stroke-miterlimit="10" stroke-linejoin="round"/>
<path d="M143.069 559.936C143.069 559.936 138.025 562.012 136.397 563.413" stroke="#1A3987" stroke-miterlimit="10" stroke-linejoin="round"/>
<path d="M196.579 413.966C196.579 413.966 198.813 448.015 200.365 474.058C201.917 500.103 204.955 559.55 204.955 559.55L216.226 562.214L228.729 560.129C228.729 560.129 231.974 508.803 231.974 474.798C231.974 439.627 230.618 389.781 230.618 389.781" fill="#F777BA"/>
<path d="M250.89 569.306C250.455 567.945 249.658 566.415 248.855 566.069L229.422 557.701C218.711 562.043 204.847 558.723 204.847 558.723L202.374 573.354C202.377 573.838 202.771 574.229 203.255 574.226L250.565 573.985C251.517 573.979 250.903 569.349 250.89 569.306Z" fill="#00276F"/>
<path d="M233.628 558.538C232.54 559.956 231.619 561.506 230.888 563.138" stroke="#1A3987" stroke-miterlimit="10" stroke-linejoin="round"/>
<path d="M236.075 560.001C234.947 561.563 234.497 562.465 233.823 563.913" stroke="#1A3987" stroke-miterlimit="10" stroke-linejoin="round"/>
<path d="M238.143 561.069C237.378 562.097 236.626 563.521 236.031 564.657" stroke="#1A3987" stroke-miterlimit="10" stroke-linejoin="round"/>
<path d="M202.624 571.068L251.09 570.82" stroke="#1A3987" stroke-miterlimit="10" stroke-linejoin="round"/>
<path d="M203.97 563.913C203.97 563.913 215.355 564.143 216.335 571.002" stroke="#1A3987" stroke-miterlimit="10" stroke-linejoin="round"/>
<path d="M244.872 564.354C244.872 564.354 241.733 568.815 241.114 570.873" stroke="#1A3987" stroke-miterlimit="10" stroke-linejoin="round"/>
<path d="M195.742 221.376C189.646 219.986 183.835 224.089 181.134 228.324C180.276 229.668 179.615 231.137 178.654 232.408C172.56 240.47 148.014 237.974 152.872 253.844C153.43 255.665 154.495 257.354 154.655 259.253C154.854 261.636 153.603 263.865 152.944 266.164C150.81 273.622 156.05 282.336 163.639 283.945C167.036 284.666 170.819 284.186 173.758 286.041C176.495 287.768 177.736 291.048 179.675 293.641C184.975 300.73 195.52 302.126 203.839 299.104C206.99 297.958 210.136 296.08 211.484 293.012C212.251 291.268 212.378 289.26 213.374 287.636C215.3 284.496 219.562 283.974 222.763 282.15C227.355 279.532 230.06 273.392 227.964 268.421C225.823 263.344 221.292 258.68 220.254 253.232C219.675 250.197 220.508 247.022 219.895 243.994C219.439 241.745 218.167 239.672 216.368 238.246C215.131 237.266 213.67 236.594 212.45 235.593C209.882 233.486 209.548 229.726 206.907 227.562C204.272 225.404 200.742 224.689 197.907 222.858" fill="#FFE1AD"/>
<path d="M206.912 258.758C222.396 254.433 245.135 255.33 263.287 237.39C281.439 219.45 289.204 205.785 289.204 205.785L303.189 216.807C303.189 216.807 284.832 252.03 268.465 263.869C246.952 279.43 232.328 281.834 219.977 284.071" fill="#F777BA"/>
<path d="M285.381 211.638C289.204 205.783 298.447 189.013 299.739 189.194C301.029 189.378 298.065 195.25 299.155 195.202C300.243 195.154 305.413 186.427 306.656 186.954C308.337 187.667 302.563 196.323 302.563 196.323C302.563 196.323 304.063 194.774 305.343 195.815C306.249 196.554 305.168 199.167 305.168 199.167C305.168 199.167 306.903 197.446 307.827 198.231C308.744 199.011 307.512 202.115 307.512 202.115C307.512 202.115 308.801 201.411 309.691 202.097C310.577 202.779 306.04 213.222 297.593 226.769" fill="#F777BA"/>
<path d="M297.921 197.483C297.921 197.483 297.677 200.546 297.921 202.607C298.316 205.927 297.315 207.666 297.315 207.666" stroke="#CC328A" stroke-miterlimit="10" stroke-linejoin="round"/>
<path d="M302.07 197.02C301.709 198.007 301.358 198.993 301.069 199.995C300.924 200.495 300.798 200.999 300.702 201.503C300.608 201.993 300.524 202.529 300.613 202.939C300.69 203.155 300.693 203.173 300.864 203.176C301.014 203.181 301.221 203.103 301.418 202.985C301.816 202.748 302.194 202.407 302.545 202.044C303.24 201.309 303.913 200.512 304.509 199.688C304.653 199.489 304.93 199.445 305.128 199.588C305.31 199.72 305.364 199.964 305.26 200.157L305.254 200.165C304.776 201.059 304.324 201.988 303.938 202.924C303.746 203.392 303.569 203.865 303.436 204.336C303.301 204.792 303.208 205.316 303.258 205.615C303.322 205.76 303.229 205.693 303.362 205.72C303.481 205.757 303.662 205.697 303.842 205.617C304.212 205.441 304.582 205.115 304.92 204.767C305.594 204.06 306.189 203.211 306.705 202.36L306.709 202.352C306.833 202.148 307.1 202.083 307.304 202.207C307.494 202.323 307.564 202.565 307.469 202.763C307.069 203.603 306.66 204.456 306.302 205.319C305.956 206.179 305.605 207.073 305.497 207.944C305.473 208.155 305.48 208.38 305.54 208.499C305.581 208.605 305.672 208.635 305.869 208.608C306.242 208.519 306.629 208.216 306.968 207.912C307.652 207.28 308.252 206.539 308.826 205.784C308.366 206.616 307.842 207.416 307.196 208.14C306.862 208.491 306.526 208.857 305.986 209.056C305.838 209.088 305.689 209.123 305.51 209.084C305.333 209.035 305.154 208.901 305.082 208.747C304.921 208.44 304.932 208.167 304.934 207.909C305.002 206.885 305.313 205.973 305.614 205.059C305.93 204.148 306.277 203.259 306.692 202.385L307.457 202.788C306.916 203.717 306.333 204.591 305.594 205.401C305.218 205.799 304.818 206.193 304.258 206.481C303.976 206.609 303.641 206.748 303.242 206.687C303.07 206.689 302.798 206.599 302.609 206.42C302.432 206.241 302.326 206.013 302.294 205.835C302.165 205.105 302.352 204.589 302.496 204.057C302.656 203.536 302.854 203.041 303.065 202.555C303.489 201.581 303.962 200.653 304.482 199.731L305.228 200.209C304.572 201.065 303.896 201.881 303.089 202.609C302.689 202.973 302.265 203.324 301.745 203.595C301.485 203.724 301.181 203.848 300.81 203.817C300.632 203.796 300.41 203.747 300.26 203.564C300.108 203.4 300.06 203.219 300.029 203.061C299.926 201.833 300.378 200.88 300.738 199.881C301.13 198.901 301.57 197.944 302.07 197.02Z" fill="#CC328A"/>
<path d="M192.134 222.602C191.402 222.206 190.427 222.324 189.802 221.774C188.755 220.854 188.745 219.276 189.189 218.055C189.893 216.106 192.401 215.255 194.309 215.536C198.867 216.211 198.157 220.594 195.378 222.244" fill="#FFE1AD"/>
<path d="M166.935 333.507C166.935 333.507 150.567 350.965 147.456 374.733C144.347 398.501 144.292 437.201 144.292 437.201C144.292 437.201 191.434 445.839 234.294 436.276C232.658 416.511 234.294 361.185 219.328 333.507" fill="#2A2A68"/>
<path d="M152.913 438.475C152.913 438.475 151.435 378.771 158.357 358.615C163.795 342.785 175.753 327.498 175.753 327.498" stroke="#5565AA" stroke-miterlimit="10"/>
<path d="M234.977 254.377L240.556 281.006C240.556 281.006 229.637 285.429 218.331 286.072C212.239 285.96 203.008 262.246 206.5 257.674C216.664 254.658 234.977 254.377 234.977 254.377Z" fill="#2E7EFA"/>
<path d="M165.803 284.26C165.803 284.26 165.069 315.472 166.935 333.507C193.255 339.334 219.329 333.507 219.329 333.507L221.152 305.16C234.293 291.664 222.772 274.186 222.772 274.186L206.499 257.674L190.22 256.774L165.803 284.26Z" fill="#2E7EFA"/>
<path d="M190.221 256.773C190.221 256.773 175.753 254.476 161.761 265.981C158.602 268.579 154.675 273.995 151.434 280.535L173.991 295.392L187.294 280.535" fill="#2E7EFA"/>
<path d="M226.951 284.934C225.839 280.767 222.76 274.187 222.76 270.174" stroke="#1A3987" stroke-miterlimit="10" stroke-linejoin="round"/>
<path d="M230.721 254.521L237.097 282.245" stroke="#1A3987" stroke-miterlimit="10" stroke-linejoin="round"/>
<path d="M153.397 276.859L169.747 287.011" stroke="#1A3987" stroke-miterlimit="10" stroke-linejoin="round"/>
<path d="M207.71 227.801C207.71 227.801 213.69 243.344 209.206 248.081C206.876 250.544 198.787 249.176 195.742 246.851C193.482 245.124 190.496 234.781 191.715 232.832C196.37 225.38 207.71 227.801 207.71 227.801Z" fill="#F777BA"/>
<path d="M190.83 241.482L190.221 256.774C191.433 260.628 204.423 264.292 206.499 257.674L205.203 246.202L190.83 241.482Z" fill="#F777BA"/>
<path d="M183.944 239.738C183.401 238.298 183.291 236.726 183.304 235.185C183.321 233.234 183.533 231.265 184.185 229.426C185.296 226.294 187.704 223.652 190.709 222.234C193.715 220.818 199.46 219.465 204.119 222.218C206.5 221.976 209.015 222.644 210.781 224.257C212.549 225.87 213.449 228.465 212.801 230.768C208.372 230.262 203.944 229.756 199.516 229.249C198.619 231.646 196.967 233.754 194.853 235.198C192.804 236.6 190.548 238.348 191.396 241.208C191.751 242.4 190.461 242.621 190.461 244.928C188.079 244.677 184.552 241.266 184 239.881C183.98 239.834 183.961 239.786 183.944 239.738Z" fill="#FFE1AD"/>
<path d="M192.854 239.01C191.442 236.828 190.115 237.028 189.302 238.078C188.218 239.476 189.821 242.746 190.653 243.356C192.339 244.594 193.797 244.618 194.07 243.179" fill="#F777BA"/>
<path d="M205.557 249.818C199.809 250.055 195.741 246.85 195.741 246.85" stroke="#CC328A" stroke-miterlimit="10" stroke-linejoin="round"/>
<path d="M204.423 235.668C204.423 235.668 208.238 238.979 208.149 240.016C208.061 241.055 205.678 241.491 205.678 241.491" stroke="#CC328A" stroke-width="0.666667" stroke-miterlimit="10" stroke-linejoin="round"/>
<path d="M208.469 242.383L202.047 244.164C202.047 244.164 203.741 247.376 207.201 246.156C209.668 245.285 208.469 242.383 208.469 242.383Z" fill="white"/>
<path d="M207.116 234.461C207.191 234.746 207.287 235.024 207.399 235.297C207.685 235.994 208.672 235.596 208.361 234.892C208.241 234.621 208.108 234.36 207.953 234.108C207.684 233.668 206.983 233.952 207.116 234.461Z" fill="#00276F"/>
<path d="M205.612 232.912C205.612 232.912 206.439 231.428 208.029 232.297" stroke="#00276F" stroke-width="0.666667" stroke-miterlimit="10" stroke-linecap="round" stroke-linejoin="round"/>
<path d="M199.897 237.188C199.955 237.48 200.035 237.763 200.133 238.044C200.353 238.684 201.385 238.395 201.147 237.764C201.029 237.445 200.895 237.133 200.734 236.835C200.478 236.357 199.798 236.699 199.897 237.188Z" fill="#00276F"/>
<path d="M200.682 234.33C200.682 234.33 199.008 233.995 197.598 236.106" stroke="#00276F" stroke-width="0.666667" stroke-miterlimit="10" stroke-linecap="round" stroke-linejoin="round"/>
<path d="M151.434 280.535C144.406 294.719 140.041 315.387 154.865 321.681C170.332 328.251 210.874 278.621 210.874 278.621L198.36 267.847L164.878 289.389" fill="#F777BA"/>
<path d="M164.878 289.389L154.865 297.191" stroke="#CC328A" stroke-miterlimit="10" stroke-linejoin="round"/>
<path d="M210.948 271.983C208.929 271.603 207.601 269.659 207.981 267.64L210.687 253.263L217.996 254.639L215.291 269.016C214.911 271.035 212.967 272.363 210.948 271.983Z" fill="#2A2A68"/>
<path d="M219.098 257.768L213.21 256.335C209.034 255.319 206.471 251.108 207.487 246.932C208.504 242.755 212.715 240.192 216.891 241.21L222.779 242.642C223.13 242.727 223.344 243.08 223.259 243.432L219.887 257.288C219.802 257.638 219.448 257.854 219.098 257.768Z" fill="#4376CF"/>
<path d="M223.521 250.834C222.505 255.01 220.533 258.117 219.117 257.773C217.701 257.429 217.377 253.762 218.394 249.586C219.41 245.409 221.382 242.302 222.798 242.646C224.214 242.991 224.538 246.657 223.521 250.834Z" fill="#9CD0FF"/>
<path d="M237.415 270.859C237.415 270.859 226.623 261.597 220.241 257.773C218.24 256.145 218.916 252.304 219.471 250.207C220.901 244.793 222.769 244.087 222.769 244.087C231.441 244.689 245.052 240.555 245.052 240.555" fill="#2A2A68"/>
<path d="M238.117 254.344C235.74 263.776 236.001 271.972 238.699 272.652C241.396 273.332 245.509 266.237 247.887 256.806C250.263 247.374 250.004 239.177 247.305 238.498C244.608 237.818 240.495 244.913 238.117 254.344Z" fill="#9CD0FF"/>
<path d="M239.712 254.779C237.701 262.755 237.72 269.638 239.753 270.15C241.786 270.663 245.065 264.611 247.074 256.635C249.085 248.658 249.066 241.775 247.033 241.263C245 240.751 241.722 246.802 239.712 254.779Z" fill="#4376CF"/>
<path d="M243.275 259.329C241.429 258.864 239.809 259.023 238.777 259.235C239.013 257.815 239.323 256.319 239.711 254.779C240.099 253.24 240.535 251.775 240.999 250.412C241.809 251.088 243.161 251.996 245.006 252.461L243.275 259.329Z" fill="#2A2A68"/>
<path d="M243.204 255.659C242.721 257.575 242.749 259.233 243.266 259.363C243.785 259.493 244.594 258.047 245.078 256.131C245.561 254.216 245.533 252.557 245.014 252.427C244.497 252.297 243.686 253.743 243.204 255.659Z" fill="#FFE1AD"/>
<path d="M192.294 271.75C200.65 266.287 206.506 263.071 207.52 262.641C210.874 261.218 214.488 261.767 217.127 262.834C218.014 263.194 218.862 263.706 219.454 264.457C220.175 265.367 220.463 266.57 220.416 267.731C220.407 267.95 220.371 268.197 220.19 268.321C219.775 268.603 219.387 267.957 219.127 267.526C218.472 266.445 217.375 265.993 216.11 265.989C216.751 266.009 217.035 266.633 217.312 267.211C217.59 267.791 217.267 268.631 216.632 268.721C217.22 268.83 217.707 269.35 217.779 269.945C217.85 270.538 217.5 271.158 216.955 271.405C217.359 271.543 217.558 272.03 217.5 272.453C217.444 272.875 217.194 273.245 216.935 273.585C215.791 275.09 214.364 276.354 212.932 277.587C208.443 281.447 199.15 291.934 199.15 291.934" fill="#F777BA"/>
<path d="M243.255 567.167L205.49 564.353L193.103 565.635L193.351 612.589C193.357 613.776 194.323 614.732 195.509 614.725C196.398 614.721 197.191 614.171 197.506 613.34L207.139 592.392L246.498 597.121" fill="#F777BA"/>
<path d="M193.874 616.85C195.43 616.354 197.178 615.442 197.572 614.525L207.138 592.314C202.176 580.072 205.968 564.225 205.968 564.225L189.246 563.01C188.694 563.014 188.247 563.465 188.25 564.018L188.526 616.48C188.532 617.566 193.824 616.868 193.874 616.85Z" fill="#2E7EFA"/>
<path d="M206.18 597.121C204.559 595.877 202.79 594.824 200.923 593.989" stroke="#1A3987" stroke-miterlimit="10" stroke-linejoin="round"/>
<path d="M204.508 599.918C202.723 598.629 201.694 598.113 200.038 597.343" stroke="#1A3987" stroke-miterlimit="10" stroke-linejoin="round"/>
<path d="M203.288 602.281C202.112 601.407 200.484 600.547 199.186 599.868" stroke="#1A3987" stroke-miterlimit="10" stroke-linejoin="round"/>
<path d="M191.859 563.297L192.143 617.08" stroke="#1A3987" stroke-miterlimit="10" stroke-linejoin="round"/>
<path d="M199.861 563.783C199.861 563.783 199.774 576.236 191.934 577.356" stroke="#1A3987" stroke-miterlimit="10" stroke-linejoin="round"/>
<path d="M199.533 609.973C199.533 609.973 194.434 606.385 192.083 605.677" stroke="#1A3987" stroke-miterlimit="10" stroke-linejoin="round"/>
<path d="M309.217 489.678C309.777 490.834 316.805 540.67 321.834 575.425C324.983 597.18 325.378 610.913 293.705 608.313C250.093 604.733 219.705 602.761 219.705 602.761L218.691 563.653L278.625 566.513L270.818 527.821C270.818 527.821 256.323 508.496 267.003 486.373" fill="#816FC2"/>
<path d="M225.154 563.962L226.736 602.761" stroke="#4C3F89" stroke-miterlimit="10"/>
<path d="M298.712 515.501L309.248 576.72C309.456 578.395 308.095 579.848 306.41 579.751L218.97 574.36" stroke="#4C3F89" stroke-miterlimit="10"/>
<path d="M354.415 562.081L346.441 599.846L346.109 612.233L394.677 611.986C395.863 611.979 396.819 611.013 396.813 609.827C396.808 608.939 396.257 608.145 395.427 607.831L374.48 598.198L384.368 558.838" fill="#F777BA"/>
<path d="M398.938 611.462C398.442 609.908 397.53 608.16 396.611 607.765L374.402 598.2C362.159 603.161 346.313 599.369 346.313 599.369L343.486 616.09C343.489 616.644 343.939 617.09 344.494 617.088L398.566 616.81C399.654 616.805 398.954 611.512 398.938 611.462Z" fill="#2E7EFA"/>
<path d="M379.209 599.156C377.965 600.779 376.912 602.547 376.077 604.414" stroke="#1A3987" stroke-miterlimit="10" stroke-linejoin="round"/>
<path d="M382.005 600.828C380.716 602.613 380.201 603.643 379.431 605.299" stroke="#1A3987" stroke-miterlimit="10" stroke-linejoin="round"/>
<path d="M384.369 602.048C383.494 603.225 382.635 604.852 381.955 606.151" stroke="#1A3987" stroke-miterlimit="10" stroke-linejoin="round"/>
<path d="M343.772 613.477L399.167 613.194" stroke="#1A3987" stroke-miterlimit="10" stroke-linejoin="round"/>
<path d="M345.311 605.298C345.311 605.298 358.324 605.562 359.444 613.402" stroke="#1A3987" stroke-miterlimit="10" stroke-linejoin="round"/>
<path d="M392.06 605.803C392.06 605.803 388.472 610.902 387.764 613.254" stroke="#1A3987" stroke-miterlimit="10" stroke-linejoin="round"/>
<path d="M329.417 478.289L332.189 489.176C332.585 490.732 333.986 491.82 335.591 491.82H373.185C382.385 491.82 392.09 492.058 397.349 500.036C401.659 506.576 400.13 517.46 396.543 529.972C393.465 540.709 382.581 589.63 382.581 589.63H343.898L354.821 531.229H310.187C310.187 531.229 281.301 531.466 285.299 502.504" fill="#816FC2"/>
<path d="M344.936 583.583H383.676" stroke="#4C3F89" stroke-miterlimit="10"/>
<path d="M315.478 531.229H310.187C310.187 531.229 282.517 531.229 282.167 502.504" stroke="#4C3F89" stroke-miterlimit="10"/>
<path d="M312.413 487.611C312.413 487.611 313.117 520.008 340.367 520.008H360.879C363.427 520.008 365.33 522.351 364.809 524.844L351.279 589.539" stroke="#4C3F89" stroke-miterlimit="10"/>
<path d="M315.08 501.055C315.293 501.633 326.529 498.477 326.316 487.611" stroke="#4C3F89" stroke-miterlimit="10"/>
<path d="M291.471 505.646C291.471 505.646 297.363 505.646 302.723 504.087" stroke="#4C3F89" stroke-miterlimit="10"/>
<path d="M263.148 505.646C263.148 505.646 268.584 505.799 272.713 505.646" stroke="#4C3F89" stroke-miterlimit="10"/>
<path d="M296.155 370.247C296.155 370.247 309.54 328.721 334.466 295.287L317.424 284.898C290.47 314.141 272.712 363.061 272.712 363.061" fill="#F777BA"/>
<path d="M262.269 440.78C262.269 440.78 256.697 389.543 277.802 346.569L302.722 354.707L296.156 387.559" fill="#FFE1AD"/>
<path d="M275.928 351.405L300.487 359.9" stroke="#D19B4B" stroke-miterlimit="10"/>
<path d="M330.889 300.079C334.911 293.935 349.481 278.048 348.776 276.72C348.069 275.392 342.871 280.913 342.495 279.715C342.119 278.517 349.543 269.481 348.484 268.343C347.048 266.801 339.94 276.463 339.94 276.463C339.94 276.463 347.197 265.492 345.565 264.515C344.409 263.823 338.485 271.94 335.833 274.757C338.32 271.339 341.692 265.319 340.476 264.625C339.271 263.937 335.12 269.377 331.717 273.377C333.608 270.683 336.783 265.595 335.691 264.901C334.601 264.209 320.771 278.893 309.871 293.805" fill="#F777BA"/>
<path d="M312.639 427.768C312.639 427.768 338.139 437.539 356.835 438.754C381.355 440.348 409.862 431.212 409.862 431.212C409.862 431.212 413.623 411.064 403.814 412.023C391.725 414.23 370.815 415.772 355.087 413.866C345.277 412.678 324.399 401.5 324.399 401.5" fill="#F777BA"/>
<path d="M398.257 413.103C405.536 412.136 426.164 405.876 427.056 407.085C427.947 408.297 420.72 410.595 421.637 411.453C422.555 412.309 433.913 409.527 434.481 410.973C435.251 412.936 423.464 415.163 423.464 415.163C423.464 415.163 436.495 413.367 436.671 415.261C436.793 416.604 426.912 418.431 423.224 419.604C427.383 418.841 434.268 418.407 434.368 419.801C434.467 421.185 427.765 422.575 422.688 423.911C425.935 423.373 431.896 422.712 432.048 423.997C432.2 425.279 416.14 429.791 400.853 433.443" fill="#F777BA"/>
<path d="M286.274 379.652L282.79 397.171C282.79 397.171 292.601 407.102 302.875 397.858L302.759 386.114L286.274 379.652Z" fill="#F777BA"/>
<path d="M304.841 363.143C304.841 363.143 313.214 379.894 308.03 385.433C305.335 388.311 301.387 389.407 297.83 386.722C295.191 384.729 285.073 372.721 286.477 370.445C291.841 361.747 304.841 363.143 304.841 363.143Z" fill="#F777BA"/>
<path d="M308.178 372.582C308.178 372.582 311.267 375.659 311.267 377.697C311.267 378.598 308.178 378.735 308.178 378.735" fill="#F777BA"/>
<path d="M308.029 380.452L302.588 379.652C302.323 381.715 306.376 386.861 308.029 380.452Z" fill="white"/>
<path d="M304.055 372.309C303.94 372.877 304.048 373.563 304.56 373.891C304.799 374.045 305.108 373.845 305.109 373.577C305.112 373.163 304.913 372.711 304.808 372.309C304.715 371.949 304.133 371.923 304.055 372.309Z" fill="#00276F"/>
<path d="M301.443 371.298C302.013 370.43 302.997 369.847 304.033 369.765C304.477 369.727 304.956 369.79 305.303 370.071" stroke="#00276F" stroke-width="0.666667" stroke-miterlimit="10" stroke-linecap="round" stroke-linejoin="round"/>
<path d="M284.526 364.395C285.426 358.449 291.474 357.221 302.727 358.897C304.234 359.123 307.019 358.332 307.601 359.74C308.365 361.589 308.21 365.184 306.291 366.639C304.614 367.909 302.254 367.236 300.379 367.909C297.346 368.999 298.846 371.921 297.238 374.057C294.566 377.612 296.333 382.847 291.926 385.559C289.414 387.104 286.206 386.663 283.306 386.123C282.953 386.056 282.585 385.983 282.303 385.761C281.306 384.984 281.709 382.263 281.418 381.089C280.482 377.315 279.961 373.351 280.291 369.468C280.579 366.095 283.286 364.055 284.526 364.395Z" fill="#0B0B3A"/>
<path d="M297.35 374.895C296.757 371.399 294.152 372.609 293.213 373.833C291.961 375.468 293.846 379.259 294.818 379.965C296.788 381.392 298.482 381.412 298.792 379.736" fill="#F777BA"/>
<path d="M302.588 388.496C298.792 387.316 296.417 385.432 296.417 385.432" stroke="#CC328A" stroke-miterlimit="10" stroke-linejoin="round"/>
<path d="M282.702 391.814C282.702 391.814 267.483 398.261 262.793 422.295C260.707 432.987 264.718 490.487 264.721 490.442C297.653 496.865 333.113 487.379 333.113 487.379C333.113 487.379 329.051 449.898 327.201 435.779C322.929 403.205 300.487 392.853 300.487 392.853L282.702 391.814Z" fill="#FFE1AD"/>
<path d="M300.488 392.853C300.488 392.853 313.148 394.798 321.285 398.679C329.422 402.561 347.732 411.466 347.732 411.466L338.322 437.497L305.098 426.993" fill="#FFE1AD"/>
<path d="M326.852 433.443L308.188 427.971" stroke="#D19B4B" stroke-miterlimit="10"/>
<path d="M342.03 408.698L333.113 435.447" stroke="#D19B4B" stroke-miterlimit="10"/>
<path d="M264.402 486.372C264.402 486.372 296.474 491.231 332.486 483.88" stroke="#D19B4B" stroke-miterlimit="10"/>
<path d="M775.544 558.685L783.518 596.45L782.239 608.837L735.282 608.59C734.096 608.584 733.139 607.617 733.146 606.432C733.151 605.544 733.702 604.749 734.532 604.436L755.479 594.802L745.59 555.442" fill="#F777BA"/>
<path d="M731.021 608.066C731.517 606.51 732.429 604.764 733.346 604.369L755.557 594.802C767.799 599.765 783.646 595.973 783.646 595.973L784.861 612.694C784.858 613.248 784.406 613.694 783.853 613.692L731.391 613.414C730.305 613.409 731.005 608.116 731.021 608.066Z" fill="#18277A"/>
<path d="M750.75 595.76C751.995 597.382 753.047 599.151 753.882 601.018" stroke="#5565AA" stroke-miterlimit="10"/>
<path d="M747.953 597.432C749.244 599.218 749.758 600.247 750.528 601.903" stroke="#5565AA" stroke-miterlimit="10"/>
<path d="M745.59 598.652C746.465 599.828 747.325 601.456 748.005 602.755" stroke="#5565AA" stroke-miterlimit="10"/>
<path d="M784.574 610.081L730.792 609.797" stroke="#5565AA" stroke-miterlimit="10"/>
<path d="M784.09 602.079C784.09 602.079 771.635 602.166 770.515 610.006" stroke="#5565AA" stroke-miterlimit="10"/>
<path d="M737.898 602.408C737.898 602.408 741.486 607.506 742.194 609.858" stroke="#5565AA" stroke-miterlimit="10"/>
<path d="M758.716 421.546C758.716 421.546 728.671 488.738 730.255 512.535C731.731 534.694 748.535 590.818 748.535 590.818L784.555 584.214C784.555 584.214 767.332 514.9 768.227 507.728C769.12 500.558 791.117 451.216 791.117 451.216C791.117 451.216 799.632 439.587 796.712 419.596" fill="#2E7EFA"/>
<path d="M778.533 585.318C778.533 585.318 761.735 515.346 762.629 508.175C763.522 501.004 784.342 452.571 784.342 452.571" stroke="#1A3987" stroke-miterlimit="10" stroke-linejoin="round"/>
<path d="M782.928 577.595L746.796 584.879" stroke="#1A3987" stroke-miterlimit="10" stroke-linejoin="round"/>
<path d="M827.628 541.044L844.432 576.191L848.525 587.952L805.897 607.643C804.821 608.14 803.545 607.671 803.046 606.595C802.674 605.788 802.837 604.836 803.456 604.198L818.34 586.591L799.125 550.812" fill="#F777BA"/>
<path d="M801.816 608.976C801.606 607.358 801.69 605.39 802.354 604.64L818.41 586.559C831.602 585.86 844.344 575.704 844.344 575.704L852.536 590.332C852.768 590.835 852.548 591.431 852.047 591.663L804.42 613.663C803.434 614.118 801.823 609.028 801.816 608.976Z" fill="#18277A"/>
<path d="M814.464 589.465C816.277 590.406 817.982 591.561 819.529 592.898" stroke="#5565AA" stroke-miterlimit="10"/>
<path d="M812.641 592.164C814.565 593.235 815.467 593.949 816.867 595.121" stroke="#5565AA" stroke-miterlimit="10"/>
<path d="M811.017 594.272C812.309 594.967 813.777 596.076 814.942 596.964" stroke="#5565AA" stroke-miterlimit="10"/>
<path d="M851.169 588.087L802.344 610.642" stroke="#5565AA" stroke-miterlimit="10"/>
<path d="M847.336 581.047C847.336 581.047 836.095 586.408 838.407 593.983" stroke="#5565AA" stroke-miterlimit="10"/>
<path d="M805.645 600.935C805.645 600.935 811.058 604.031 812.695 605.859" stroke="#5565AA" stroke-miterlimit="10"/>
<path d="M782.471 423.582C782.471 423.582 771.019 487.031 776.425 510.262C782.471 536.249 808.531 580.281 808.531 580.281L840.999 564.153C840.999 564.153 812.981 510.622 813.026 499.073C813.054 491.846 819.443 447.317 819.443 447.317C819.443 447.317 825.858 434.41 819.583 415.206" fill="#2E7EFA"/>
<path d="M833.522 567.867C833.522 567.867 805.532 515.547 805.549 500.655C805.556 493.429 809.992 459.735 811.964 448.898C813.938 438.062 817.8 425.535 812.106 416.787" stroke="#1A3987" stroke-miterlimit="10" stroke-linejoin="round"/>
<path d="M775.04 488.706C776.747 470.875 778.762 446.942 781.478 425.622" stroke="#1A3987" stroke-miterlimit="10" stroke-linejoin="round"/>
<path d="M800.548 425.622C800.548 425.622 802.748 431.088 814.665 434.261" stroke="#1A3987" stroke-miterlimit="10" stroke-linejoin="round"/>
<path d="M776.276 426.922C776.276 426.922 774.487 439.997 775.536 441.726C776.017 442.515 779.793 443.229 779.793 443.229" stroke="#1A3987" stroke-miterlimit="10" stroke-linejoin="round"/>
<path d="M754.199 432.052C754.199 432.052 761.397 432.236 765.53 427.631" stroke="#1A3987" stroke-miterlimit="10" stroke-linejoin="round"/>
<path d="M838.092 558.505L805.178 574.443" stroke="#1A3987" stroke-miterlimit="10" stroke-linejoin="round"/>
<path d="M768.725 326.303C768.725 326.303 755.066 330.228 753.102 356.381C751.248 367.115 755.705 426.78 755.706 426.733C788.769 432.445 824.018 422.196 824.018 422.196C824.018 422.196 817.844 384.812 815.494 370.769C809.594 335.515 785.216 328.023 785.216 328.023L768.725 326.303Z" fill="#18277A"/>
<path d="M774.454 326.541C774.454 326.541 766.416 312.37 753.89 298.434C737.466 280.16 712.672 264.814 712.672 264.814C712.672 264.814 695.901 276.597 703.589 282.765C713.776 289.636 726.798 303.301 736.716 315.656C742.902 323.362 755.416 346.981 755.416 346.981" fill="#F777BA"/>
<path d="M708.318 285.877C702.436 281.482 683.306 271.545 683.514 270.056C683.723 268.568 690.498 271.973 690.44 270.718C690.383 269.465 680.314 263.517 680.919 262.085C681.739 260.145 691.727 266.788 691.727 266.788C691.727 266.788 681.151 258.966 682.348 257.489C683.199 256.442 691.544 262.041 695.003 263.78C691.495 261.418 686.266 256.918 687.17 255.849C688.067 254.792 693.83 258.481 698.396 261.073C695.696 259.189 690.971 255.496 691.76 254.47C692.547 253.448 707.24 260.872 721.1 270.436" fill="#F777BA"/>
<path d="M799.51 370.125C799.51 370.125 787.244 394.522 774.241 408.013C757.19 425.705 729.965 438.152 729.965 438.152C729.965 438.152 713.614 425.79 721.512 419.894C731.933 413.381 748.428 400.44 758.77 388.438C765.222 380.952 775.544 357.524 775.544 357.524" fill="#F777BA"/>
<path d="M726.346 416.949C720.317 421.137 700.852 430.403 701.006 431.897C701.164 433.392 708.053 430.224 707.953 431.476C707.853 432.727 697.582 438.32 698.137 439.772C698.889 441.74 709.101 435.449 709.101 435.449C709.101 435.449 698.26 442.897 699.406 444.416C700.218 445.491 708.754 440.187 712.27 438.569C708.682 440.808 703.3 445.123 704.165 446.221C705.026 447.311 710.913 443.824 715.568 441.392C712.805 443.183 707.953 446.707 708.708 447.76C709.457 448.811 724.368 441.328 738.126 433.732" fill="#F777BA"/>
<path d="M775.025 351.215C771.613 362.696 762.593 381.709 762.593 381.709L787.08 394.615C787.08 394.615 799.707 379.203 804.482 360.688" fill="#18277A"/>
<path d="M787.079 394.615C787.079 394.615 800.787 375.471 803.171 365.125" stroke="#5565AA" stroke-miterlimit="10"/>
<path d="M762.592 381.71C762.592 381.71 771.704 364.064 773.618 355.518" stroke="#5565AA" stroke-miterlimit="10"/>
<path d="M752.659 364.159C752.353 354.572 747.732 334.537 733.979 316.211L755.628 298.893C755.628 298.893 774.649 314.124 780.073 327.557" fill="#18277A"/>
<path d="M764.449 298.659C764.449 298.659 758.923 313.977 763.843 318.954C766.399 321.542 773.947 321.993 777.159 319.429C779.541 317.525 783.072 305.747 781.72 303.685C776.556 295.799 764.449 298.659 764.449 298.659Z" fill="#F777BA"/>
<path d="M767.536 305.882C767.536 305.882 764.572 309.499 764.692 310.61C764.811 311.721 767.376 312.133 767.376 312.133" stroke="#CC328A" stroke-width="0.666667" stroke-miterlimit="10" stroke-linejoin="round"/>
<path d="M764.404 313.156L771.333 314.917C771.333 314.917 769.59 318.401 765.852 317.173C763.185 316.297 764.404 313.156 764.404 313.156Z" fill="white"/>
<path d="M764.799 304.275C764.619 304.591 764.471 304.918 764.331 305.253C764.075 305.871 765.103 306.165 765.347 305.533C765.461 305.237 765.559 304.937 765.637 304.629C765.762 304.133 765.062 303.815 764.799 304.275Z" fill="#00276F"/>
<path d="M767.249 302.932C767.249 302.932 766.329 301.36 764.642 302.328" stroke="#00276F" stroke-width="0.666667" stroke-miterlimit="10" stroke-linecap="round" stroke-linejoin="round"/>
<path d="M772.605 307.034C772.445 307.356 772.308 307.69 772.189 308.03C771.967 308.667 772.997 308.955 773.204 308.31C773.301 308.006 773.384 307.7 773.443 307.387C773.533 306.91 772.852 306.538 772.605 307.034Z" fill="#00276F"/>
<path d="M772.57 304.339C772.57 304.339 774.357 303.94 775.92 306.172" stroke="#00276F" stroke-width="0.666667" stroke-miterlimit="10" stroke-linecap="round" stroke-linejoin="round"/>
<path d="M782.191 312.668L785.217 328.023C785.217 328.023 773.625 336.716 767.218 327.464L767.021 317.428L782.191 312.668Z" fill="#F777BA"/>
<path d="M787.716 310.022C787.848 309.475 787.999 308.933 788.195 308.386C788.66 307.09 789.372 305.943 789.88 304.67C790.897 302.122 790.052 298.955 787.903 297.251C787.521 296.95 787.103 296.689 786.764 296.338C786.003 295.551 785.739 294.426 785.297 293.425C784.936 292.605 784.411 291.814 783.62 291.394C781.807 290.427 779.392 291.738 777.579 290.77C777.188 290.559 776.855 290.257 776.5 289.989C773.901 288.022 770.952 288.481 768.119 289.505C766.793 289.985 766.357 290.507 765.253 291.366C764.048 292.305 762.379 292.242 761.167 293.161C759.895 294.125 759.575 295.894 759.561 297.491C759.556 298.069 759.583 298.666 759.828 299.19C760.143 299.863 760.783 300.334 761.46 300.642C763.083 301.382 764.911 301.098 766.632 300.967C768.316 300.841 770.271 299.655 771.917 300.27C773.523 300.869 773.933 302.838 775.911 302.993C776.689 303.053 777.637 302.911 778.104 303.538C778.629 304.247 778.353 305.413 778.768 306.234C779.159 307.009 779.845 307.706 780.348 308.419C781.347 309.837 782.763 310.81 782.256 312.661C781.904 313.947 780.473 316.013 781.064 317.375C781.455 318.273 783.431 318.259 784.925 317.121C786.467 315.949 786.925 313.714 787.303 311.933C787.441 311.279 787.567 310.649 787.716 310.022Z" fill="#212237"/>
<path d="M780.642 310.337C782.106 307.965 783.534 308.149 784.43 309.255C785.625 310.729 783.982 314.273 783.105 314.948C781.325 316.315 779.761 316.373 779.434 314.837" fill="#F777BA"/>
<path d="M767.621 321.26C773.126 321.45 777.726 318.814 777.726 318.814" stroke="#CC328A" stroke-miterlimit="10" stroke-linejoin="round"/>
<path d="M752.392 360.625C752.392 360.625 752.756 345.652 751.044 341.077" stroke="#5565AA" stroke-miterlimit="10"/>
<path d="M765.736 330.201C765.736 330.201 768.457 334.936 775.822 334.779C784.169 334.599 787.622 329.001 787.622 329.001" stroke="#5565AA" stroke-miterlimit="10"/>
<path d="M620.775 250.911C619.952 257.992 614.692 274.397 615.725 275.067C616.756 275.736 619.224 269.429 619.961 270.127C620.697 270.824 617.924 280.365 619.144 280.776C620.801 281.333 622.98 271.897 622.98 271.897C622.98 271.897 621.191 282.296 622.775 282.389C623.897 282.457 625.797 274.94 626.688 272.035C626.149 275.299 625.343 280.445 626.511 280.493C627.668 280.539 628.985 276.096 629.981 272.104C629.609 274.649 628.424 279.7 629.501 279.791C630.575 279.881 634.493 268.405 636.987 254.097" fill="#F777BA"/>
<path d="M641.465 178.955C646.55 216.368 635.405 261.31 635.405 261.31L619.951 257.991C619.951 257.991 625.749 217.407 619.222 181.756" fill="#F777BA"/>
<path d="M608.901 145.622C616.225 145.622 623.822 147.994 630.55 153.272C640.858 161.36 643.442 180.02 643.442 180.02L619.073 184.894C619.073 184.894 617.789 169.156 617.597 163.767" fill="#FF9357"/>
<path d="M618.184 184.894C617.428 177.67 615.198 171.182 615.198 171.182" stroke="#A52F2D" stroke-miterlimit="10"/>
<path d="M870.309 506.79C870.309 513.502 864.869 518.944 858.157 518.944C851.445 518.944 846.003 513.502 846.003 506.79C846.003 500.08 851.445 494.638 858.157 494.638C864.869 494.638 870.309 500.08 870.309 506.79Z" stroke="#FF9C94" stroke-width="2" stroke-miterlimit="10"/>
<path d="M381.091 91.2351C381.091 94.5911 378.37 97.3124 375.015 97.3124C371.659 97.3124 368.938 94.5911 368.938 91.2351C368.938 87.8791 371.659 85.1591 375.015 85.1591C378.37 85.1591 381.091 87.8791 381.091 91.2351Z" stroke="#91ABE5" stroke-width="2" stroke-miterlimit="10"/>
<path d="M884.557 358.846C884.557 362.204 881.837 364.924 878.48 364.924C875.125 364.924 872.405 362.204 872.405 358.846C872.405 355.49 875.125 352.769 878.48 352.769C881.837 352.769 884.557 355.49 884.557 358.846Z" stroke="#91ABE5" stroke-width="2" stroke-miterlimit="10"/>
<path d="M890.634 484.191C890.634 487.547 887.914 490.267 884.557 490.267C881.202 490.267 878.481 487.547 878.481 484.191C878.481 480.834 881.202 478.114 884.557 478.114C887.914 478.114 890.634 480.834 890.634 484.191Z" stroke="#91ABE5" stroke-width="2" stroke-miterlimit="10"/>
<path d="M241.211 113.654L241.859 117.7C242.147 119.494 243.712 120.802 245.53 120.765L248.214 120.71C250.032 120.672 251.599 121.981 251.886 123.776L252.31 126.424C252.598 128.218 254.163 129.526 255.982 129.489L258.67 129.434C260.486 129.398 262.051 130.705 262.34 132.498L262.768 135.16C263.056 136.953 264.622 138.26 266.438 138.224L269.618 138.16" stroke="#91ABE5" stroke-width="2" stroke-miterlimit="10"/>
<path d="M779.558 172.251L771.489 142.605L801.137 134.536L809.204 164.183L779.558 172.251Z" stroke="#91ABE5" stroke-width="2" stroke-miterlimit="10"/>
<path d="M747.523 218.379L751.605 218.03C753.415 217.875 754.834 216.408 754.931 214.594L755.073 211.912C755.169 210.098 756.59 208.631 758.401 208.476L761.073 208.248C762.885 208.094 764.303 206.627 764.399 204.812L764.543 202.127C764.639 200.312 766.057 198.847 767.867 198.691L770.553 198.459C772.363 198.303 773.781 196.838 773.878 195.024L774.049 191.848" stroke="#91ABE5" stroke-width="2" stroke-miterlimit="10"/>
<path d="M873.47 277.406L869.569 278.655C867.838 279.208 866.779 280.955 867.091 282.746L867.549 285.39C867.858 287.182 866.801 288.927 865.069 289.482L862.515 290.298C860.783 290.852 859.726 292.598 860.037 294.388L860.495 297.039C860.803 298.828 859.747 300.572 858.017 301.128L855.45 301.951C853.721 302.506 852.665 304.25 852.974 306.04L853.514 309.174" stroke="#91ABE5" stroke-width="2" stroke-miterlimit="10"/>
<path d="M895.616 454.651L899.015 456.939C900.523 457.955 902.547 457.703 903.76 456.348L905.552 454.35C906.765 452.998 908.792 452.746 910.3 453.762L912.524 455.259C914.032 456.275 916.057 456.023 917.271 454.671L919.067 452.67C920.279 451.316 922.304 451.066 923.811 452.078L926.048 453.583C927.555 454.596 929.579 454.346 930.792 452.994L932.916 450.626" stroke="#91ABE5" stroke-width="2" stroke-miterlimit="10"/>
<path d="M860.048 327.558L846.003 336.225" stroke="#FF9C94" stroke-width="2" stroke-miterlimit="10"/>
<path d="M718.267 145.417L705.363 155.706" stroke="#FF9C94" stroke-width="2" stroke-miterlimit="10"/>
<path d="M431.162 169.29L415.096 165.516" stroke="#FF9C94" stroke-width="2" stroke-miterlimit="10"/>
<path d="M100.371 494.496L102.259 479.509L117.246 481.397L115.358 496.384L100.371 494.496Z" stroke="#91ABE5" stroke-width="2" stroke-miterlimit="10"/>
<path d="M94.3945 440.109C94.3945 443.467 91.6732 446.187 88.3172 446.187C84.9625 446.187 82.2412 443.467 82.2412 440.109C82.2412 436.753 84.9625 434.033 88.3172 434.033C91.6732 434.033 94.3945 436.753 94.3945 440.109Z" stroke="#FF9C94" stroke-width="2" stroke-miterlimit="10"/>
<path d="M124.726 379.303L123.465 375.406C122.905 373.677 121.155 372.625 119.365 372.942L116.722 373.409C114.931 373.725 113.182 372.671 112.623 370.942L111.797 368.391C111.237 366.662 109.489 365.609 107.698 365.926L105.05 366.393C103.261 366.709 101.513 365.658 100.953 363.93L100.121 361.366C99.5592 359.638 97.8126 358.587 96.0246 358.902L92.8926 359.453" stroke="#91ABE5" stroke-width="2" stroke-miterlimit="10"/>
<path d="M126.796 239.187L114.575 228.095" stroke="#FF9C94" stroke-width="2" stroke-miterlimit="10"/>
</g>
<defs>
<clipPath id="clip0">
<rect width="1000" height="666.667" fill="white"/>
</clipPath>
</defs>
</svg>
