<svg width="20" height="20" viewBox="0 0 20 20" fill="none" xmlns="http://www.w3.org/2000/svg">
<g clip-path="url(#clip0)">
<path d="M19.5101 17.1587L15.6393 13.2879C16.8179 11.5236 17.2981 9.38402 16.9865 7.28528C16.675 5.18653 15.5939 3.27872 13.9536 1.93292C12.3132 0.587125 10.231 -0.100421 8.11181 0.0040208C5.99264 0.108463 3.98807 0.997424 2.48804 2.49799C0.988005 3.99855 0.0997526 6.00343 -0.00393999 8.12264C-0.107633 10.2418 0.580649 12.3239 1.92702 13.9637C3.2734 15.6035 5.1816 16.684 7.28045 16.9948C9.37931 17.3056 11.5187 16.8246 13.2826 15.6454L17.1534 19.5154C17.4686 19.8229 17.8915 19.9949 18.3318 19.9949C18.7721 19.9949 19.1949 19.8229 19.5101 19.5154C19.8226 19.2029 19.9981 18.779 19.9981 18.3371C19.9981 17.8951 19.8226 17.4713 19.5101 17.1587ZM8.5401 2.50374C9.73503 2.50374 10.9031 2.85808 11.8967 3.52194C12.8902 4.18581 13.6646 5.12939 14.1219 6.23336C14.5792 7.33733 14.6988 8.55211 14.4657 9.72408C14.2326 10.896 13.6572 11.9726 12.8122 12.8175C11.9673 13.6625 10.8907 14.2379 9.71878 14.471C8.54681 14.7041 7.33203 14.5845 6.22806 14.1272C5.12409 13.6699 4.18051 12.8955 3.51664 11.902C2.85278 10.9084 2.49844 9.74033 2.49844 8.54541C2.5002 6.9436 3.1373 5.4079 4.26995 4.27525C5.4026 3.1426 6.9383 2.5055 8.5401 2.50374Z" fill="#AAAFCA"/>
</g>
<defs>
<clipPath id="clip0">
<rect width="20" height="20" fill="white"/>
</clipPath>
</defs>
</svg>
