<svg width="1280" height="350" viewBox="0 0 1280 350" fill="none" xmlns="http://www.w3.org/2000/svg">
<rect width="1280" height="350" rx="12" fill="#8D9FCD"/>
<mask id="mask0" mask-type="alpha" maskUnits="userSpaceOnUse" x="0" y="0" width="1280" height="350">
<rect width="1280" height="350" rx="12" fill="#EBF2F9"/>
</mask>
<g mask="url(#mask0)">
<path d="M643.614 374.448L542 367.266C574.218 304.76 617.793 249.61 669.636 204.281C768.001 118.191 896.472 67 1034.05 67C1057.27 67 1080.73 68.4532 1104.32 71.4428C1167.14 79.3929 1226.24 97.6229 1280.09 124.204L1272.98 224.908C1219.57 192.74 1158.74 170.944 1092.78 162.577C1073.02 160.071 1053.42 158.86 1034.05 158.86C919.404 158.86 812.362 201.484 730.13 273.41C696.768 302.63 667.548 336.585 643.614 374.448Z" fill="#98AEDA"/>
<path d="M1206.37 402C1166.58 367.202 1116.52 343.552 1060.02 336.378C1048.23 334.883 1036.56 334.157 1025.02 334.157H1025.02C963.762 334.157 906.166 354.6 859.584 389.791L737.877 381.189C751.698 363.794 767.031 347.744 783.641 333.23C848.753 276.227 933.874 242.305 1025.02 242.297C1040.4 242.297 1055.94 243.265 1071.56 245.244C1145.46 254.581 1211.68 285.463 1264.35 330.683C1257.26 362.834 1235.23 388.939 1206.37 402Z" fill="#98AEDA"/>
</g>
</svg>
